<?xml version="1.0" standalone="no"?>
<!DOCTYPE svg PUBLIC "-//W3C//DTD SVG 20010904//EN"
 "http://www.w3.org/TR/2001/REC-SVG-20010904/DTD/svg10.dtd">
<svg version="1.0" xmlns="http://www.w3.org/2000/svg"
 width="1000.000000pt" height="1000.000000pt" viewBox="0 0 1000.000000 1000.000000"
 preserveAspectRatio="xMidYMid meet">
<metadata>
Created by potrace 1.14, written by Peter Selinger 2001-2017
</metadata>
<g transform="translate(0.000000,1000.000000) scale(0.100000,-0.100000)"
fill="#000000" stroke="none">
<path d="M6829 9096 c-2 -2 -29 -6 -59 -9 -94 -10 -295 -55 -345 -76 -11 -5
-42 -17 -70 -26 -274 -96 -579 -284 -868 -532 -114 -98 -347 -330 -347 -345 0
-17 -28 -7 -43 15 -17 27 -200 212 -277 282 -133 120 -349 270 -525 366 -165
89 -428 183 -575 205 -19 3 -40 7 -46 9 -21 6 -197 19 -269 19 -414 -1 -841
-199 -1164 -540 -132 -139 -216 -271 -286 -449 -10 -26 -10 -24 -45 -144 -27
-94 -71 -297 -85 -396 -17 -122 -25 -176 -30 -225 -3 -30 -8 -71 -10 -90 -44
-408 -54 -1093 -20 -1495 2 -27 7 -84 10 -125 4 -41 8 -91 10 -110 2 -19 6
-66 10 -105 3 -38 8 -81 10 -95 2 -14 7 -52 10 -85 3 -33 8 -71 10 -85 2 -14
6 -50 10 -80 3 -30 7 -66 9 -80 3 -14 7 -47 11 -75 6 -47 8 -63 21 -155 2 -19
9 -62 14 -95 5 -33 11 -78 15 -100 3 -22 8 -53 11 -70 3 -16 7 -41 9 -55 17
-112 38 -237 60 -360 14 -80 27 -154 29 -165 2 -11 11 -58 20 -105 19 -101 24
-128 43 -230 2 -14 8 -43 13 -65 5 -22 10 -50 10 -62 0 -20 -3 -21 -36 -11
-20 5 -44 11 -53 13 -181 41 -462 145 -669 249 -92 46 -287 173 -345 224 -137
120 -259 271 -320 396 -33 69 -75 186 -83 231 -2 17 -8 55 -13 85 -11 66 -6
224 8 277 6 21 12 51 15 67 11 60 61 195 111 301 160 333 483 685 889 968 48
34 97 69 107 77 16 13 18 33 20 185 1 125 -2 169 -10 167 -20 -4 -208 -120
-365 -225 -757 -503 -1248 -1074 -1341 -1559 -19 -103 -13 -302 13 -400 29
-108 68 -200 123 -293 51 -85 63 -102 150 -204 216 -254 619 -495 1089 -650
117 -39 330 -99 375 -106 11 -1 38 -8 60 -13 43 -12 78 -19 135 -28 122 -19
203 -41 205 -54 2 -8 11 -51 20 -95 10 -44 21 -98 26 -120 26 -129 150 -663
195 -840 14 -55 27 -107 29 -115 2 -8 15 -58 29 -110 14 -52 34 -131 46 -175
65 -252 133 -395 235 -500 63 -66 190 -140 285 -169 243 -74 484 -55 665 52
198 118 350 356 425 665 17 70 65 280 75 327 12 56 110 413 160 585 24 81 146
468 149 472 1 2 60 10 131 18 28 4 77 10 110 15 33 5 87 12 120 15 33 4 62 8
65 10 4 2 28 6 56 9 27 4 72 10 99 16 28 5 66 11 85 14 19 3 60 10 90 16 193
37 176 42 212 -65 84 -255 195 -633 272 -927 43 -163 58 -228 96 -418 77 -380
251 -623 509 -710 203 -68 493 -35 675 77 34 20 66 42 72 48 126 115 206 222
265 351 31 66 105 295 211 644 27 91 51 172 53 180 2 8 23 85 48 170 55 189
179 648 192 710 2 8 19 78 39 155 33 133 81 331 106 440 7 28 13 57 15 65 2 8
12 52 22 98 l17 83 116 60 c131 69 370 205 445 252 266 167 500 336 664 482
49 43 291 285 319 319 186 224 309 449 366 667 21 82 25 116 25 266 0 149 -3
183 -23 255 -81 290 -272 532 -595 753 l-72 49 43 41 c24 22 80 72 123 110
191 170 190 168 164 162 -33 -8 -224 -20 -329 -21 -85 0 -318 12 -375 19 -16
2 -57 7 -90 10 -33 4 -62 8 -65 10 -3 1 -34 6 -70 9 -36 4 -94 13 -130 20 -36
8 -66 13 -68 11 -2 -2 37 -60 86 -130 196 -279 404 -674 448 -850 6 -23 8 -25
16 -11 5 9 12 27 14 39 9 45 121 427 126 433 18 17 176 -166 248 -287 111
-184 163 -373 164 -594 0 -63 -13 -205 -19 -215 -2 -4 -7 -22 -10 -41 -26
-147 -174 -441 -292 -579 -12 -14 -38 -45 -58 -70 -149 -183 -435 -431 -710
-617 -159 -107 -385 -246 -391 -240 -1 1 10 65 26 142 15 77 31 156 34 175 3
19 15 82 26 140 11 58 25 132 30 165 5 33 12 70 14 81 2 12 7 39 10 60 4 22
11 64 16 94 5 30 12 73 15 95 4 22 8 51 11 65 2 14 7 43 9 65 3 22 10 65 15
95 5 30 12 79 15 109 4 30 8 61 10 70 1 9 6 39 9 66 4 28 9 66 11 85 4 34 7
60 20 185 4 33 8 71 11 85 26 157 25 1251 -1 1400 -2 14 -6 54 -9 90 -5 63
-12 123 -21 185 -3 17 -7 48 -10 70 -14 91 -59 276 -90 371 -60 176 -133 291
-285 446 -208 211 -431 318 -800 383 -42 7 -364 17 -371 11z m17 -440 c38 -3
79 -8 91 -10 11 -3 38 -7 59 -10 159 -26 344 -101 462 -189 264 -198 427 -557
487 -1072 3 -27 8 -63 10 -80 20 -135 27 -761 12 -1030 -14 -250 -16 -290 -22
-340 -3 -27 -7 -77 -10 -110 -3 -33 -7 -76 -10 -95 -2 -19 -7 -60 -10 -90 -7
-69 -24 -197 -30 -230 -2 -14 -7 -41 -9 -60 -10 -82 -48 -304 -71 -420 -14
-69 -27 -135 -30 -148 -2 -13 -6 -31 -9 -40 -3 -9 -8 -32 -11 -49 -3 -18 -12
-63 -21 -100 -9 -38 -18 -77 -20 -88 -2 -11 -24 -106 -50 -211 l-46 -192 -62
-27 c-188 -85 -616 -259 -666 -270 -8 -2 -67 -22 -130 -45 -63 -23 -142 -50
-175 -60 -33 -10 -87 -27 -120 -38 -137 -46 -633 -180 -806 -216 -24 -5 -28 0
-59 72 -224 517 -503 749 -754 628 -81 -40 -204 -165 -291 -296 -78 -118 -216
-386 -271 -526 -21 -53 -44 -96 -53 -98 -9 -3 -65 -8 -126 -11 -60 -4 -139 -8
-175 -11 -91 -5 -672 -5 -748 0 -34 3 -104 7 -155 11 -51 3 -108 8 -127 10
-19 2 -66 7 -105 10 -38 4 -76 8 -85 10 -8 1 -43 6 -77 10 l-62 7 -31 131
c-32 136 -90 404 -116 537 -8 41 -16 86 -19 100 -7 35 -47 261 -50 285 -3 23
-13 78 -19 115 -6 28 -52 352 -61 418 -3 23 -7 61 -10 85 -3 23 -7 58 -10 77
-9 72 -40 388 -50 520 -26 339 -29 436 -29 900 -1 392 4 572 18 647 2 10 7 45
11 78 3 33 10 78 15 100 5 22 11 57 14 79 4 21 8 41 11 45 2 4 6 18 8 32 22
117 104 340 174 467 80 148 180 275 291 372 34 30 69 61 77 68 46 41 209 130
314 171 44 18 218 63 291 76 76 14 385 14 470 0 138 -22 332 -74 354 -96 6 -5
16 -9 23 -9 21 0 182 -80 278 -139 130 -79 260 -179 361 -278 l88 -86 -30 -24
c-122 -101 -444 -154 -699 -116 -113 17 -178 10 -222 -23 -42 -32 -44 -70 -6
-114 75 -90 247 -143 468 -144 163 -1 257 16 394 71 167 66 286 163 419 342
136 180 340 377 487 468 236 147 472 227 735 250 36 3 66 6 67 7 5 4 192 -2
259 -8z m-1786 -4781 c55 -29 154 -153 208 -261 32 -63 104 -236 99 -240 -9
-7 -449 -82 -587 -99 -30 -4 -62 -9 -70 -10 -41 -7 -130 -15 -130 -12 0 13
134 336 165 398 64 127 124 205 180 234 33 17 92 13 135 -10z m2485 -77 c-4
-13 -44 -179 -50 -208 -2 -8 -13 -53 -25 -100 -12 -47 -31 -123 -41 -170 -11
-47 -22 -94 -24 -105 -3 -11 -7 -29 -10 -40 -2 -11 -6 -29 -9 -40 -30 -132
-66 -299 -71 -326 -3 -18 -8 -35 -10 -39 -2 -4 -7 -22 -10 -40 -12 -70 -65
-241 -110 -361 -154 -402 -373 -632 -616 -647 -266 -16 -458 159 -583 533 -23
67 -89 314 -100 372 -2 10 -9 38 -16 63 -7 25 -14 56 -17 70 -12 68 -66 257
-102 359 -23 63 -38 117 -36 120 3 3 13 6 23 8 15 3 198 46 243 57 8 2 47 12
85 21 410 101 1153 346 1429 471 38 17 56 18 50 2z m-4790 -792 c294 -28 1049
-28 1363 -1 23 2 42 1 42 -3 0 -4 -7 -27 -16 -51 -13 -38 -59 -213 -69 -261
-11 -55 -61 -239 -86 -317 -125 -391 -289 -607 -513 -675 -79 -24 -204 -21
-267 6 -44 18 -124 78 -162 120 -43 48 -112 155 -140 216 -14 30 -34 76 -46
102 -56 126 -127 377 -186 663 -21 99 -39 183 -42 188 -9 15 8 24 39 21 18 -2
56 -6 83 -8z"/>
</g>
</svg>
