<?xml version="1.0" encoding="UTF-8" standalone="no"?>
<svg width="125px" height="125px" viewBox="0 0 125 125" version="1.1" xmlns="http://www.w3.org/2000/svg" xmlns:xlink="http://www.w3.org/1999/xlink">
    <!-- Generator: Sketch 50.2 (55047) - http://www.bohemiancoding.com/sketch -->
    <title>base</title>
    <desc>Created with Sketch.</desc>
    <defs></defs>
    <g id="Welcome" stroke="none" stroke-width="1" fill="none" fill-rule="evenodd">
        <g id="Desktop" transform="translate(-569.000000, -884.000000)">
            <g id="Group-2" transform="translate(41.000000, 776.000000)">
                <g id="base" transform="translate(528.000000, 108.000000)">
                    <g>
                        <path d="M82.7886,59.5297 C85.2656,56.7167 89.0106,52.4667 89.0106,42.4497 C89.0106,38.0517 87.1856,33.9967 83.8736,31.0347 C80.5456,28.0597 75.9166,26.4197 70.8376,26.4197 C66.9756,26.4197 63.1846,28.0027 60.1546,30.8267 C57.1176,28.0027 53.3046,26.4197 49.4056,26.4197 C44.3286,26.4197 39.6986,28.0597 36.3716,31.0347 C33.0586,33.9967 31.2336,38.0517 31.2336,42.4497 C31.2336,52.4667 34.9786,56.7167 37.4556,59.5297 C39.4426,61.7837 40.1106,62.5417 38.9226,65.1567 C34.3676,75.1787 36.9176,88.2487 40.5116,93.8287 C41.8896,95.9707 43.4416,97.0567 45.1206,97.0567 C47.6196,97.0567 48.6866,94.4227 49.0356,93.5577 C49.6376,92.0717 50.1226,90.1757 50.6856,87.9797 C52.7166,80.0477 54.8286,73.4817 60.1226,73.4817 C65.4166,73.4817 67.5286,80.0477 69.5596,87.9797 C70.1226,90.1757 70.6076,92.0717 71.2086,93.5577 C71.5596,94.4227 72.6246,97.0567 75.1246,97.0567 C76.8046,97.0567 78.3546,95.9707 79.7336,93.8287 C83.3266,88.2487 85.8776,75.1787 81.3216,65.1567 C80.1336,62.5417 80.8036,61.7837 82.7886,59.5297" id="Fill-28" fill="#FFFFFF"></path>
                        <path d="M82.7886,59.5297 C85.2656,56.7167 89.0106,52.4667 89.0106,42.4497 C89.0106,38.0517 87.1856,33.9967 83.8736,31.0347 C80.5456,28.0597 75.9166,26.4197 70.8376,26.4197 C66.9756,26.4197 63.1846,28.0027 60.1546,30.8267 C57.1176,28.0027 53.3046,26.4197 49.4056,26.4197 C44.3286,26.4197 39.6986,28.0597 36.3716,31.0347 C33.0586,33.9967 31.2336,38.0517 31.2336,42.4497 C31.2336,52.4667 34.9786,56.7167 37.4556,59.5297 C39.4426,61.7837 40.1106,62.5417 38.9226,65.1567 C34.3676,75.1787 36.9176,88.2487 40.5116,93.8287 C41.8896,95.9707 43.4416,97.0567 45.1206,97.0567 C47.6196,97.0567 48.6866,94.4227 49.0356,93.5577 C49.6376,92.0717 50.1226,90.1757 50.6856,87.9797 C52.7166,80.0477 54.8286,73.4817 60.1226,73.4817 C65.4166,73.4817 67.5286,80.0477 69.5596,87.9797 C70.1226,90.1757 70.6076,92.0717 71.2086,93.5577 C71.5596,94.4227 72.6246,97.0567 75.1246,97.0567 C76.8046,97.0567 78.3546,95.9707 79.7336,93.8287 C83.3266,88.2487 85.8776,75.1787 81.3216,65.1567 C80.1336,62.5417 80.8036,61.7837 82.7886,59.5297 Z" id="Stroke-30" stroke="#00A19B" stroke-width="2" stroke-linecap="round" stroke-linejoin="round"></path>
                        <path d="M60.1547,30.8271 C59.9977,30.6811 55.9257,36.1991 53.8257,36.1991 C55.9257,36.1991 59.8987,36.6691 61.1067,34.9531 C65.3027,28.9851 70.9647,26.5371 74.6337,26.7391 C73.4077,26.5291 72.1387,26.4201 70.8377,26.4201 C66.9757,26.4201 63.1847,28.0031 60.1547,30.8271" id="Fill-32" fill="#E4E4E4"></path>
                        <path d="M77.9941,93.5563 C77.3931,92.0723 76.9081,90.1743 76.3461,87.9793 C74.3141,80.0473 72.2021,73.4803 66.9091,73.4803 C65.5981,73.4803 64.4821,73.8843 63.5151,74.6103 C66.4561,76.8173 68.0311,82.0103 69.5591,87.9793 C70.1211,90.1743 70.6061,92.0723 71.2081,93.5563 C71.5581,94.4223 72.6251,97.0553 75.1251,97.0553 C76.4251,97.0553 77.6471,96.4023 78.7731,95.1133 C78.3771,94.5003 78.1311,93.8943 77.9941,93.5563" id="Fill-34" fill="#E4E4E4"></path>
                        <path d="M47.2976,93.8291 C43.7036,88.2481 41.1536,75.1791 45.7096,65.1561 C46.8966,62.5421 46.2286,61.7841 44.2416,59.5301 C41.7646,56.7171 38.0196,52.4671 38.0196,42.4501 C38.0196,38.0511 39.8446,33.9971 43.1576,31.0351 C45.6366,28.8171 48.8386,27.3431 52.4106,26.7361 C51.4236,26.5291 50.4176,26.4201 49.4056,26.4201 C44.3286,26.4201 39.6986,28.0591 36.3726,31.0351 C33.0586,33.9971 31.2336,38.0511 31.2336,42.4501 C31.2336,52.4671 34.9786,56.7171 37.4556,59.5301 C39.4426,61.7841 40.1106,62.5421 38.9226,65.1561 C34.3676,75.1791 36.9176,88.2481 40.5116,93.8291 C41.8896,95.9701 43.4416,97.0571 45.1206,97.0571 C46.6456,97.0571 47.6366,96.0761 48.2566,95.1141 C47.9296,94.7381 47.6096,94.3121 47.2976,93.8291" id="Fill-36" fill="#E4E4E4"></path>
                        <path d="M82.7886,59.5297 C85.2656,56.7167 89.0106,52.4667 89.0106,42.4497 C89.0106,38.0517 87.1856,33.9967 83.8736,31.0347 C80.5456,28.0597 75.9166,26.4197 70.8376,26.4197 C66.9756,26.4197 63.1846,28.0027 60.1546,30.8267 C57.1176,28.0027 53.3046,26.4197 49.4056,26.4197 C44.3286,26.4197 39.6986,28.0597 36.3716,31.0347 C33.0586,33.9967 31.2336,38.0517 31.2336,42.4497 C31.2336,52.4667 34.9786,56.7167 37.4556,59.5297 C39.4426,61.7837 40.1106,62.5417 38.9226,65.1567 C34.3676,75.1787 36.9176,88.2487 40.5116,93.8287 C41.8896,95.9707 43.4416,97.0567 45.1206,97.0567 C47.6196,97.0567 48.6866,94.4227 49.0356,93.5577 C49.6376,92.0717 50.1226,90.1757 50.6856,87.9797 C52.7166,80.0477 54.8286,73.4817 60.1226,73.4817 C65.4166,73.4817 67.5286,80.0477 69.5596,87.9797 C70.1226,90.1757 70.6076,92.0717 71.2086,93.5577 C71.5596,94.4227 72.6246,97.0567 75.1246,97.0567 C76.8046,97.0567 78.3546,95.9707 79.7336,93.8287 C83.3266,88.2487 85.8776,75.1787 81.3216,65.1567 C80.1336,62.5417 80.8036,61.7837 82.7886,59.5297 Z" id="Stroke-38" stroke="#00A19B" stroke-width="2" stroke-linecap="round" stroke-linejoin="round"></path>
                        <path d="M124.0051,62.6253 C124.0051,96.6973 96.3841,124.3173 62.3131,124.3173 C28.2411,124.3173 0.6201,96.6973 0.6201,62.6253 C0.6201,28.5533 28.2411,0.9333 62.3131,0.9333 C96.3841,0.9333 124.0051,28.5533 124.0051,62.6253 Z" id="Stroke-40" stroke="#00A19B"></path>
                        <path d="M75.8811,54.5531 C76.4881,54.5531 76.9811,54.0611 76.9811,53.4531 C76.9811,48.6021 79.9401,44.6561 83.5791,44.6561 C84.1861,44.6561 84.6781,44.1641 84.6781,43.5561 C84.6781,42.9491 84.1861,42.4571 83.5791,42.4571 C79.9401,42.4571 76.9811,38.5101 76.9811,33.6601 C76.9811,33.0521 76.4881,32.5601 75.8811,32.5601 C75.2741,32.5601 74.7811,33.0521 74.7811,33.6601 C74.7811,38.5101 71.8221,42.4571 68.1831,42.4571 C67.5761,42.4571 67.0841,42.9491 67.0841,43.5561 C67.0841,44.1641 67.5761,44.6561 68.1831,44.6561 C71.8221,44.6561 74.7811,48.6021 74.7811,53.4531 C74.7811,54.0611 75.2741,54.5531 75.8811,54.5531" id="Fill-42" fill="#00A19B"></path>
                        <path d="M69.2832,54.5531 C66.8992,54.5531 64.8842,51.5321 64.8842,47.9551 C64.8842,47.3481 64.3922,46.8551 63.7852,46.8551 C63.1772,46.8551 62.6852,47.3481 62.6852,47.9551 C62.6852,51.5321 60.6712,54.5531 58.2862,54.5531 C57.6792,54.5531 57.1872,55.0451 57.1872,55.6531 C57.1872,56.2601 57.6792,56.7521 58.2862,56.7521 C60.6712,56.7521 62.6852,59.7741 62.6852,63.3501 C62.6852,63.9581 63.1772,64.4501 63.7852,64.4501 C64.3922,64.4501 64.8842,63.9581 64.8842,63.3501 C64.8842,59.7741 66.8992,56.7521 69.2832,56.7521 C69.8902,56.7521 70.3832,56.2601 70.3832,55.6531 C70.3832,55.0451 69.8902,54.5531 69.2832,54.5531" id="Fill-44" fill="#BFF7EC"></path>
                        <path d="M85.778,62.2507 C83.394,62.2507 81.379,59.2297 81.379,55.6527 C81.379,55.0457 80.887,54.5527 80.28,54.5527 C79.672,54.5527 79.18,55.0457 79.18,55.6527 C79.18,59.2297 77.166,62.2507 74.781,62.2507 C74.174,62.2507 73.682,62.7427 73.682,63.3507 C73.682,63.9577 74.174,64.4497 74.781,64.4497 C77.166,64.4497 79.18,67.4717 79.18,71.0477 C79.18,71.6557 79.672,72.1477 80.28,72.1477 C80.887,72.1477 81.379,71.6557 81.379,71.0477 C81.379,67.4717 83.394,64.4497 85.778,64.4497 C86.385,64.4497 86.878,63.9577 86.878,63.3507 C86.878,62.7427 86.385,62.2507 85.778,62.2507" id="Fill-46" fill="#BFF7EC"></path>
                    </g>
                </g>
            </g>
        </g>
    </g>
</svg>