<?xml version="1.0" encoding="UTF-8" standalone="no"?>
<svg width="79px" height="45px" viewBox="0 0 79 45" version="1.1" xmlns="http://www.w3.org/2000/svg" xmlns:xlink="http://www.w3.org/1999/xlink">
    <!-- Generator: Sketch 50.2 (55047) - http://www.bohemiancoding.com/sketch -->
    <title>callToUs Copy</title>
    <desc>Created with Sketch.</desc>
    <defs></defs>
    <g id="Welcome" stroke="none" stroke-width="1" fill="none" fill-rule="evenodd">
        <g id="Desktop" transform="translate(-897.000000, -29.000000)">
            <g id="callToUs" transform="translate(897.000000, 26.000000)">
                <rect id="Rectangle" fill="#00A19B" x="0" y="3.64912281" width="79" height="43.7894737" rx="21.8947368"></rect>
                <g id="call" stroke-width="1" transform="translate(22.965116, 7.298246)" fill="#FFFFFF">
                    <path d="M30.0851291,14.5972211 C30.03185,13.3072561 29.9050826,12.0756772 29.6083733,10.8705544 C29.1242686,8.95750175 28.2828267,7.23146667 26.8663384,5.82381754 C24.8803151,3.84872982 22.3853849,2.97476491 19.6681523,2.61806316 C18.2433965,2.43195789 16.8168035,2.40276491 15.3782686,2.49216842 C13.8377686,2.58887018 12.3321756,2.83062456 10.8761872,3.33602807 C8.32522209,4.21637895 6.33919884,5.76999298 5.0669314,8.15743158 C4.16578023,9.83876491 3.76710581,11.6560281 3.61829186,13.5389754 C3.5861407,13.8829053 3.58246628,14.2286596 3.56501279,14.5972211 C3.90489651,14.5972211 4.1979314,14.5899228 4.4946407,14.6008702 C4.6535593,14.6045193 4.71051279,14.5424842 4.73807093,14.379186 C4.92179186,13.1248 5.25065233,11.9050807 5.74210581,10.7337123 C7.0814314,7.55076491 9.35681512,5.38501053 12.7345244,4.45904561 C15.1127919,3.80585263 17.519536,3.7602386 19.9327105,4.22367719 C23.4739314,4.90788772 26.0570477,6.84830877 27.6287802,10.085993 C28.2828267,11.4462035 28.6677221,12.8866947 28.9368733,14.3618526 C28.9506523,14.4485193 29.035164,14.5817123 29.0994663,14.5853614 C29.4173035,14.6081684 29.7388151,14.5972211 30.0851291,14.5972211 M12.208164,10.0495018 C11.8940012,13.7478877 10.233164,16.3040982 6.49444302,17.3030456 C6.49444302,17.590414 6.50179186,17.9170105 6.49444302,18.2472561 C6.46321047,19.5873965 6.63590814,20.8983439 6.99967558,22.1910456 C7.09521047,22.5440982 7.23300116,22.8670456 7.51960581,23.1069754 C7.78783837,23.3332211 8.04229186,23.5777123 8.32889651,23.7738526 C9.80233837,24.7864842 11.4843035,25.1495719 13.2296523,25.3475368 C13.6715012,25.3968 13.9682105,25.3019228 14.2970709,24.9808 C15.3038616,24.0229053 17.2862105,23.9353263 18.462943,24.7353965 C19.7030593,25.5792561 19.6993849,26.8902035 18.4418151,27.7094316 C17.738164,28.1637474 16.9435709,28.2923789 16.1269314,28.2166596 C15.4416523,28.1518877 14.74535,27.9749053 14.2823733,27.4412211 C13.9360593,27.0343439 13.5621872,26.8728702 13.0633849,26.8865544 C13.0284779,26.8865544 12.9889779,26.8810807 12.9577453,26.8783439 C11.5936174,26.7533614 10.2754198,26.4796772 9.01417558,25.939607 C8.94344302,25.9095018 8.87271047,25.8903439 8.72757093,25.8392561 C10.286443,27.9977123 12.1907105,29.5923789 14.6323616,30.5238175 C16.0212919,31.0538526 17.4203267,31.1222737 18.823036,30.5922386 C22.4487686,29.2311158 24.9078733,26.6986246 26.3363035,23.1498526 C27.0959895,21.2541333 27.2613384,19.2680982 27.1520244,17.2519579 C27.0959895,16.2520982 27.0886407,16.2393263 26.2159663,15.7010807 C24.427443,14.5972211 22.4239663,14.171186 20.3001523,13.9130105 C20.8274314,14.4357474 21.1948733,14.990414 21.3923733,15.7165895 C20.3001523,15.0113965 19.1133151,14.6674667 17.9466872,14.2706246 C16.7175942,13.8500632 15.491257,13.4495719 14.4771174,12.5619228 C13.87635,12.0282386 13.2654779,11.5173614 12.7878035,10.8632561 C12.607757,10.6142035 12.424036,10.3596772 12.208164,10.0495018 M26.6578151,34.4320281 L24.7177221,34.4320281 C24.6534198,34.4174316 24.5973849,34.3909754 24.5340012,34.386414 C22.7280244,34.2176421 21.0286058,33.7031158 19.4522802,32.803607 C19.2584547,32.6950456 19.0885128,32.6667649 18.883664,32.7297123 C17.5158616,33.115607 16.1517337,33.115607 14.7811756,32.7278877 C14.5763267,32.6667649 14.4063849,32.6950456 14.2116407,32.803607 C12.9889779,33.5088 11.6753733,33.9804491 10.2827686,34.2212912 C9.81611744,34.2997474 9.35681512,34.3645193 8.89751279,34.4320281 L6.94731512,34.4320281 C6.87658256,34.415607 6.80952442,34.386414 6.74154767,34.3791158 C4.81615233,34.2085193 3.04232674,33.6246596 1.46232674,32.4998175 C1.19041977,32.3055018 0.933210465,32.0911158 0.685187209,31.9050105 C1.3355593,31.5501333 1.95745465,31.243607 2.55087326,30.8750456 C3.14429186,30.499186 3.63941977,30.0120281 4.09504767,29.4172211 C3.42722209,29.3907649 2.80532674,29.3150456 2.24681512,29.0769404 C2.82645465,28.783186 3.40609419,28.5058526 3.96828023,28.1956772 C4.87586163,27.6866246 5.66402442,27.0763088 5.76690814,25.9323088 C5.78803605,25.7325193 5.86244302,25.5372912 5.88724535,25.3356772 C5.90837326,25.2234667 5.92215233,25.0920982 5.87989651,24.9880982 C5.69617558,24.5392561 5.49775698,24.0986246 5.30025698,23.6561684 C4.4946407,23.6561684 3.67157093,23.7209404 2.86595465,23.6443088 C1.32453605,23.4919579 0.258036047,22.2421333 0.243338372,20.6629754 C0.23690814,19.6229754 0.23690814,18.5875368 0.243338372,17.5448 C0.254361628,16.5093614 0.696210465,15.6855719 1.55418721,15.1026246 C1.7489314,14.9758175 1.79486163,14.8462737 1.79486163,14.639186 C1.82701279,12.7370807 2.09524535,10.8723789 2.7382686,9.07701053 C3.49428023,6.99244912 4.68571047,5.20802807 6.42738488,3.80585263 C8.7211407,1.95301053 11.4172453,1.11827368 14.3007453,0.807185965 C15.6924314,0.654835088 17.0914663,0.643887719 18.4840709,0.73602807 C20.5196988,0.870133333 22.4983733,1.24781754 24.3640593,2.07616842 C27.5378384,3.47287018 29.7213616,5.78732632 30.90085,9.03504561 C31.5695942,10.8687298 31.8166988,12.7726596 31.8699779,14.7057825 C31.8764081,14.8836772 31.9296872,14.9794667 32.0775826,15.077993 C32.840943,15.5870456 33.3360709,16.2922386 33.3783267,17.2154667 C33.4279314,18.4433965 33.4564081,19.6749754 33.3957802,20.9038175 C33.3186174,22.3880982 32.2649779,23.4901333 30.8025593,23.6406596 C29.996943,23.7209404 29.1766291,23.6543439 28.3609081,23.6543439 C28.1698384,24.0949754 27.9750942,24.5392561 27.7775942,24.9826246 C27.7665709,25.0163789 27.7417686,25.0546947 27.7491174,25.0884491 C27.8446523,25.633993 27.8483267,26.2078175 28.2442453,26.6621333 C28.7990826,27.3025544 29.434757,27.8444491 30.1659663,28.2677474 C30.7456058,28.6025544 31.3537221,28.887186 31.9434663,29.1891509 C31.226036,29.481993 30.4415477,29.5604491 29.6083733,29.4746947 C30.5159547,30.6241684 31.6642105,31.3612912 33.0219081,31.8520982 C32.8905477,31.9643088 32.792257,32.0509754 32.6967221,32.1294316 C31.3573965,33.2159579 29.8233267,33.8828351 28.1340128,34.2039579 C27.6471523,34.2997474 27.1520244,34.3581333 26.6578151,34.4320281" id="Fill-4"></path>
                    <path d="M12.5194791,20.1489053 C11.5374907,20.1489053 10.8237349,19.4190807 10.8264907,18.425607 C10.8264907,17.5169754 11.5834209,16.7835018 12.5194791,16.7762035 C13.4803395,16.7725544 14.2262465,17.5242737 14.2225721,18.4958526 C14.2225721,19.4263789 13.4766651,20.1507298 12.5194791,20.1489053" id="Path"></path>
                    <path d="M21.1484837,16.7765684 C22.1056698,16.7802175 22.8479023,17.5419719 22.8414721,18.5135509 C22.8267744,19.446814 22.0744372,20.1538316 21.0887744,20.1492702 C20.141693,20.1456211 19.4343674,19.394814 19.4417163,18.4086386 C19.4490651,17.506393 20.2124256,16.7729193 21.1484837,16.7765684" id="Path"></path>
                </g>
            </g>
        </g>
    </g>
</svg>