<?xml version="1.0" encoding="UTF-8" standalone="no"?>
<svg width="96px" height="87px" viewBox="0 0 96 87" version="1.1" xmlns="http://www.w3.org/2000/svg" xmlns:xlink="http://www.w3.org/1999/xlink">
    <!-- Generator: Sketch 50.2 (55047) - http://www.bohemiancoding.com/sketch -->
    <title>conf</title>
    <desc>Created with Sketch.</desc>
    <defs></defs>
    <g id="Welcome" stroke="none" stroke-width="1" fill="none" fill-rule="evenodd">
        <g id="Desktop" transform="translate(-42.000000, -2239.000000)">
            <g id="Group-8" transform="translate(42.000000, 1952.000000)">
                <g id="conf" transform="translate(0.000000, 287.000000)">
                    <g id="Group">
                        <g id="Group-5" transform="translate(0.000000, 0.085100)" fill="#00A19B">
                            <path d="M93.7367,19.4927 C91.3017,11.8337 86.3447,5.6217 80.1357,2.4467 C74.7417,-0.3113 68.8987,-0.5923 63.2367,1.6337 C57.4837,3.8977 52.2597,8.5757 47.6877,15.5567 C43.1147,8.5757 37.8917,3.8977 32.1377,1.6337 C26.4757,-0.5923 20.6327,-0.3113 15.2387,2.4467 C9.0297,5.6217 4.0717,11.8347 1.6367,19.4927 C-0.9773,27.7167 -0.4463,36.8467 3.1337,45.2007 C6.8607,53.8967 15.3797,63.5247 28.4537,73.8167 C38.1237,81.4287 46.8437,86.6027 46.9297,86.6537 C47.3917,86.9277 47.9817,86.9277 48.4457,86.6537 C48.5317,86.6027 57.2517,81.4287 66.9197,73.8167 C79.9947,63.5247 88.5137,53.8967 92.2407,45.2007 C95.8217,36.8467 96.3527,27.7167 93.7367,19.4927" id="Fill-1"></path>
                        </g>
                        <g id="Group-18" transform="translate(27.000000, 19.085100)">
                            <path d="M36.6599,23.87 C38.4189,21.872 41.0789,18.854 41.0789,11.741 C41.0789,8.618 39.7819,5.739 37.4299,3.635 C35.0669,1.522 31.7799,0.358 28.1739,0.358 C25.4299,0.358 22.7389,1.482 20.5869,3.487 C18.4309,1.482 15.7229,0.358 12.9539,0.358 C9.3489,0.358 6.0599,1.522 3.6979,3.635 C1.3449,5.739 0.0489,8.618 0.0489,11.741 C0.0489,18.854 2.7089,21.872 4.4679,23.87 C5.8779,25.471 6.3529,26.009 5.5089,27.866 C2.2749,34.983 4.0859,44.264 6.6379,48.227 C7.6169,49.748 8.7179,50.519 9.9109,50.519 C11.6849,50.519 12.4429,48.648 12.6909,48.034 C13.1189,46.979 13.4629,45.633 13.8629,44.073 C15.3049,38.44 16.8049,33.778 20.5639,33.778 C24.3229,33.778 25.8229,38.44 27.2659,44.073 C27.6649,45.633 28.0099,46.979 28.4369,48.034 C28.6859,48.648 29.4419,50.519 31.2179,50.519 C32.4109,50.519 33.5109,49.748 34.4909,48.227 C37.0419,44.264 38.8539,34.983 35.6179,27.866 C34.7739,26.009 35.2499,25.471 36.6599,23.87" id="Fill-6" fill="#FFFFFF"></path>
                            <path d="M36.6599,23.87 C38.4189,21.872 41.0789,18.854 41.0789,11.741 C41.0789,8.618 39.7819,5.739 37.4299,3.635 C35.0669,1.522 31.7799,0.358 28.1739,0.358 C25.4299,0.358 22.7389,1.482 20.5869,3.487 C18.4309,1.482 15.7229,0.358 12.9539,0.358 C9.3489,0.358 6.0599,1.522 3.6979,3.635 C1.3449,5.739 0.0489,8.618 0.0489,11.741 C0.0489,18.854 2.7089,21.872 4.4679,23.87 C5.8779,25.471 6.3529,26.009 5.5089,27.866 C2.2749,34.983 4.0859,44.264 6.6379,48.227 C7.6169,49.748 8.7179,50.519 9.9109,50.519 C11.6849,50.519 12.4429,48.648 12.6909,48.034 C13.1189,46.979 13.4629,45.633 13.8629,44.073 C15.3049,38.44 16.8049,33.778 20.5639,33.778 C24.3229,33.778 25.8229,38.44 27.2659,44.073 C27.6649,45.633 28.0099,46.979 28.4369,48.034 C28.6859,48.648 29.4419,50.519 31.2179,50.519 C32.4109,50.519 33.5109,49.748 34.4909,48.227 C37.0419,44.264 38.8539,34.983 35.6179,27.866 C34.7739,26.009 35.2499,25.471 36.6599,23.87 Z" id="Stroke-8" stroke="#00A19B" stroke-width="2" stroke-linecap="round" stroke-linejoin="round"></path>
                            <path d="M20.5869,3.4875 C20.4749,3.3835 17.5839,7.3025 16.0929,7.3025 C17.5839,7.3025 20.4049,7.6365 21.2629,6.4175 C24.2419,2.1795 28.2639,0.4415 30.8689,0.5845 C29.9979,0.4355 29.0969,0.3575 28.1739,0.3575 C25.4299,0.3575 22.7389,1.4815 20.5869,3.4875" id="Fill-10" fill="#E4E4E4"></path>
                            <path d="M33.2552,48.0334 C32.8282,46.9794 32.4842,45.6324 32.0842,44.0734 C30.6422,38.4404 29.1422,33.7764 25.3832,33.7764 C24.4522,33.7764 23.6602,34.0634 22.9732,34.5794 C25.0622,36.1464 26.1802,39.8344 27.2652,44.0734 C27.6642,45.6324 28.0092,46.9794 28.4362,48.0334 C28.6852,48.6484 29.4422,50.5184 31.2182,50.5184 C32.1412,50.5184 33.0092,50.0544 33.8082,49.1394 C33.5272,48.7034 33.3522,48.2734 33.2552,48.0334" id="Fill-12" fill="#E4E4E4"></path>
                            <path d="M11.4566,48.2271 C8.9046,44.2641 7.0936,34.9831 10.3286,27.8661 C11.1716,26.0091 10.6976,25.4711 9.2866,23.8701 C7.5276,21.8721 4.8676,18.8541 4.8676,11.7411 C4.8676,8.6171 6.1636,5.7391 8.5166,3.6351 C10.2766,2.0601 12.5506,1.0131 15.0876,0.5821 C14.3866,0.4351 13.6726,0.3581 12.9536,0.3581 C9.3486,0.3581 6.0606,1.5221 3.6986,3.6351 C1.3446,5.7391 0.0486,8.6171 0.0486,11.7411 C0.0486,18.8541 2.7086,21.8721 4.4676,23.8701 C5.8786,25.4711 6.3526,26.0091 5.5086,27.8661 C2.2746,34.9831 4.0856,44.2641 6.6376,48.2271 C7.6166,49.7481 8.7176,50.5191 9.9106,50.5191 C10.9936,50.5191 11.6976,49.8221 12.1376,49.1391 C11.9046,48.8731 11.6776,48.5701 11.4566,48.2271" id="Fill-14" fill="#E4E4E4"></path>
                            <path d="M36.6599,23.87 C38.4189,21.872 41.0789,18.854 41.0789,11.741 C41.0789,8.618 39.7819,5.739 37.4299,3.635 C35.0669,1.522 31.7799,0.358 28.1739,0.358 C25.4299,0.358 22.7389,1.482 20.5869,3.487 C18.4309,1.482 15.7229,0.358 12.9539,0.358 C9.3489,0.358 6.0599,1.522 3.6979,3.635 C1.3449,5.739 0.0489,8.618 0.0489,11.741 C0.0489,18.854 2.7089,21.872 4.4679,23.87 C5.8779,25.471 6.3529,26.009 5.5089,27.866 C2.2749,34.983 4.0859,44.264 6.6379,48.227 C7.6169,49.748 8.7179,50.519 9.9109,50.519 C11.6849,50.519 12.4429,48.648 12.6909,48.034 C13.1189,46.979 13.4629,45.633 13.8629,44.073 C15.3049,38.44 16.8049,33.778 20.5639,33.778 C24.3229,33.778 25.8229,38.44 27.2659,44.073 C27.6649,45.633 28.0099,46.979 28.4369,48.034 C28.6859,48.648 29.4419,50.519 31.2179,50.519 C32.4109,50.519 33.5109,49.748 34.4909,48.227 C37.0419,44.264 38.8539,34.983 35.6179,27.866 C34.7739,26.009 35.2499,25.471 36.6599,23.87 Z" id="Stroke-16" stroke="#00A19B" stroke-width="2" stroke-linecap="round" stroke-linejoin="round"></path>
                        </g>
                    </g>
                </g>
            </g>
        </g>
    </g>
</svg>