<?xml version="1.0" encoding="UTF-8" standalone="no"?>
<svg width="94px" height="77px" viewBox="0 0 94 77" version="1.1" xmlns="http://www.w3.org/2000/svg" xmlns:xlink="http://www.w3.org/1999/xlink">
    <!-- Generator: Sketch 50.2 (55047) - http://www.bohemiancoding.com/sketch -->
    <title>dente</title>
    <desc>Created with Sketch.</desc>
    <defs></defs>
    <g id="Welcome" stroke="none" stroke-width="1" fill="none" fill-rule="evenodd">
        <g id="Desktop" transform="translate(-572.000000, -245.000000)" fill="#FFFFFF">
            <g id="Group-4" transform="translate(569.000000, 245.000000)">
                <g id="dente" transform="translate(3.000000, 0.000000)">
                    <path d="M40.6183055,12.2425217 C45.1608534,12.4032815 46.3734009,10.8111161 46.3734009,10.8111161 C46.3734009,10.8111161 41.6519314,5.18966636 34.4268475,4.96588868 C26.9765026,4.74082491 20.4786897,9.25624705 20.0745072,21.7453568 C19.5210088,39.3389127 23.8138389,54.7782869 24.3609012,57.0057751 C24.9285588,59.2371216 26.220913,69.4563025 30.9166383,69.6067737 C36.5880653,69.7983995 37.7156573,60.4074532 38.4776829,58.0809369 C39.2397085,55.7415598 42.6778341,46.1345523 46.449346,46.243869 C50.2980901,46.3789073 52.5352531,52.8697462 53.8070121,56.3344421 C55.4173061,60.6736714 55.5447394,69.0589042 61.0423937,69.2389552 C64.1574308,69.31612 67.0047291,65.7408213 68.4966002,58.6519558 C71.2949848,45.5519587 74.1924841,38.6508607 74.6327084,24.7007655 C75.1038256,9.5366122 71.5215329,4.36657603 62.8341836,4.09006912 C55.9772404,3.88301045 51.6084652,7.82998583 49.2850595,11.119775 C47.9811204,13.1054804 45.2007567,14.8918437 41.7330254,14.7902435 C38.7068054,14.7220813 37.1299788,13.6250562 37.1389893,12.8907053 C37.1505741,12.0534681 38.4313435,12.0071693 38.754432,12.0071693 C39.0710846,12.0457516 39.7236977,12.2090836 40.6183055,12.2425217 M30.7982154,76.9965817 C24.6775537,76.8101003 23.8550294,72.3988505 23.4405493,71.0111716 C22.9745809,69.4987431 15.4907687,41.4943805 16.0275334,24.5014234 C16.4819169,10.0549019 19.1181135,7.9161531 20.042327,6.70338093 C20.9922846,5.47131759 25.5142372,0.69739364 32.1716636,0.896735831 C41.3764695,1.18867568 47.8137837,9.45558924 47.8137837,9.45558924 C47.8137837,9.45558924 55.7944572,-0.29288692 65.5386022,0.00676940572 C72.073744,0.222830619 74.9094575,3.56920726 76.0486343,5.04691163 C77.963996,7.40043556 79.3477418,12.4662994 78.922964,25.7141955 C78.872763,27.4786954 77.3294037,45.2870265 69.1916911,70.4568717 C67.4797079,74.8089619 64.5217099,76.136195 61.270229,76.021734 C55.8755512,75.8506856 54.7865754,70.3539854 54.4712101,68.6164932 C53.7696831,64.8727182 50.3920561,53.030506 48.6877962,50.5856705 C47.6696167,49.1465485 47.2461261,48.8224567 46.4081554,48.7890186 C45.6448426,48.7568667 44.8995507,49.8101651 44.2211934,51.1708363 C42.8683405,53.9037534 40.1227314,61.8375726 38.4313435,69.6222067 C37.5367357,73.8161092 34.9520273,77.1213313 30.7982154,76.9965817" id="Fill-69"></path>
                    <path d="M86.806072,19.454862 L91,15.5920171 C88.5483643,15.9991964 85.3783243,15.8451647 82.5267122,15.4326279 C81.6439162,15.3214573 80.7844199,15.1768015 80,15 C80.4763474,15.6107688 80.9449282,16.3474417 81.4160979,17.0492901 C83.0250647,19.5218323 84.577077,22.4778998 85.2851259,25 L86.806072,19.454862 Z" id="Fill-71"></path>
                    <path d="M86.8415699,18 L86.2987181,19.4949373 C89.2579692,22.018676 90.9007081,25.703309 90.0922329,29.8934519 C87.2155057,44.8250431 48.0966573,59.0415539 21.8347552,54.0855256 C5.9889009,51.0981912 4.85935672,43.3301058 5.51825749,39.9083887 C6.41828242,35.2101958 10.1756931,30.6504465 16.2463483,26.7003573 C16.2463483,25.8201605 16.2463483,24.9323431 16.2669792,24.0851696 C16.272137,23.8489263 16.2927679,23.6787295 16.2927679,23.4348655 C6.57172506,28.920536 1.08131513,35.2508398 0.164527561,39.9312509 C-1.15198454,46.8153292 5.47183787,53.3374219 18.6150385,55.8103555 C48.9579992,61.5068668 90.7730541,45.7344527 93.8083817,30.0014125 C94.7806149,25.0276024 91.9915692,20.9949551 86.8415699,18" id="Fill-73"></path>
                </g>
            </g>
        </g>
    </g>
</svg>