<?xml version="1.0" encoding="UTF-8" standalone="no"?>
<svg width="126px" height="125px" viewBox="0 0 126 125" version="1.1" xmlns="http://www.w3.org/2000/svg" xmlns:xlink="http://www.w3.org/1999/xlink">
    <!-- Generator: Sketch 50.2 (55047) - http://www.bohemiancoding.com/sketch -->
    <title>diag</title>
    <desc>Created with Sketch.</desc>
    <defs></defs>
    <g id="Welcome" stroke="none" stroke-width="1" fill="none" fill-rule="evenodd">
        <g id="Desktop" transform="translate(-88.000000, -883.000000)">
            <g id="Group-2" transform="translate(41.000000, 776.000000)">
                <g id="diag" transform="translate(48.000000, 107.000000)">
                    <g>
                        <path d="M123.7086,62.6253 C123.7086,96.6973 96.0876,124.3173 62.0166,124.3173 C27.9446,124.3173 0.3236,96.6973 0.3236,62.6253 C0.3236,28.5533 27.9446,0.9333 62.0166,0.9333 C96.0876,0.9333 123.7086,28.5533 123.7086,62.6253 Z" id="Stroke-2" stroke="#00A19B"></path>
                        <path d="M82.5224,59.2383 C84.9994,56.4253 88.7444,52.1753 88.7444,42.1583 C88.7444,37.7603 86.9194,33.7053 83.6074,30.7433 C80.2794,27.7683 75.6504,26.1283 70.5724,26.1283 C66.7094,26.1283 62.9184,27.7113 59.8884,30.5353 C56.8514,27.7113 53.0384,26.1283 49.1394,26.1283 C44.0624,26.1283 39.4324,27.7683 36.1064,30.7433 C32.7924,33.7053 30.9674,37.7603 30.9674,42.1583 C30.9674,52.1753 34.7124,56.4253 37.1894,59.2383 C39.1764,61.4923 39.8444,62.2503 38.6564,64.8653 C34.1014,74.8873 36.6514,87.9573 40.2454,93.5373 C41.6234,95.6793 43.1754,96.7653 44.8544,96.7653 C47.3534,96.7653 48.4204,94.1313 48.7694,93.2663 C49.3714,91.7803 49.8564,89.8843 50.4194,87.6883 C52.4504,79.7563 54.5624,73.1903 59.8564,73.1903 C65.1504,73.1903 67.2624,79.7563 69.2934,87.6883 C69.8564,89.8843 70.3414,91.7803 70.9424,93.2663 C71.2934,94.1313 72.3584,96.7653 74.8584,96.7653 C76.5384,96.7653 78.0884,95.6793 79.4674,93.5373 C83.0604,87.9573 85.6114,74.8873 81.0554,64.8653 C79.8674,62.2503 80.5374,61.4923 82.5224,59.2383" id="Fill-4" fill="#FFFFFF"></path>
                        <path d="M82.5224,59.2383 C84.9994,56.4253 88.7444,52.1753 88.7444,42.1583 C88.7444,37.7603 86.9194,33.7053 83.6074,30.7433 C80.2794,27.7683 75.6504,26.1283 70.5724,26.1283 C66.7094,26.1283 62.9184,27.7113 59.8884,30.5353 C56.8514,27.7113 53.0384,26.1283 49.1394,26.1283 C44.0624,26.1283 39.4324,27.7683 36.1064,30.7433 C32.7924,33.7053 30.9674,37.7603 30.9674,42.1583 C30.9674,52.1753 34.7124,56.4253 37.1894,59.2383 C39.1764,61.4923 39.8444,62.2503 38.6564,64.8653 C34.1014,74.8873 36.6514,87.9573 40.2454,93.5373 C41.6234,95.6793 43.1754,96.7653 44.8544,96.7653 C47.3534,96.7653 48.4204,94.1313 48.7694,93.2663 C49.3714,91.7803 49.8564,89.8843 50.4194,87.6883 C52.4504,79.7563 54.5624,73.1903 59.8564,73.1903 C65.1504,73.1903 67.2624,79.7563 69.2934,87.6883 C69.8564,89.8843 70.3414,91.7803 70.9424,93.2663 C71.2934,94.1313 72.3584,96.7653 74.8584,96.7653 C76.5384,96.7653 78.0884,95.6793 79.4674,93.5373 C83.0604,87.9573 85.6114,74.8873 81.0554,64.8653 C79.8674,62.2503 80.5374,61.4923 82.5224,59.2383 Z" id="Stroke-6" stroke="#00A19B" stroke-width="2" stroke-linecap="round" stroke-linejoin="round"></path>
                        <path d="M59.8885,30.5357 C59.7315,30.3897 55.6595,35.9077 53.5595,35.9077 C55.6595,35.9077 59.6325,36.3777 60.8405,34.6617 C65.0365,28.6937 70.6985,26.2457 74.3675,26.4477 C73.1415,26.2377 71.8725,26.1287 70.5715,26.1287 C66.7095,26.1287 62.9185,27.7117 59.8885,30.5357" id="Fill-8" fill="#E4E4E4"></path>
                        <path d="M77.7279,93.2649 C77.1269,91.7809 76.6419,89.8829 76.0799,87.6879 C74.0479,79.7559 71.9359,73.1889 66.6429,73.1889 C65.3319,73.1889 64.2159,73.5929 63.2489,74.3189 C66.1899,76.5259 67.7649,81.7189 69.2929,87.6879 C69.8549,89.8829 70.3399,91.7809 70.9419,93.2649 C71.2919,94.1309 72.3589,96.7639 74.8589,96.7639 C76.1589,96.7639 77.3809,96.1109 78.5069,94.8219 C78.1109,94.2089 77.8649,93.6029 77.7279,93.2649" id="Fill-10" fill="#E4E4E4"></path>
                        <path d="M47.0314,93.5377 C43.4374,87.9567 40.8874,74.8877 45.4434,64.8647 C46.6304,62.2507 45.9624,61.4927 43.9754,59.2387 C41.4984,56.4257 37.7534,52.1757 37.7534,42.1587 C37.7534,37.7597 39.5784,33.7057 42.8914,30.7437 C45.3704,28.5257 48.5724,27.0517 52.1444,26.4447 C51.1574,26.2377 50.1514,26.1287 49.1394,26.1287 C44.0624,26.1287 39.4324,27.7677 36.1064,30.7437 C32.7924,33.7057 30.9674,37.7597 30.9674,42.1587 C30.9674,52.1757 34.7124,56.4257 37.1894,59.2387 C39.1764,61.4927 39.8444,62.2507 38.6564,64.8647 C34.1014,74.8877 36.6514,87.9567 40.2454,93.5377 C41.6234,95.6787 43.1754,96.7657 44.8544,96.7657 C46.3794,96.7657 47.3704,95.7847 47.9904,94.8227 C47.6634,94.4467 47.3434,94.0207 47.0314,93.5377" id="Fill-12" fill="#E4E4E4"></path>
                        <path d="M82.5224,59.2383 C84.9994,56.4253 88.7444,52.1753 88.7444,42.1583 C88.7444,37.7603 86.9194,33.7053 83.6074,30.7433 C80.2794,27.7683 75.6504,26.1283 70.5724,26.1283 C66.7094,26.1283 62.9184,27.7113 59.8884,30.5353 C56.8514,27.7113 53.0384,26.1283 49.1394,26.1283 C44.0624,26.1283 39.4324,27.7683 36.1064,30.7433 C32.7924,33.7053 30.9674,37.7603 30.9674,42.1583 C30.9674,52.1753 34.7124,56.4253 37.1894,59.2383 C39.1764,61.4923 39.8444,62.2503 38.6564,64.8653 C34.1014,74.8873 36.6514,87.9573 40.2454,93.5373 C41.6234,95.6793 43.1754,96.7653 44.8544,96.7653 C47.3534,96.7653 48.4204,94.1313 48.7694,93.2663 C49.3714,91.7803 49.8564,89.8843 50.4194,87.6883 C52.4504,79.7563 54.5624,73.1903 59.8564,73.1903 C65.1504,73.1903 67.2624,79.7563 69.2934,87.6883 C69.8564,89.8843 70.3414,91.7803 70.9424,93.2663 C71.2934,94.1313 72.3584,96.7653 74.8584,96.7653 C76.5384,96.7653 78.0884,95.6793 79.4674,93.5373 C83.0604,87.9573 85.6114,74.8873 81.0554,64.8653 C79.8674,62.2503 80.5374,61.4923 82.5224,59.2383 Z" id="Stroke-14" stroke="#00A19B" stroke-width="2" stroke-linecap="round" stroke-linejoin="round"></path>
                        <path d="M96.5607,84.0413 L78.7227,66.2033 C78.2997,65.7803 78.2997,65.0963 78.7227,64.6743 C79.1447,64.2513 79.8287,64.2513 80.2517,64.6743 L98.0897,82.5133 C98.5127,82.9353 98.5127,83.6193 98.0897,84.0413 C97.8787,84.2533 97.6027,84.3583 97.3257,84.3583 C97.0487,84.3583 96.7727,84.2523 96.5607,84.0413 Z" id="Fill-16" fill="#024A47"></path>
                        <path d="M99.6192,80.9839 L90.8392,72.2039 C89.5892,70.9529 87.5022,70.9529 86.2522,72.2039 C85.0022,73.4539 85.0022,75.5399 86.2522,76.7909 L95.0322,85.5709 C96.2822,86.8209 98.3692,86.8209 99.6192,85.5709 C100.8692,84.3209 100.8692,82.2339 99.6192,80.9839" id="Fill-18" fill="#013937"></path>
                        <path d="M96.6008,84.0022 L87.8208,75.2222 C86.8448,74.2462 86.6348,72.7632 87.1808,71.5642 C86.8438,71.7182 86.5268,71.9292 86.2518,72.2032 C85.0018,73.4542 85.0018,75.5402 86.2518,76.7902 L95.0328,85.5702 C96.2828,86.8212 98.3688,86.8212 99.6198,85.5712 C99.8938,85.2962 100.1048,84.9792 100.2588,84.6422 C99.0598,85.1882 97.5758,84.9782 96.6008,84.0022" id="Fill-20" fill="#025350"></path>
                        <path d="M70.2972,42.1937 C62.5472,42.1937 56.2422,48.4987 56.2422,56.2487 C56.2422,63.9987 62.5472,70.3037 70.2972,70.3037 C78.0472,70.3037 84.3522,63.9987 84.3522,56.2487 C84.3522,48.4987 78.0472,42.1937 70.2972,42.1937" id="Fill-22" fill="#005653"></path>
                        <path d="M70.2972,46.5183 C64.9322,46.5183 60.5672,50.8833 60.5672,56.2483 C60.5672,61.6143 64.9322,65.9793 70.2972,65.9793 C75.6622,65.9793 80.0272,61.6143 80.0272,56.2483 C80.0272,50.8833 75.6622,46.5183 70.2972,46.5183" id="Fill-24" fill="#BFF7EC"></path>
                        <path d="M72.4595,63.8166 C67.0945,63.8166 62.7295,59.4516 62.7295,54.0866 C62.7295,51.9546 63.4205,49.9816 64.5875,48.3766 C62.1535,50.1466 60.5665,53.0156 60.5665,56.2486 C60.5665,61.6136 64.9315,65.9786 70.2975,65.9786 C73.5305,65.9786 76.3985,64.3926 78.1695,61.9586 C76.5645,63.1256 74.5915,63.8166 72.4595,63.8166" id="Fill-26" fill="#6AA09E"></path>
                    </g>
                </g>
            </g>
        </g>
    </g>
</svg>