<?xml version="1.0" encoding="UTF-8" standalone="no"?>
<svg width="87px" height="96px" viewBox="0 0 87 96" version="1.1" xmlns="http://www.w3.org/2000/svg" xmlns:xlink="http://www.w3.org/1999/xlink">
    <!-- Generator: Sketch 50.2 (55047) - http://www.bohemiancoding.com/sketch -->
    <title>expi</title>
    <desc>Created with Sketch.</desc>
    <defs></defs>
    <g id="Welcome" stroke="none" stroke-width="1" fill="none" fill-rule="evenodd">
        <g id="Desktop" transform="translate(-528.000000, -2232.000000)">
            <g id="Group-8" transform="translate(42.000000, 1952.000000)">
                <g id="expi" transform="translate(486.000000, 279.000000)">
                    <g id="Group">
                        <g id="Group-7" transform="translate(0.000000, 63.672600)" fill="#00A19B">
                            <path d="M53.0947,23.2362 L48.9877,21.0072 L49.8717,16.4182 C50.0607,15.4372 48.9577,14.6722 48.1047,15.1952 L44.1197,17.6372 L40.5877,14.5762 C39.8307,13.9202 38.6187,14.4972 38.6457,15.4952 L38.7687,20.1672 L34.3527,21.6952 C33.4087,22.0232 33.2977,23.3612 34.1757,23.8372 L38.2837,26.0662 L37.3997,30.6552 C37.2117,31.6372 38.3137,32.4022 39.1667,31.8792 L43.1507,29.4372 L46.6837,32.4972 C47.4397,33.1532 48.6517,32.5752 48.6257,31.5782 L48.5027,26.9062 L52.9197,25.3782 C53.8637,25.0512 53.9737,23.7132 53.0947,23.2362" id="Fill-1"></path>
                            <path d="M85.8909,9.2709 L81.8599,7.0819 L82.7279,2.5779 C82.9129,1.6159 81.8309,0.8659 80.9939,1.3789 L77.0829,3.7749 L73.6159,0.7719 C72.8719,0.1279 71.6839,0.6929 71.7089,1.6729 L71.8299,6.2579 L67.4959,7.7589 C66.5689,8.0789 66.4609,9.3929 67.3229,9.8609 L71.3539,12.0499 L70.4869,16.5529 C70.3009,17.5159 71.3829,18.2669 72.2209,17.7529 L76.1309,15.3569 L79.5989,18.3599 C80.3419,19.0039 81.5309,18.4379 81.5049,17.4589 L81.3839,12.8739 L85.7189,11.3729 C86.6449,11.0519 86.7529,9.7389 85.8909,9.2709" id="Fill-3"></path>
                            <path d="M0.635,9.2709 L4.667,7.0819 L3.799,2.5779 C3.614,1.6159 4.696,0.8659 5.533,1.3789 L9.444,3.7749 L12.91,0.7719 C13.654,0.1279 14.843,0.6929 14.817,1.6729 L14.697,6.2579 L19.031,7.7589 C19.958,8.0789 20.066,9.3929 19.204,9.8609 L15.172,12.0499 L16.04,16.5529 C16.226,17.5159 15.143,18.2669 14.306,17.7529 L10.396,15.3569 L6.928,18.3599 C6.185,19.0039 4.996,18.4379 5.022,17.4589 L5.143,12.8739 L0.808,11.3729 C-0.118,11.0519 -0.227,9.7389 0.635,9.2709" id="Fill-5"></path>
                        </g>
                        <g id="Group-36" transform="translate(3.000000, 0.672600)">
                            <path d="M54.4872,3.6234 C54.0162,3.3174 53.4122,3.3014 52.9252,3.5844 L44.2342,8.6414 L41.6682,1.3944 C41.4582,0.8014 40.8782,0.3984 40.2492,0.4014 C39.6202,0.4054 39.0482,0.8254 38.8492,1.4204 L36.4442,8.6374 L27.5902,3.5794 C26.5352,2.9754 25.2062,3.8794 25.3752,5.0804 L27.0522,17.0024 C27.1562,17.7384 27.7852,18.2844 28.5272,18.2844 L52.3712,18.2844 C53.1322,18.2844 53.7702,17.7124 53.8532,16.9564 L55.1562,5.0344 C55.2172,4.4754 54.9592,3.9304 54.4872,3.6234" id="Fill-8" fill="#00A19B"></path>
                            <path d="M31.5225,17.0021 L29.8465,5.0791 C29.8355,5.0051 29.8305,4.9311 29.8315,4.8591 L27.5905,3.5781 C26.5355,2.9761 25.2065,3.8791 25.3755,5.0791 L27.0515,17.0021 C27.1555,17.7381 27.7855,18.2851 28.5275,18.2851 L32.9985,18.2851 C32.2555,18.2851 31.6265,17.7381 31.5225,17.0021" id="Fill-10" fill="#00A19B"></path>
                            <path d="M79.0088,52.5596 L76.0278,52.5596 C75.2058,52.5596 74.5388,51.8916 74.5388,51.0696 C74.5388,50.2466 75.2058,49.5786 76.0278,49.5786 L79.0088,49.5786 C79.8318,49.5786 80.4998,50.2466 80.4998,51.0696 C80.4998,51.8916 79.8318,52.5596 79.0088,52.5596" id="Fill-12" fill="#BFF7EC"></path>
                            <path d="M71.2385,34.6767 C70.5365,34.6767 69.9145,34.1697 69.7755,33.4807 C69.6495,32.8527 69.9475,32.2217 70.4925,31.8967 C71.0925,31.5357 71.7065,31.1947 72.3115,30.8457 C72.5655,30.6987 72.8195,30.5527 73.0735,30.4067 C73.7855,29.9947 74.6965,30.2387 75.1085,30.9507 C75.5195,31.6647 75.2765,32.5757 74.5625,32.9867 L71.9815,34.4777 C71.7475,34.6127 71.4915,34.6767 71.2385,34.6767" id="Fill-14" fill="#BFF7EC"></path>
                            <path d="M58.1445,21.5864 C57.0145,21.5864 56.2935,20.3244 56.8555,19.3504 L58.3455,16.7694 C58.7575,16.0574 59.6685,15.8124 60.3815,16.2244 C61.0945,16.6354 61.3385,17.5474 60.9265,18.2604 L59.4365,20.8404 C59.1605,21.3184 58.6595,21.5864 58.1445,21.5864" id="Fill-16" fill="#BFF7EC"></path>
                            <path d="M22.3814,21.5864 C21.8464,21.5864 21.3634,21.2954 21.0894,20.8404 C21.0144,20.7154 20.9434,20.5874 20.8704,20.4614 C20.5384,19.8874 20.2074,19.3124 19.8754,18.7374 C19.7834,18.5784 19.6914,18.4194 19.6004,18.2604 C19.1874,17.5474 19.4324,16.6354 20.1444,16.2244 C20.8574,15.8134 21.7694,16.0574 22.1804,16.7694 L23.6714,19.3504 C24.2334,20.3244 23.5114,21.5864 22.3814,21.5864" id="Fill-18" fill="#BFF7EC"></path>
                            <path d="M9.2881,34.6767 C9.0351,34.6767 8.7791,34.6127 8.5441,34.4777 L5.9631,32.9867 C5.2511,32.5757 5.0061,31.6647 5.4181,30.9507 C5.8291,30.2377 6.7401,29.9947 7.4541,30.4067 L10.0341,31.8967 C10.5901,32.2167 10.8831,32.8787 10.7451,33.5057 C10.5971,34.1817 9.9801,34.6767 9.2881,34.6767" id="Fill-20" fill="#BFF7EC"></path>
                            <path d="M4.4975,52.5596 L1.5165,52.5596 C0.6945,52.5596 0.0275,51.8916 0.0275,51.0696 C0.0275,50.2466 0.6945,49.5786 1.5165,49.5786 L4.4975,49.5786 C5.3205,49.5786 5.9885,50.2466 5.9885,51.0696 C5.9885,51.8916 5.3205,52.5596 4.4975,52.5596" id="Fill-22" fill="#BFF7EC"></path>
                            <path d="M56.2902,45.9799 C58.0492,43.9819 60.7092,40.9639 60.7092,33.8509 C60.7092,30.7279 59.4122,27.8489 57.0602,25.7449 C54.6972,23.6319 51.4102,22.4679 47.8042,22.4679 C45.0602,22.4679 42.3692,23.5919 40.2172,25.5969 C38.0612,23.5919 35.3532,22.4679 32.5842,22.4679 C28.9792,22.4679 25.6902,23.6319 23.3282,25.7449 C20.9752,27.8489 19.6792,30.7279 19.6792,33.8509 C19.6792,40.9639 22.3392,43.9819 24.0982,45.9799 C25.5082,47.5809 25.9832,48.1189 25.1392,49.9759 C21.9052,57.0929 23.7162,66.3739 26.2682,70.3369 C27.2472,71.8579 28.3482,72.6289 29.5412,72.6289 C31.3152,72.6289 32.0732,70.7579 32.3212,70.1439 C32.7492,69.0889 33.0932,67.7429 33.4932,66.1829 C34.9352,60.5499 36.4352,55.8879 40.1942,55.8879 C43.9532,55.8879 45.4532,60.5499 46.8962,66.1829 C47.2952,67.7429 47.6402,69.0889 48.0672,70.1439 C48.3162,70.7579 49.0722,72.6289 50.8482,72.6289 C52.0412,72.6289 53.1412,71.8579 54.1212,70.3369 C56.6722,66.3739 58.4842,57.0929 55.2482,49.9759 C54.4042,48.1189 54.8802,47.5809 56.2902,45.9799" id="Fill-24" fill="#FFFFFF"></path>
                            <path d="M56.2902,45.9799 C58.0492,43.9819 60.7092,40.9639 60.7092,33.8509 C60.7092,30.7279 59.4122,27.8489 57.0602,25.7449 C54.6972,23.6319 51.4102,22.4679 47.8042,22.4679 C45.0602,22.4679 42.3692,23.5919 40.2172,25.5969 C38.0612,23.5919 35.3532,22.4679 32.5842,22.4679 C28.9792,22.4679 25.6902,23.6319 23.3282,25.7449 C20.9752,27.8489 19.6792,30.7279 19.6792,33.8509 C19.6792,40.9639 22.3392,43.9819 24.0982,45.9799 C25.5082,47.5809 25.9832,48.1189 25.1392,49.9759 C21.9052,57.0929 23.7162,66.3739 26.2682,70.3369 C27.2472,71.8579 28.3482,72.6289 29.5412,72.6289 C31.3152,72.6289 32.0732,70.7579 32.3212,70.1439 C32.7492,69.0889 33.0932,67.7429 33.4932,66.1829 C34.9352,60.5499 36.4352,55.8879 40.1942,55.8879 C43.9532,55.8879 45.4532,60.5499 46.8962,66.1829 C47.2952,67.7429 47.6402,69.0889 48.0672,70.1439 C48.3162,70.7579 49.0722,72.6289 50.8482,72.6289 C52.0412,72.6289 53.1412,71.8579 54.1212,70.3369 C56.6722,66.3739 58.4842,57.0929 55.2482,49.9759 C54.4042,48.1189 54.8802,47.5809 56.2902,45.9799 Z" id="Stroke-26" stroke="#00A19B" stroke-width="2" stroke-linecap="round" stroke-linejoin="round"></path>
                            <path d="M40.2171,25.5973 C40.1051,25.4933 37.2141,29.4123 35.7231,29.4123 C37.2141,29.4123 40.0351,29.7463 40.8931,28.5273 C43.8721,24.2893 47.8941,22.5513 50.4991,22.6943 C49.6281,22.5453 48.7271,22.4673 47.8041,22.4673 C45.0601,22.4673 42.3691,23.5913 40.2171,25.5973" id="Fill-28" fill="#E4E4E4"></path>
                            <path d="M52.8855,70.1432 C52.4585,69.0892 52.1145,67.7422 51.7145,66.1832 C50.2725,60.5502 48.7725,55.8862 45.0135,55.8862 C44.0825,55.8862 43.2905,56.1732 42.6035,56.6892 C44.6925,58.2562 45.8105,61.9442 46.8955,66.1832 C47.2945,67.7422 47.6395,69.0892 48.0665,70.1432 C48.3155,70.7582 49.0725,72.6282 50.8485,72.6282 C51.7715,72.6282 52.6395,72.1642 53.4385,71.2492 C53.1575,70.8132 52.9825,70.3832 52.8855,70.1432" id="Fill-30" fill="#E4E4E4"></path>
                            <path d="M31.0869,70.337 C28.5349,66.374 26.7239,57.093 29.9589,49.976 C30.8019,48.119 30.3279,47.581 28.9169,45.98 C27.1579,43.982 24.4979,40.964 24.4979,33.851 C24.4979,30.727 25.7939,27.849 28.1469,25.745 C29.9069,24.17 32.1809,23.123 34.7179,22.692 C34.0169,22.545 33.3029,22.468 32.5839,22.468 C28.9789,22.468 25.6909,23.632 23.3289,25.745 C20.9749,27.849 19.6789,30.727 19.6789,33.851 C19.6789,40.964 22.3389,43.982 24.0979,45.98 C25.5089,47.581 25.9829,48.119 25.1389,49.976 C21.9049,57.093 23.7159,66.374 26.2679,70.337 C27.2469,71.858 28.3479,72.629 29.5409,72.629 C30.6239,72.629 31.3279,71.932 31.7679,71.249 C31.5349,70.983 31.3079,70.68 31.0869,70.337" id="Fill-32" fill="#E4E4E4"></path>
                            <path d="M56.2902,45.9799 C58.0492,43.9819 60.7092,40.9639 60.7092,33.8509 C60.7092,30.7279 59.4122,27.8489 57.0602,25.7449 C54.6972,23.6319 51.4102,22.4679 47.8042,22.4679 C45.0602,22.4679 42.3692,23.5919 40.2172,25.5969 C38.0612,23.5919 35.3532,22.4679 32.5842,22.4679 C28.9792,22.4679 25.6902,23.6319 23.3282,25.7449 C20.9752,27.8489 19.6792,30.7279 19.6792,33.8509 C19.6792,40.9639 22.3392,43.9819 24.0982,45.9799 C25.5082,47.5809 25.9832,48.1189 25.1392,49.9759 C21.9052,57.0929 23.7162,66.3739 26.2682,70.3369 C27.2472,71.8579 28.3482,72.6289 29.5412,72.6289 C31.3152,72.6289 32.0732,70.7579 32.3212,70.1439 C32.7492,69.0889 33.0932,67.7429 33.4932,66.1829 C34.9352,60.5499 36.4352,55.8879 40.1942,55.8879 C43.9532,55.8879 45.4532,60.5499 46.8962,66.1829 C47.2952,67.7429 47.6402,69.0889 48.0672,70.1439 C48.3162,70.7579 49.0722,72.6289 50.8482,72.6289 C52.0412,72.6289 53.1412,71.8579 54.1212,70.3369 C56.6722,66.3739 58.4842,57.0929 55.2482,49.9759 C54.4042,48.1189 54.8802,47.5809 56.2902,45.9799 Z" id="Stroke-34" stroke="#00A19B" stroke-width="2" stroke-linecap="round" stroke-linejoin="round"></path>
                        </g>
                    </g>
                </g>
            </g>
        </g>
    </g>
</svg>