<?xml version="1.0" encoding="UTF-8" standalone="no"?>
<svg width="95px" height="97px" viewBox="0 0 95 97" version="1.1" xmlns="http://www.w3.org/2000/svg" xmlns:xlink="http://www.w3.org/1999/xlink">
    <!-- Generator: Sketch 50.2 (55047) - http://www.bohemiancoding.com/sketch -->
    <title>heul</title>
    <desc>Created with Sketch.</desc>
    <defs></defs>
    <g id="Welcome" stroke="none" stroke-width="1" fill="none" fill-rule="evenodd">
        <g id="Desktop" transform="translate(-43.000000, -2066.000000)">
            <g id="Group-8" transform="translate(42.000000, 1952.000000)">
                <g id="heul" transform="translate(1.000000, 115.000000)">
                    <g id="Group">
                        <path d="M84.9432,24.1489 C84.1202,24.1489 83.4522,24.8169 83.4522,25.6399 L83.4522,69.2959 C83.4522,82.0329 73.0902,92.3939 60.3542,92.3939 C47.6172,92.3939 37.2552,82.0329 37.2552,69.2959 L37.2552,63.0809 L40.2362,63.0809 C57.4922,63.0809 71.5302,49.0429 71.5302,31.7869 L71.5302,13.9039 C71.5302,13.0809 70.8642,12.4139 70.0412,12.4139 L63.1482,12.4139 C62.3252,12.4139 61.6582,13.0809 61.6582,13.9039 C61.6582,14.7269 62.3252,15.3939 63.1482,15.3939 L68.5502,15.3939 L68.5502,31.7869 C68.5502,47.3989 55.8492,60.1009 40.2362,60.1009 L31.2942,60.1009 C15.6822,60.1009 2.9812,47.3989 2.9812,31.7869 L2.9812,15.3939 L8.0092,15.3939 C8.8332,15.3939 9.5002,14.7269 9.5002,13.9039 C9.5002,13.0809 8.8332,12.4139 8.0092,12.4139 L1.4902,12.4139 C0.6672,12.4139 0.0002,13.0809 0.0002,13.9039 L0.0002,31.7869 C0.0002,49.0429 14.0392,63.0809 31.2942,63.0809 L34.2752,63.0809 L34.2752,69.2959 C34.2752,83.6749 45.9742,95.3749 60.3542,95.3749 C74.7342,95.3749 86.4332,83.6749 86.4332,69.2959 L86.4332,25.6399 C86.4332,24.8169 85.7662,24.1489 84.9432,24.1489" id="Fill-1" fill="#00A19B"></path>
                        <path d="M64.6391,9.4331 L63.1481,9.4331 C60.6831,9.4331 58.6781,11.4391 58.6781,13.9031 C58.6781,16.3681 60.6831,18.3741 63.1481,18.3741 L64.6391,18.3741 C65.4611,18.3741 66.1291,17.7071 66.1291,16.8841 L66.1291,10.9231 C66.1291,10.1001 65.4611,9.4331 64.6391,9.4331" id="Fill-3" fill="#00BFAC"></path>
                        <path d="M8.0095,9.4331 L6.5195,9.4331 C5.6965,9.4331 5.0295,10.1011 5.0295,10.9231 L5.0295,16.8841 C5.0295,17.7071 5.6965,18.3741 6.5195,18.3741 L8.0095,18.3741 C10.4755,18.3741 12.4815,16.3691 12.4815,13.9031 C12.4815,11.4391 10.4755,9.4331 8.0095,9.4331" id="Fill-5" fill="#00BFAC"></path>
                        <path d="M84.9432,7.3838 C79.7042,7.3838 75.4432,11.6458 75.4432,16.8838 C75.4432,22.1228 79.7042,26.3848 84.9432,26.3848 C90.1812,26.3848 94.4432,22.1228 94.4432,16.8838 C94.4432,11.6458 90.1812,7.3838 84.9432,7.3838" id="Fill-7" fill="#BFF7EC"></path>
                        <path d="M84.9432,12.4136 C82.4772,12.4136 80.4732,14.4196 80.4732,16.8846 C80.4732,19.3496 82.4772,21.3546 84.9432,21.3546 C87.4082,21.3546 89.4132,19.3496 89.4132,16.8846 C89.4132,14.4196 87.4082,12.4136 84.9432,12.4136" id="Fill-9" fill="#00A19B"></path>
                        <path d="M51.8615,23.5123 C53.6205,21.5143 56.2805,18.4963 56.2805,11.3833 C56.2805,8.2603 54.9835,5.3813 52.6315,3.2773 C50.2685,1.1643 46.9815,0.0003 43.3755,0.0003 C40.6315,0.0003 37.9405,1.1243 35.7885,3.1293 C33.6325,1.1243 30.9245,0.0003 28.1555,0.0003 C24.5505,0.0003 21.2615,1.1643 18.8995,3.2773 C16.5465,5.3813 15.2505,8.2603 15.2505,11.3833 C15.2505,18.4963 17.9105,21.5143 19.6695,23.5123 C21.0795,25.1133 21.5545,25.6513 20.7105,27.5083 C17.4765,34.6253 19.2875,43.9063 21.8395,47.8693 C22.8185,49.3903 23.9195,50.1613 25.1125,50.1613 C26.8865,50.1613 27.6445,48.2903 27.8925,47.6763 C28.3205,46.6213 28.6645,45.2753 29.0645,43.7153 C30.5065,38.0823 32.0065,33.4203 35.7655,33.4203 C39.5245,33.4203 41.0245,38.0823 42.4675,43.7153 C42.8665,45.2753 43.2115,46.6213 43.6385,47.6763 C43.8875,48.2903 44.6435,50.1613 46.4195,50.1613 C47.6125,50.1613 48.7125,49.3903 49.6925,47.8693 C52.2435,43.9063 54.0555,34.6253 50.8195,27.5083 C49.9755,25.6513 50.4515,25.1133 51.8615,23.5123" id="Fill-11" fill="#FFFFFF"></path>
                        <path d="M51.8615,23.5123 C53.6205,21.5143 56.2805,18.4963 56.2805,11.3833 C56.2805,8.2603 54.9835,5.3813 52.6315,3.2773 C50.2685,1.1643 46.9815,0.0003 43.3755,0.0003 C40.6315,0.0003 37.9405,1.1243 35.7885,3.1293 C33.6325,1.1243 30.9245,0.0003 28.1555,0.0003 C24.5505,0.0003 21.2615,1.1643 18.8995,3.2773 C16.5465,5.3813 15.2505,8.2603 15.2505,11.3833 C15.2505,18.4963 17.9105,21.5143 19.6695,23.5123 C21.0795,25.1133 21.5545,25.6513 20.7105,27.5083 C17.4765,34.6253 19.2875,43.9063 21.8395,47.8693 C22.8185,49.3903 23.9195,50.1613 25.1125,50.1613 C26.8865,50.1613 27.6445,48.2903 27.8925,47.6763 C28.3205,46.6213 28.6645,45.2753 29.0645,43.7153 C30.5065,38.0823 32.0065,33.4203 35.7655,33.4203 C39.5245,33.4203 41.0245,38.0823 42.4675,43.7153 C42.8665,45.2753 43.2115,46.6213 43.6385,47.6763 C43.8875,48.2903 44.6435,50.1613 46.4195,50.1613 C47.6125,50.1613 48.7125,49.3903 49.6925,47.8693 C52.2435,43.9063 54.0555,34.6253 50.8195,27.5083 C49.9755,25.6513 50.4515,25.1133 51.8615,23.5123 Z" id="Stroke-13" stroke="#00A19B" stroke-width="2" stroke-linecap="round" stroke-linejoin="round"></path>
                        <path d="M35.7885,3.1297 C35.6765,3.0257 32.7855,6.9447 31.2945,6.9447 C32.7855,6.9447 35.6065,7.2787 36.4645,6.0597 C39.4435,1.8217 43.4655,0.0837 46.0705,0.2267 C45.1995,0.0777 44.2985,-0.0003 43.3755,-0.0003 C40.6315,-0.0003 37.9405,1.1237 35.7885,3.1297" id="Fill-15" fill="#E4E4E4"></path>
                        <path d="M48.4568,47.6756 C48.0298,46.6216 47.6858,45.2746 47.2858,43.7156 C45.8438,38.0826 44.3438,33.4186 40.5848,33.4186 C39.6538,33.4186 38.8618,33.7056 38.1748,34.2216 C40.2638,35.7886 41.3818,39.4766 42.4668,43.7156 C42.8658,45.2746 43.2108,46.6216 43.6378,47.6756 C43.8868,48.2906 44.6438,50.1606 46.4198,50.1606 C47.3428,50.1606 48.2108,49.6966 49.0098,48.7816 C48.7288,48.3456 48.5538,47.9156 48.4568,47.6756" id="Fill-17" fill="#E4E4E4"></path>
                        <path d="M26.6583,47.8694 C24.1063,43.9064 22.2953,34.6254 25.5303,27.5084 C26.3733,25.6514 25.8993,25.1134 24.4883,23.5124 C22.7293,21.5144 20.0693,18.4964 20.0693,11.3834 C20.0693,8.2594 21.3653,5.3814 23.7183,3.2774 C25.4783,1.7024 27.7523,0.6554 30.2893,0.2244 C29.5883,0.0774 28.8743,0.0004 28.1553,0.0004 C24.5503,0.0004 21.2623,1.1644 18.9003,3.2774 C16.5463,5.3814 15.2503,8.2594 15.2503,11.3834 C15.2503,18.4964 17.9103,21.5144 19.6693,23.5124 C21.0803,25.1134 21.5543,25.6514 20.7103,27.5084 C17.4763,34.6254 19.2873,43.9064 21.8393,47.8694 C22.8183,49.3904 23.9193,50.1614 25.1123,50.1614 C26.1953,50.1614 26.8993,49.4644 27.3393,48.7814 C27.1063,48.5154 26.8793,48.2124 26.6583,47.8694" id="Fill-19" fill="#E4E4E4"></path>
                        <path d="M51.8615,23.5123 C53.6205,21.5143 56.2805,18.4963 56.2805,11.3833 C56.2805,8.2603 54.9835,5.3813 52.6315,3.2773 C50.2685,1.1643 46.9815,0.0003 43.3755,0.0003 C40.6315,0.0003 37.9405,1.1243 35.7885,3.1293 C33.6325,1.1243 30.9245,0.0003 28.1555,0.0003 C24.5505,0.0003 21.2615,1.1643 18.8995,3.2773 C16.5465,5.3813 15.2505,8.2603 15.2505,11.3833 C15.2505,18.4963 17.9105,21.5143 19.6695,23.5123 C21.0795,25.1133 21.5545,25.6513 20.7105,27.5083 C17.4765,34.6253 19.2875,43.9063 21.8395,47.8693 C22.8185,49.3903 23.9195,50.1613 25.1125,50.1613 C26.8865,50.1613 27.6445,48.2903 27.8925,47.6763 C28.3205,46.6213 28.6645,45.2753 29.0645,43.7153 C30.5065,38.0823 32.0065,33.4203 35.7655,33.4203 C39.5245,33.4203 41.0245,38.0823 42.4675,43.7153 C42.8665,45.2753 43.2115,46.6213 43.6385,47.6763 C43.8875,48.2903 44.6435,50.1613 46.4195,50.1613 C47.6125,50.1613 48.7125,49.3903 49.6925,47.8693 C52.2435,43.9063 54.0555,34.6253 50.8195,27.5083 C49.9755,25.6513 50.4515,25.1133 51.8615,23.5123 Z" id="Stroke-21" stroke="#00A19B" stroke-width="2" stroke-linecap="round" stroke-linejoin="round"></path>
                    </g>
                </g>
            </g>
        </g>
    </g>
</svg>