<?xml version="1.0" encoding="UTF-8" standalone="no"?>
<svg width="282px" height="46px" viewBox="0 0 282 46" version="1.1" xmlns="http://www.w3.org/2000/svg" xmlns:xlink="http://www.w3.org/1999/xlink">
    <!-- Generator: Sketch 50.2 (55047) - http://www.bohemiancoding.com/sketch -->
    <title>Logo</title>
    <desc>Created with Sketch.</desc>
    <defs>
        <polygon id="path-1" points="0.402382902 0.176242178 7.03409747 0.176242178 7.03409747 8.29507174 0.402382902 8.29507174"></polygon>
    </defs>
    <g id="Welcome" stroke="none" stroke-width="1" fill="none" fill-rule="evenodd">
        <g id="Desktop" transform="translate(-41.000000, -31.000000)">
            <g id="Logo" transform="translate(41.000000, 31.000000)">
                <g id="texto" transform="translate(64.158730, 3.770492)">
                    <path d="M12.5465381,16.1239803 C13.1456016,16.1239803 13.6663317,16.3426689 14.1102206,16.7815541 C14.5541095,17.217423 14.776427,17.7588656 14.776427,18.4104066 C14.776427,18.6336197 14.7353952,18.8470295 14.658554,19.0491279 C14.5817127,19.2512262 14.4877127,19.463882 14.3773,19.6878492 C13.7334746,20.8318164 12.8240619,21.7442754 11.650554,22.4282426 C10.4740619,23.1114557 9.2095381,23.4530623 7.85772857,23.4530623 C6.88266508,23.4530623 5.94042698,23.2569967 5.03101429,22.8641115 C4.12234762,22.4719803 3.3181254,21.9350623 2.62058571,21.2510951 C1.92304603,20.5671279 1.36725238,19.7617508 0.956934921,18.8304393 C0.545871429,17.9013902 0.342204762,16.8976852 0.342204762,15.822341 L0.342204762,9.63722623 C0.342204762,8.62824262 0.536173016,7.66525902 0.924109524,6.74601311 C1.31204603,5.82752131 1.84918889,5.01460328 2.53777619,4.30876721 C3.22337937,3.60293115 4.0208873,3.04339016 4.9303,2.62788197 C5.84120476,2.21237377 6.81626825,2.00650492 7.85772857,2.00650492 C9.18864921,2.00650492 10.4397444,2.34811148 11.6169825,3.03057049 C12.7912365,3.71378361 13.7230302,4.66093115 14.4086333,5.87201311 C14.4981571,6.02811148 14.5817127,6.21889836 14.658554,6.44286557 C14.7353952,6.66758689 14.776427,6.87873443 14.776427,7.08158689 C14.776427,7.70975082 14.5541095,8.24666885 14.1102206,8.69611148 C13.6663317,9.1425377 13.1344111,9.36725902 12.5152048,9.36725902 C12.0258079,9.36725902 11.628173,9.2375541 11.3170778,8.98191475 C11.0067286,8.72325902 10.7292048,8.40352131 10.4859984,8.02270164 C10.218919,7.57627541 9.85709365,7.21657049 9.40499841,6.94660328 C8.94917302,6.67739016 8.43441111,6.54316066 7.85772857,6.54316066 C7.43696667,6.54316066 7.04380794,6.62158689 6.67676032,6.77768525 C6.31045873,6.9368 5.98966508,7.15473443 5.71214127,7.43525902 C5.43536349,7.71502951 5.21379206,8.04457049 5.04742698,8.42539016 C4.88255397,8.80922623 4.79825238,9.21191475 4.79825238,9.63722623 L4.79825238,15.822341 C4.79825238,16.2484066 4.88255397,16.6510951 5.04742698,17.0311607 C5.21379206,17.4134885 5.43536349,17.7430295 5.71214127,18.0243082 C5.98966508,18.3040787 6.31045873,18.5227672 6.67676032,18.6796197 C7.04380794,18.8349639 7.43696667,18.9141443 7.85772857,18.9141443 C8.43441111,18.9141443 8.94395079,18.7806689 9.38783968,18.5114557 C9.83172857,18.2429967 10.1972841,17.8832918 10.4859984,17.4353574 C10.7292048,17.0552918 10.9836016,16.7415869 11.2499349,16.4942426 C11.5155222,16.2484066 11.9489667,16.1239803 12.5465381,16.1239803" id="Fill-1" fill="#00A19B"></path>
                    <path d="M18.5949159,2.07279016 C19.1932333,2.07279016 19.6975508,2.2854459 20.1086143,2.71151148 C20.5166937,3.13833115 20.7457254,3.6639377 20.7897413,4.29134754 L20.7897413,17.5695115 C20.7897413,18.0182 20.9337254,18.3997738 21.2224397,18.7134787 C21.511154,19.0271836 21.8774556,19.1847902 22.3205984,19.1847902 C22.8957889,19.1847902 23.4008524,19.3853803 23.8328048,19.788823 C24.2647571,20.1922656 24.4915508,20.6967574 24.5146778,21.3015443 C24.5146778,21.8407246 24.332646,22.3150525 23.9670905,22.7298066 C23.6000429,23.1453148 23.1292968,23.3971836 22.5533603,23.4869213 L22.0863444,23.4869213 C21.3104714,23.4869213 20.5786143,23.3240361 19.8922651,22.9982656 C19.2059159,22.6747574 18.6001381,22.242659 18.080154,21.7049869 C17.5586778,21.1658066 17.1483603,20.5399049 16.8492016,19.8235115 C16.5485508,19.1041016 16.4000905,18.3537738 16.4000905,17.5695115 L16.4000905,4.15787213 C16.4657413,3.59682295 16.6992492,3.1142 17.0976302,2.71151148 C17.4975032,2.30806885 17.9965984,2.09541311 18.5949159,2.07279016" id="Fill-3" fill="#00A19B"></path>
                    <path d="M53.2266048,7.28300656 C53.8032873,7.28300656 54.2852238,7.49641639 54.6724143,7.92172787 C55.0588587,8.34628525 55.2767,8.86359672 55.3222079,9.46838361 L55.3222079,21.370318 C55.3222079,21.9735967 55.1327159,22.4780885 54.7544778,22.880777 C54.3792238,23.2842197 53.8689381,23.5081869 53.2266048,23.5534328 C52.6499222,23.5534328 52.1627635,23.3732033 51.7636365,23.0157607 C51.3645095,22.6575639 51.1198111,22.1530721 51.0310333,21.5030393 L51.0310333,9.3349082 C51.0765413,8.75123607 51.3085571,8.27012131 51.729319,7.88779344 C52.150081,7.50621967 52.6499222,7.30487541 53.2266048,7.28300656 M53.2266048,2.13930164 C53.8032873,2.13930164 54.2964143,2.35874426 54.7052397,2.79461311 C55.1185413,3.23123607 55.3222079,3.74251475 55.3222079,4.32543279 C55.3222079,4.90759672 55.1185413,5.41736721 54.7052397,5.85399016 C54.2964143,6.29136721 53.8032873,6.50930164 53.2266048,6.50930164 C52.5835254,6.48743279 52.0553349,6.28156393 51.6472556,5.88792459 C51.235446,5.49730164 51.0310333,4.94077705 51.0310333,4.22287541 C51.0519222,3.64221967 51.2802079,3.14828525 51.7129063,2.74484262 C52.1456048,2.3421541 52.6499222,2.13930164 53.2266048,2.13930164" id="Fill-5" fill="#00A19B"></path>
                    <path d="M40.7798857,7.08151148 C41.843727,7.08151148 42.8635524,7.27682295 43.840854,7.6704623 C44.8136794,8.06334754 45.6686317,8.61006885 46.3997429,9.31741311 C47.1316,10.0224951 47.720219,10.857282 48.1633619,11.8210197 C48.6057587,12.7840033 48.8280762,13.8284295 48.8280762,14.9482656 L48.8280762,21.1658066 C48.8280762,21.7502328 48.6229175,22.2539705 48.211854,22.679282 C47.8015365,23.1053475 47.2987111,23.3300689 46.6996476,23.3519377 C46.1013302,23.3519377 45.5858222,23.1573803 45.1538698,22.7629869 C44.7219175,22.3708557 44.5055683,21.8723967 44.5055683,21.2676098 L44.5055683,15.2167246 C44.5055683,14.7016754 44.4100762,14.2137738 44.2213302,13.7530197 C44.0333302,13.2967902 43.7669968,12.897118 43.4238222,12.5615443 C43.0791556,12.2244623 42.6800286,11.9560033 42.2264413,11.754659 C41.7713619,11.5533148 41.278981,11.4515115 40.7463143,11.4515115 C40.2584095,11.4515115 39.7936317,11.547282 39.3497429,11.7380689 C38.905854,11.9281016 38.5179175,12.1792164 38.1859333,12.4936754 C37.8532032,12.8081344 37.5868698,13.1874459 37.3861873,13.6361344 C37.1884889,14.084823 37.0877746,14.5561344 37.0877746,15.0478066 L37.0877746,21.1658066 C37.0877746,21.7502328 36.8669492,22.2592492 36.4230603,22.6966262 C35.9784254,23.1332492 35.4703778,23.3519377 34.8922032,23.3519377 C34.3162667,23.3519377 33.806727,23.1498393 33.3635841,22.7463967 C32.9204413,22.3429541 32.6988698,21.851282 32.6988698,21.2676098 L32.6988698,15.2167246 C32.7212508,14.0968885 32.9353619,13.0441672 33.3456794,12.0562984 C33.7567429,11.0706918 34.3222349,10.2080033 35.0436476,9.46823279 C35.7628222,8.7277082 36.6103143,8.14554426 37.5868698,7.72023279 C38.5619333,7.29492131 39.6272667,7.08151148 40.7798857,7.08151148" id="Fill-7" fill="#00A19B"></path>
                    <path d="M28.3668873,7.24831803 C28.9435698,7.24831803 29.4247603,7.46248197 29.8126968,7.88779344 C30.1991413,8.31461311 30.4169825,8.83117049 30.4624905,9.43520328 L30.4624905,21.3341213 C30.4624905,21.9396623 30.2729984,22.4441541 29.8969984,22.8483508 C29.5209984,23.2502852 29.0092206,23.4750066 28.3668873,23.5202525 C27.7894587,23.5202525 27.3023,23.3415311 26.902427,22.9825803 C26.504046,22.6236295 26.2586016,22.1206459 26.1705698,21.4691049 L26.1705698,9.30021967 C26.2168238,8.71805574 26.4495857,8.23618689 26.8696016,7.85461311 C27.2903635,7.47454754 27.7894587,7.27244918 28.3668873,7.24831803 Z M30.0954429,1.16500656 C30.3834111,0.941039344 30.7056968,0.806809836 31.0600619,0.761563934 C31.413681,0.71782623 31.7523794,0.751006557 32.073919,0.862613115 C32.3954587,0.975727869 32.6677603,1.16500656 32.8893317,1.43421967 C33.1101571,1.70343279 33.2563794,2.01638361 33.3220302,2.37533443 C33.388427,2.93562951 33.2608556,3.43408852 32.9400619,3.87071148 C32.6177762,4.30884262 32.191046,4.57202295 31.6591254,4.66100656 L26.9695698,5.3329082 C26.7256175,5.3781541 26.5152365,5.33818689 26.337681,5.21526885 C26.1601254,5.09385902 26.0609032,4.90759672 26.0392683,4.66100656 C25.9713794,4.32543279 26.0944746,4.05621967 26.4040778,3.85487541 L30.0954429,1.16500656 Z" id="Fill-9" fill="#00A19B"></path>
                    <path d="M65.8150698,7.18278689 C68.0315302,7.18278689 69.9167524,7.96704918 71.4684984,9.53557377 C71.8467365,9.96163934 72.0183238,10.4661311 71.9862444,11.0490492 C71.951927,11.630459 71.7355778,12.113082 71.3364508,12.4931475 C70.9373238,12.8754754 70.4277841,13.0783279 69.8048476,13.0986885 C69.1856413,13.1220656 68.6753556,12.9199672 68.2777206,12.4931475 C67.5891333,11.8664918 66.7684984,11.5527869 65.8150698,11.5527869 C65.3055302,11.5527869 64.8228476,11.660623 64.3692603,11.8717705 C63.9134349,12.0851803 63.5135619,12.3649508 63.1711333,12.7125902 C62.8272127,13.0602295 62.5564032,13.4576393 62.3579587,13.9048197 C62.1572762,14.3550164 62.0573079,14.8255738 62.0573079,15.3164918 C62.0573079,15.8330492 62.1572762,16.3209508 62.3579587,16.7809508 C62.5564032,17.2401967 62.833181,17.6428852 63.187546,17.9905246 C63.5426571,18.3381639 63.9410381,18.6119016 64.385673,18.8132459 C64.8288159,19.0153443 65.3055302,19.1043279 65.8150698,19.082459 C66.7916254,19.082459 67.6115143,18.7808197 68.2777206,18.1752787 C68.6753556,17.7280984 69.1856413,17.5041311 69.8048476,17.5041311 C70.4277841,17.5041311 70.9373238,17.7280984 71.3364508,18.1752787 C71.5356413,18.354 71.6908159,18.5681639 71.8027206,18.8132459 C71.9116413,19.0605902 71.9735619,19.3169836 71.9862444,19.5869508 C71.9959429,19.8546557 71.9556571,20.1208525 71.8683714,20.378 C71.7788476,20.6351475 71.646054,20.8636393 71.4684984,21.0664918 C70.6926254,21.8515082 69.8406571,22.4442295 68.9081175,22.8484262 C67.9755778,23.2503607 66.9468,23.4532131 65.8150698,23.4532131 C64.7072127,23.4532131 63.6642603,23.2345246 62.6891968,22.7963934 C61.7126413,22.3597705 60.859927,21.7723279 60.1295619,21.0325574 C59.3969587,20.2927869 58.815054,19.4308525 58.3831016,18.4444918 C57.9496571,17.4581311 57.734054,16.4159672 57.734054,15.3164918 C57.734054,14.2419016 57.9496571,13.2110492 58.3831016,12.2239344 C58.815054,11.239082 59.402181,10.3756393 60.1459746,9.63737705 C60.8875302,8.89760656 61.7477048,8.30262295 62.7220222,7.85468852 C63.6970857,7.4075082 64.7288476,7.18278689 65.8150698,7.18278689" id="Fill-11" fill="#00A19B"></path>
                    <path d="M82.1654,19.0826098 C82.6756857,19.0826098 83.1583683,18.9875934 83.6141937,18.7975607 C84.067781,18.6067738 84.4609397,18.3435934 84.7929238,18.0072656 C85.1264,17.6709377 85.3919873,17.2735279 85.5919238,16.814282 C85.7911143,16.354282 85.8910825,15.855823 85.8910825,15.3166426 C85.8910825,14.8257246 85.7911143,14.3491344 85.5919238,13.8891344 C85.3919873,13.4298885 85.1211778,13.0264459 84.7772571,12.6788066 C84.4340825,12.3304131 84.0349556,12.0566754 83.5806222,11.854577 C83.1255429,11.6524787 82.6533048,11.5529377 82.1654,11.5529377 C81.6782413,11.5529377 81.2134635,11.6524787 80.7695746,11.854577 C80.3249397,12.0566754 79.933273,12.3304131 79.5893524,12.6788066 C79.2454317,13.0264459 78.9723841,13.4298885 78.7731937,13.8891344 C78.5747492,14.3491344 78.475527,14.8257246 78.475527,15.3166426 C78.475527,15.8332 78.5792254,16.3203475 78.7903524,16.7811016 C79.0022254,17.2395934 79.2790032,17.6377574 79.6214317,17.9733311 C79.9638603,18.3104131 80.3614952,18.578118 80.8024,18.7809705 C81.2447968,18.9815607 81.6998762,19.0826098 82.1654,19.0826098 M83.1307651,7.21687213 C84.1289556,7.32772459 85.0652254,7.61956066 85.9410667,8.08936393 C86.8169079,8.56067541 87.571146,9.16018361 88.2030349,9.88788852 C88.8341778,10.6171016 89.334019,11.4458557 89.6988286,12.3771672 C90.0643841,13.3062164 90.2479079,14.2865443 90.2479079,15.3166426 L90.2479079,21.2679869 C90.2479079,21.8727738 90.0255905,22.388577 89.5831937,22.8138885 C89.1400508,23.2392 88.6409556,23.4526098 88.0874,23.4526098 C87.3100349,23.4526098 86.6878444,23.0944131 86.2238127,22.3765115 C86.1119079,22.4225115 86.0141778,22.472282 85.9239079,22.5288393 C85.8358762,22.5831344 85.7463524,22.6351672 85.6590667,22.679659 C85.1264,22.9270033 84.5825429,23.1155279 84.0282413,23.2505115 C83.4508127,23.3854951 82.8435429,23.4526098 82.1997175,23.4526098 C80.5360667,23.4526098 79.0507175,22.9978885 77.7436698,22.0914623 C76.4343841,21.184282 75.4585746,20.0131672 74.8169873,18.578118 C74.5946698,18.063823 74.4230825,17.5367082 74.3007333,16.9997902 C74.1791302,16.4606098 74.1194476,15.8995607 74.1194476,15.3166426 C74.1194476,14.7337246 74.1791302,14.1741836 74.3007333,13.6357574 C74.4230825,13.0988393 74.5946698,12.5717246 74.8169873,12.0566754 C75.4585746,10.5997574 76.4343841,9.42487213 77.7436698,8.52824918 C79.0507175,7.63162623 80.5360667,7.1829377 82.1997175,7.1829377 L82.6809079,7.1829377 C82.8263841,7.1829377 82.9755905,7.19500328 83.1307651,7.21687213" id="Fill-13" fill="#00A19B"></path>
                    <path d="M103.803529,6.54338689 L103.803529,18.879682 L106.098322,18.879682 C106.518338,18.879682 106.918211,18.8027639 107.294211,18.6459115 C107.671703,18.489059 107.998465,18.2703705 108.275989,17.9906 C108.553513,17.7108295 108.769116,17.385059 108.925037,17.0155508 C109.078719,16.6445344 109.157798,16.2478787 109.157798,15.8218131 L109.157798,9.60351803 C109.157798,9.17820656 109.078719,8.77853443 108.925037,8.40978033 C108.769116,8.04027213 108.553513,7.71525574 108.275989,7.43473115 C107.998465,7.15496066 107.671703,6.93627213 107.294211,6.77791148 C106.918211,6.62181311 106.518338,6.54338689 106.098322,6.54338689 L103.803529,6.54338689 Z M106.098322,1.97053443 C107.07264,1.97053443 108.020846,2.1681082 108.941449,2.56023934 C109.861306,2.95312459 110.670005,3.49682951 111.367544,4.1906 C112.068068,4.88512459 112.627592,5.69351803 113.0491,6.61050164 C113.469862,7.53050164 113.680989,8.52817377 113.680989,9.60351803 L113.680989,15.8218131 C113.680989,16.8307967 113.475084,17.7937803 113.065513,18.7130262 C112.655195,19.6322721 112.106116,20.4444361 111.419767,21.1502721 C110.731925,21.8561082 109.928449,22.4164033 109.008592,22.8311574 C108.087989,23.2466656 107.117402,23.4525344 106.098322,23.4525344 L101.575132,23.4525344 C100.976814,23.4525344 100.450116,23.2346 99.9957825,22.7964689 C99.5407032,22.3598459 99.3131635,21.8168951 99.3131635,21.1653541 L99.3131635,4.25771475 C99.3131635,3.67404262 99.5280206,3.14768197 99.9614651,2.67712459 C100.394163,2.20581311 100.932052,1.97053443 101.575132,1.97053443 L106.098322,1.97053443 Z" id="Fill-15" fill="#00A19B"></path>
                    <path d="M126.250579,13.0989148 C125.873087,12.6276033 125.43069,12.2543246 124.921897,11.9730459 C124.411611,11.6917672 123.846119,11.5530131 123.225421,11.5530131 C122.583087,11.5530131 122.010135,11.6917672 121.512532,11.9730459 C121.014929,12.2543246 120.575516,12.6276033 120.200262,13.0989148 L126.250579,13.0989148 Z M123.225421,7.18301311 C124.290008,7.18301311 125.309833,7.40698033 126.286389,7.85491475 C127.260706,8.30284918 128.120135,8.90235738 128.863183,9.65193115 C129.604738,10.4045213 130.197833,11.2664557 130.640976,12.242259 C131.084865,13.2173082 131.307183,14.2413738 131.307183,15.316718 C131.307183,15.8996361 131.089341,16.4161934 130.658881,16.8633738 C130.22469,17.3135705 129.688294,17.5239639 129.044468,17.5043574 L120.200262,17.5043574 C120.931373,18.5563246 121.938516,19.0826852 123.225421,19.0826852 C123.57904,19.0826852 123.877452,19.0487508 124.122151,18.9816361 C124.366849,18.9137672 124.583198,18.835341 124.77269,18.7463574 C124.959944,18.6573738 125.147198,18.5781934 125.337437,18.5118328 C125.52469,18.4439639 125.741786,18.4107836 125.985738,18.4107836 C126.451262,18.4334066 126.855611,18.5683902 127.200278,18.8134721 C127.54196,19.0608164 127.797103,19.3684885 127.963468,19.7379967 C128.130579,20.1075049 128.186532,20.506423 128.130579,20.9324885 C128.075373,21.3578 127.882151,21.7499311 127.547929,22.108882 C126.949611,22.6013082 126.286389,22.9429148 125.55304,23.1329475 C124.821183,23.3237344 124.044563,23.4308164 123.225421,23.4526852 C122.160833,23.4979311 121.140262,23.3018656 120.165944,22.8644885 C119.190135,22.4286197 118.330706,21.8343902 117.587659,21.0840623 C116.845357,20.3322262 116.258976,19.4521934 115.824786,18.4439639 C115.393579,17.4357344 115.176484,16.3943246 115.176484,15.316718 C115.176484,14.2632426 115.393579,13.2452098 115.824786,12.2580951 C116.258976,11.2732426 116.839389,10.4045213 117.571992,9.65193115 C118.303849,8.90235738 119.155817,8.30284918 120.133119,7.85491475 C121.108183,7.40698033 122.138452,7.18301311 123.225421,7.18301311 Z" id="Fill-17" fill="#00A19B"></path>
                    <path d="M140.817297,7.08151148 C141.881138,7.08151148 142.902456,7.27682295 143.879011,7.6704623 C144.852583,8.06334754 145.706789,8.61006885 146.438646,9.31741311 C147.169757,10.0224951 147.756884,10.857282 148.201519,11.8210197 C148.644662,12.7840033 148.867725,13.8284295 148.867725,14.9482656 L148.867725,21.1658066 C148.867725,21.7502328 148.661075,22.2539705 148.251503,22.679282 C147.84044,23.1053475 147.336122,23.3300689 146.737059,23.3519377 C146.137995,23.3519377 145.624725,23.1573803 145.191281,22.7629869 C144.760075,22.3708557 144.542979,21.8723967 144.542979,21.2676098 L144.542979,15.2167246 C144.542979,14.7016754 144.446741,14.2137738 144.260979,13.7530197 C144.070741,13.2967902 143.805154,12.897118 143.461233,12.5615443 C143.116567,12.2244623 142.718932,11.9560033 142.26609,11.754659 C141.810265,11.5533148 141.317884,11.4515115 140.785217,11.4515115 C140.298059,11.4515115 139.831789,11.547282 139.387154,11.7380689 C138.945503,11.9281016 138.555329,12.1792164 138.224837,12.4936754 C137.890614,12.8081344 137.625773,13.1874459 137.425837,13.6361344 C137.2259,14.084823 137.126678,14.5561344 137.126678,15.0478066 L137.126678,21.1658066 C137.126678,21.7502328 136.905106,22.2592492 136.460471,22.6966262 C136.018821,23.1332492 135.508535,23.3519377 134.931106,23.3519377 C134.353678,23.3519377 133.844884,23.1498393 133.401741,22.7463967 C132.957106,22.3429541 132.736281,21.851282 132.736281,21.2676098 L132.736281,15.2167246 C132.757916,14.0968885 132.975011,13.0441672 133.385329,12.0562984 C133.7949,11.0706918 134.359646,10.2080033 135.082551,9.46823279 C135.800979,8.7277082 136.649217,8.14554426 137.625773,7.72023279 C138.600837,7.29492131 139.663932,7.08151148 140.817297,7.08151148" id="Fill-19" fill="#00A19B"></path>
                    <path d="M152.889508,1.97053443 C153.510206,1.97053443 154.031683,2.19073115 154.452444,2.6281082 C154.875444,3.06473115 155.10746,3.60768197 155.152222,4.25771475 L155.152222,6.8133541 L161.536762,6.8133541 C162.179841,6.8133541 162.699825,7.03656721 163.099698,7.48450164 C163.499571,7.93319016 163.699508,8.45955082 163.699508,9.0650918 C163.699508,9.64800984 163.477937,10.1690918 163.034048,10.6275836 C162.589413,11.0875836 162.090317,11.3175836 161.536762,11.3175836 L155.152222,11.3175836 L155.152222,15.1491574 C155.152222,15.6657148 155.245476,16.1521082 155.434222,16.6106 C155.622222,17.0713541 155.883333,17.4800754 156.215317,17.8397803 C156.548048,18.197977 156.941952,18.4769934 157.397778,18.6798459 C157.850619,18.8804361 158.344492,18.9814852 158.876413,18.9814852 C159.453095,18.9814852 159.94473,18.903059 160.35654,18.7462066 C160.766857,18.5901082 161.127937,18.3540754 161.436794,18.0411246 C161.903063,17.6384361 162.417825,17.4303049 162.983317,17.4189934 C163.548063,17.407682 164.075508,17.6271246 164.562667,18.0743049 C164.78573,18.2756492 164.952095,18.5071574 165.062508,18.7627967 C165.172921,19.0206984 165.233349,19.2891574 165.245286,19.5704361 C165.256476,19.8509607 165.216937,20.1246984 165.128905,20.3931574 C165.041619,20.6631246 164.896143,20.8984033 164.696206,21.0997475 C163.919587,21.862141 163.066873,22.4443049 162.135079,22.8485016 C161.204778,23.2504361 160.207333,23.4532885 159.142,23.4532885 C157.988635,23.4532885 156.903905,23.257223 155.883333,22.8643377 C154.863508,22.4722066 153.965286,21.9134197 153.188667,21.1842066 C152.41354,20.4565016 151.797317,19.5809934 151.34373,18.5614525 C150.887905,17.5419115 150.649921,16.403977 150.62754,15.1491574 L150.62754,4.08955082 C150.62754,3.48476393 150.855079,2.98027213 151.310159,2.5783377 C151.765238,2.17489508 152.292683,1.97053443 152.889508,1.97053443" id="Fill-21" fill="#00A19B"></path>
                    <path d="M174.939894,1.1653082 C175.22637,0.940586885 175.548656,0.807111475 175.903767,0.761111475 C176.258878,0.71737377 176.59683,0.751308197 176.917624,0.862160656 C177.239163,0.976029508 177.511465,1.1653082 177.733037,1.43452131 C177.953862,1.70373443 178.098592,2.01593115 178.164243,2.37563607 C178.231386,2.93517705 178.103068,3.43363607 177.783021,3.87101311 C177.460735,4.30839016 177.034751,4.57157049 176.502084,4.6613082 L171.813275,5.33320984 C171.56783,5.37770164 171.358941,5.33773443 171.18064,5.21481639 C171.00383,5.09416066 170.903116,4.90714426 170.881481,4.6613082 C170.814338,4.32573443 170.937433,4.05652131 171.247783,3.85517705 L174.939894,1.1653082 Z M174.406481,19.0826852 C174.917513,19.0826852 175.399449,18.9869148 175.853037,18.7976361 C176.308116,18.6068492 176.702767,18.3436689 177.034751,18.007341 C177.367481,17.6710131 177.632322,17.2736033 177.832259,16.8143574 C178.032195,16.3543574 178.131417,15.8558984 178.131417,15.316718 C178.131417,14.8250459 178.032195,14.3492098 177.832259,13.8892098 C177.632322,13.4292098 177.360767,13.0265213 177.018338,12.678882 C176.675163,12.3304885 176.273798,12.0567508 175.820957,11.8546525 C175.366624,11.6525541 174.894386,11.5530131 174.406481,11.5530131 C173.920068,11.5530131 173.453798,11.6525541 173.008417,11.8546525 C172.566767,12.0567508 172.172862,12.3304885 171.830433,12.678882 C171.486513,13.0265213 171.214211,13.4292098 171.015021,13.8892098 C170.814338,14.3492098 170.715116,14.8250459 170.715116,15.316718 C170.715116,15.8332754 170.820306,16.320423 171.030687,16.781177 C171.241068,17.2396689 171.519338,17.6378328 171.861767,17.9734066 C172.206433,18.3104885 172.600338,18.5781934 173.041989,18.7810459 C173.485878,18.9816361 173.940957,19.0826852 174.406481,19.0826852 Z M175.371846,7.21619344 C176.367798,7.3278 177.306306,7.61963607 178.181402,8.08943934 C179.057243,8.56075082 179.811481,9.16025902 180.444116,9.88796393 C181.074513,10.617177 181.574354,11.4459311 181.940656,12.3772426 C182.306211,13.3062918 182.488989,14.2866197 182.488989,15.316718 L182.488989,21.2680623 C182.488989,21.8720951 182.266671,22.3886525 181.823529,22.8132098 C181.381132,23.2392754 180.882037,23.4526852 180.326989,23.4526852 C179.55037,23.4526852 178.930417,23.0944885 178.464894,22.3765869 C178.353735,22.4225869 178.253767,22.4723574 178.164243,22.5289148 C178.076957,22.5832098 177.987433,22.6344885 177.900148,22.6797344 C177.367481,22.9270787 176.823624,23.1156033 176.269322,23.2505869 C175.69264,23.3855705 175.083132,23.4526852 174.440798,23.4526852 C172.777894,23.4526852 171.291798,22.9979639 169.984751,22.0915377 C168.675465,21.1843574 167.69891,20.0124885 167.058814,18.5781934 C166.835751,18.0638984 166.662671,17.5367836 166.541068,16.9998656 C166.420211,16.4606852 166.359037,15.8996361 166.359037,15.316718 C166.359037,14.7338 166.420211,14.174259 166.541068,13.6358328 C166.662671,13.0989148 166.835751,12.5718 167.058814,12.0567508 C167.69891,10.5998328 168.675465,9.42419344 169.984751,8.52832459 C171.291798,7.63170164 172.777894,7.18301311 174.440798,7.18301311 L174.921989,7.18301311 C175.066719,7.18301311 175.215925,7.19432459 175.371846,7.21619344 Z" id="Fill-23" fill="#00A19B"></path>
                    <path d="M186.379171,23.4866951 C185.780108,23.4866951 185.282505,23.2898754 184.881886,22.8992525 C184.482759,22.5071213 184.262679,21.9852852 184.216425,21.3344984 L184.216425,15.1154492 C184.239552,14.0393508 184.467092,13.0265967 184.899044,12.0734164 C185.330997,11.1224984 185.907679,10.2922361 186.629092,9.5864 C187.349013,8.88056393 188.192775,8.32026885 189.155902,7.90551475 C190.120521,7.49076066 191.145568,7.26000656 192.233283,7.21626885 C192.853235,7.21626885 193.369489,7.42892459 193.780552,7.85499016 C194.188632,8.28105574 194.416917,8.79535082 194.460933,9.4008918 C194.460933,10.0064328 194.250552,10.5169574 193.829044,10.9317115 C193.408283,11.3457115 192.88606,11.5644 192.266108,11.5855148 C191.755076,11.5855148 191.2806,11.6812852 190.835219,11.8720721 C190.392822,12.0636131 190.002648,12.3252852 189.672156,12.6623672 C189.338679,12.9986951 189.073838,13.3961049 188.873156,13.8545967 C188.673965,14.3153508 188.573997,14.8138098 188.573997,15.351482 L188.573997,21.469482 C188.529981,22.0531541 188.313632,22.5335148 187.926441,22.9158426 C187.538505,23.2959082 187.020759,23.4866951 186.379171,23.4866951" id="Fill-25" fill="#00A19B"></path>
                    <path d="M197.819717,7.28300656 C198.395654,7.28300656 198.87759,7.49641639 199.266273,7.92172787 C199.653463,8.34628525 199.870559,8.86359672 199.913083,9.46838361 L199.913083,21.370318 C199.913083,21.9735967 199.726575,22.4780885 199.349083,22.880777 C198.972337,23.2842197 198.463543,23.5081869 197.819717,23.5534328 C197.243781,23.5534328 196.754384,23.3732033 196.357495,23.0157607 C195.959114,22.6575639 195.712178,22.1530721 195.624146,21.5030393 L195.624146,9.3349082 C195.668908,8.75123607 195.90167,8.27012131 196.322432,7.88779344 C196.74394,7.50621967 197.243781,7.30487541 197.819717,7.28300656 M197.819717,2.13930164 C198.395654,2.13930164 198.888781,2.35874426 199.299844,2.79461311 C199.710908,3.23123607 199.913083,3.74251475 199.913083,4.32543279 C199.913083,4.90759672 199.710908,5.41736721 199.299844,5.85399016 C198.888781,6.29136721 198.395654,6.50930164 197.819717,6.50930164 C197.17813,6.48743279 196.650686,6.28156393 196.241114,5.88792459 C195.829305,5.49730164 195.624146,4.94077705 195.624146,4.22287541 C195.646527,3.64221967 195.874067,3.14828525 196.305273,2.74484262 C196.738717,2.3421541 197.243781,2.13930164 197.819717,2.13930164" id="Fill-27" fill="#00A19B"></path>
                    <path d="M209.660062,19.0826098 C210.168856,19.0826098 210.651538,18.9875934 211.105871,18.7975607 C211.559459,18.6067738 211.954856,18.3435934 212.285348,18.0072656 C212.618824,17.6709377 212.883665,17.2735279 213.085094,16.814282 C213.283538,16.354282 213.384252,15.855823 213.384252,15.3166426 C213.384252,14.8257246 213.283538,14.3491344 213.085094,13.8891344 C212.883665,13.4298885 212.612856,13.0264459 212.268935,12.6788066 C211.926506,12.3304131 211.527379,12.0566754 211.073046,11.854577 C210.618713,11.6524787 210.145729,11.5529377 209.660062,11.5529377 C209.170665,11.5529377 208.704395,11.6524787 208.261252,11.854577 C207.81811,12.0566754 207.423459,12.3304131 207.08103,12.6788066 C206.734871,13.0264459 206.4663,13.4298885 206.264871,13.8891344 C206.066427,14.3491344 205.966459,14.8257246 205.966459,15.3166426 C205.966459,15.8332 206.071649,16.3203475 206.283522,16.7811016 C206.492411,17.2395934 206.770681,17.6377574 207.11311,17.9733311 C207.45703,18.3104131 207.850935,18.578118 208.294824,18.7809705 C208.737967,18.9815607 209.193046,19.0826098 209.660062,19.0826098 M210.622443,7.21687213 C211.622125,7.32772459 212.557649,7.61956066 213.431998,8.08936393 C214.309332,8.56067541 215.064316,9.16018361 215.694713,9.88788852 C216.327348,10.6171016 216.824951,11.4458557 217.191998,12.3771672 C217.557554,13.3062164 217.741078,14.2865443 217.741078,15.3166426 L217.741078,21.2679869 C217.741078,21.8727738 217.519506,22.388577 217.076363,22.8138885 C216.631729,23.2392 216.132633,23.4526098 215.579078,23.4526098 C214.800967,23.4526098 214.181014,23.0944131 213.71549,22.3765115 C213.605824,22.4225115 213.506602,22.472282 213.417078,22.5288393 C213.3283,22.5831344 213.238776,22.6351672 213.150744,22.679659 C212.618824,22.9270033 212.074221,23.1155279 211.519919,23.2505115 C210.944729,23.3854951 210.335221,23.4526098 209.691395,23.4526098 C208.029983,23.4526098 206.544633,22.9978885 205.235348,22.0914623 C203.926062,21.184282 202.953237,20.0131672 202.309411,18.578118 C202.086348,18.063823 201.91476,17.5367082 201.793903,16.9997902 C201.671554,16.4606098 201.611871,15.8995607 201.611871,15.3166426 C201.611871,14.7337246 201.671554,14.1741836 201.793903,13.6357574 C201.91476,13.0988393 202.086348,12.5717246 202.309411,12.0566754 C202.953237,10.5997574 203.926062,9.42487213 205.235348,8.52824918 C206.544633,7.63162623 208.029983,7.1829377 209.691395,7.1829377 L210.174824,7.1829377 C210.318808,7.1829377 210.466522,7.19500328 210.622443,7.21687213" id="Fill-29" fill="#00A19B"></path>
                    <path d="M8.43022776,33.1388735 C8.43022776,32.4133741 7.9004872,31.8601909 7.14929118,31.8601909 L5.26851303,31.8601909 C5.14902268,31.8601909 5.08051488,31.9125299 5.06298962,32.0333123 L3.71354524,39.8068653 L3.71354524,39.8583991 C3.71354524,39.9453624 3.74779914,39.9799867 3.85056085,39.9799867 L5.72974579,39.9799867 C6.58450011,39.9799867 7.38747528,39.2883063 7.54121954,38.425115 L8.41349911,33.4150625 C8.43022776,33.3289044 8.43022776,33.2250316 8.43022776,33.1388735 Z M9.11371258,38.2519937 C8.78869882,40.1692124 7.38747528,41.361737 5.49076509,41.361737 L2.0725444,41.361737 C1.9705793,41.361737 1.9363254,41.3271127 1.9363254,41.2409546 L1.9363254,41.1894208 L3.76532439,30.651562 C3.78205304,30.5299744 3.85056085,30.4784406 3.9692546,30.4784406 L7.38747528,30.4784406 C9.02847613,30.4784406 9.98519555,31.3939709 9.98519555,32.8973088 C9.98519555,33.121964 9.95094165,33.345814 9.91668775,33.5881839 L9.11371258,38.2519937 Z" id="Fill-32" fill="#00A19B"></path>
                    <path d="M15.503977,35.1082702 C15.4872483,35.2113379 15.4354692,35.2805864 15.3669614,35.2805864 C15.2132171,35.2805864 14.9567112,35.1598041 14.5464609,35.1598041 C13.6064702,35.1598041 12.9229854,35.7468063 12.7517159,36.6977662 L11.9662659,41.1892597 C11.9487407,41.3100421 11.8802329,41.3615759 11.7607425,41.3615759 L10.5642458,41.3615759 C10.4614841,41.3615759 10.4272302,41.3269516 10.4272302,41.2407935 L10.4272302,41.1892597 L11.7264886,33.760339 C11.7432173,33.6395567 11.7949964,33.5880229 11.9144868,33.5880229 L12.939714,33.5880229 C13.0424757,33.5880229 13.0942549,33.6395567 13.0942549,33.72652 L13.0942549,33.760339 L12.9914932,34.3135223 L12.9914932,34.3650561 C12.9914932,34.4520194 13.0424757,34.5212679 13.1109835,34.5212679 C13.2989817,34.5212679 13.9649412,33.5880229 14.8364242,33.5880229 C15.4872483,33.5880229 15.7254324,33.5880229 15.7254324,33.7780538 L15.7254324,33.8126781 L15.503977,35.1082702 Z" id="Fill-34" fill="#00A19B"></path>
                    <path d="M20.5099855,36.2653653 C20.5099855,35.5398659 19.9802449,34.9697731 19.2290489,34.9697731 C18.3392441,34.9697731 17.5529975,35.6952725 17.4167785,36.5246448 L17.0925614,38.424954 C17.0750361,38.5111121 17.0750361,38.5972702 17.0750361,38.6842335 C17.0750361,39.4097329 17.6047767,39.9798257 18.3567693,39.9798257 C19.2457775,39.9798257 20.0312275,39.2712358 20.1682431,38.424954 L20.4932568,36.5246448 C20.5099855,36.4384867 20.5099855,36.3515234 20.5099855,36.2653653 Z M21.2277242,41.1892597 C21.2109955,41.3100421 21.1424877,41.3615759 21.0229974,41.3615759 L19.9969736,41.3615759 C19.8950085,41.3615759 19.8607546,41.3269516 19.8607546,41.2407935 L19.8607546,41.1892597 L19.8950085,40.9815141 L19.8950085,40.9299803 C19.8950085,40.8438222 19.8432293,40.7745736 19.7747215,40.7745736 C19.6042486,40.7745736 19.0577794,41.3615759 17.9982983,41.3615759 C16.4935164,41.3615759 15.5025431,40.4283308 15.5025431,38.9950468 C15.5025431,38.8050158 15.5192717,38.6149849 15.5535256,38.424954 L15.879336,36.5246448 C16.1692993,34.797457 17.6215053,33.5880229 19.3652679,33.5880229 C20.3395126,33.5880229 20.7322375,34.1581156 20.9544896,34.1581156 C21.0229974,34.1581156 21.0739799,34.1057766 21.1082338,33.9680847 L21.1592164,33.760339 C21.1934703,33.6395567 21.2109955,33.5880229 21.3480111,33.5880229 L22.3732384,33.5880229 C22.4760001,33.5880229 22.5269826,33.6395567 22.5269826,33.72652 L22.5269826,33.760339 L21.2277242,41.1892597 Z" id="Fill-36" fill="#00A19B"></path>
                    <path d="M23.7391724,41.5342947 C23.2596178,41.5342947 22.9529259,41.2234814 22.9529259,40.7572615 C22.9529259,40.1525444 23.4651412,39.6339855 24.0809148,39.6339855 C24.5421476,39.6339855 24.8671613,39.9447988 24.8671613,40.4287334 C24.8671613,41.0157357 24.3533528,41.5342947 23.7391724,41.5342947" id="Fill-38" fill="#00A19B"></path>
                    <path d="M38.1604631,41.1890987 C38.1437344,41.3098811 38.0752266,41.3614149 37.9557363,41.3614149 L36.7592395,41.3614149 C36.6564778,41.3614149 36.6222239,41.3267906 36.6222239,41.2406325 L36.6222239,41.1890987 L38.194717,33.536328 L34.6912598,39.7034756 C34.6402773,39.7550094 34.5892947,39.7896337 34.5207869,39.8073484 L33.8365055,39.8073484 C33.7512691,39.7896337 33.7170152,39.7550094 33.6994899,39.7034756 L32.3675708,33.5878618 L31.205328,41.1890987 C31.1878027,41.3098811 31.1192949,41.3614149 31.0006011,41.3614149 L29.8208331,41.3614149 C29.7180714,41.3614149 29.6838175,41.3267906 29.6838175,41.2406325 L29.6838175,41.1890987 L31.5120199,30.6512399 C31.5295451,30.5304575 31.5980529,30.4781185 31.7175433,30.4781185 L32.8112783,30.4781185 C32.8973113,30.5127428 32.9482939,30.5473671 32.9482939,30.5819914 L34.4690078,37.630045 L38.5539846,30.5819914 C38.6057638,30.5127428 38.6567463,30.4781185 38.7252541,30.4781185 L39.8867004,30.4781185 C39.9894621,30.4781185 40.023716,30.5127428 40.023716,30.5997061 L40.023716,30.6512399 L38.1604631,41.1890987 Z" id="Fill-40" fill="#00A19B"></path>
                    <path d="M45.1478606,36.2653653 C45.1478606,35.5398659 44.6189166,34.9697731 43.866924,34.9697731 C42.9771192,34.9697731 42.1916693,35.6952725 42.0546537,36.5246448 L41.7304365,38.424954 C41.7129113,38.5111121 41.7129113,38.5972702 41.7129113,38.6842335 C41.7129113,39.4097329 42.2434484,39.9798257 42.9946444,39.9798257 C43.8836527,39.9798257 44.6698992,39.2712358 44.8069148,38.424954 L45.1311319,36.5246448 C45.1478606,36.4384867 45.1478606,36.3515234 45.1478606,36.2653653 Z M45.8663959,41.1892597 C45.8496673,41.3100421 45.7811595,41.3615759 45.6616691,41.3615759 L44.6356453,41.3615759 C44.5336802,41.3615759 44.4994263,41.3269516 44.4994263,41.2407935 L44.4994263,41.1892597 L44.5336802,40.9815141 L44.5336802,40.9299803 C44.5336802,40.8438222 44.481901,40.7745736 44.4133932,40.7745736 C44.2421237,40.7745736 43.6964511,41.3615759 42.63697,41.3615759 C41.1321881,41.3615759 40.1412148,40.4283308 40.1412148,38.9950468 C40.1412148,38.8050158 40.1579435,38.6149849 40.1921974,38.424954 L40.5172111,36.5246448 C40.8071744,34.797457 42.2601771,33.5880229 44.003143,33.5880229 C44.9773877,33.5880229 45.3701127,34.1581156 45.5931613,34.1581156 C45.6616691,34.1581156 45.7126517,34.1057766 45.7469056,33.9680847 L45.7978881,33.760339 C45.832142,33.6395567 45.8496673,33.5880229 45.9858863,33.5880229 L47.0119101,33.5880229 C47.1138752,33.5880229 47.1648577,33.6395567 47.1648577,33.72652 L47.1648577,33.760339 L45.8663959,41.1892597 Z" id="Fill-42" fill="#00A19B"></path>
                    <path d="M52.9909684,35.1082702 C52.9742397,35.2113379 52.9224606,35.2805864 52.8539528,35.2805864 C52.7002085,35.2805864 52.4437025,35.1598041 52.0342489,35.1598041 C51.0942582,35.1598041 50.4099767,35.7468063 50.2395038,36.6977662 L49.4532573,41.1892597 C49.4357321,41.3100421 49.3672243,41.3615759 49.2485305,41.3615759 L48.0520338,41.3615759 C47.9492721,41.3615759 47.9150182,41.3269516 47.9150182,41.2407935 L47.9150182,41.1892597 L49.2142766,33.760339 C49.2310053,33.6395567 49.2819878,33.5880229 49.4014782,33.5880229 L50.4267054,33.5880229 C50.5294671,33.5880229 50.5812462,33.6395567 50.5812462,33.72652 L50.5812462,33.760339 L50.4784845,34.3135223 L50.4784845,34.3650561 C50.4784845,34.4520194 50.5294671,34.5212679 50.5979749,34.5212679 C50.7859731,34.5212679 51.4519326,33.5880229 52.3242122,33.5880229 C52.9742397,33.5880229 53.2132204,33.5880229 53.2132204,33.7780538 L53.2132204,33.8126781 L52.9909684,35.1082702 Z" id="Fill-44" fill="#00A19B"></path>
                    <path d="M55.2967339,32.20587 C54.8362977,32.20587 54.5112839,31.877342 54.5112839,31.411122 C54.5112839,30.8241197 55.0410245,30.3055608 55.6392729,30.3055608 C56.1172343,30.3055608 56.4247228,30.6163741 56.4247228,31.1003087 C56.4247228,31.7050258 55.9125075,32.20587 55.2967339,32.20587 Z M54.5112839,41.1888571 C54.4937587,41.3096395 54.4252509,41.3619785 54.3057605,41.3619785 L53.1092638,41.3619785 C53.0065021,41.3619785 52.9722482,41.3273542 52.9722482,41.2403909 L52.9722482,41.1888571 L54.2715066,33.7607417 C54.2882353,33.6399593 54.3400144,33.5876203 54.4595048,33.5876203 L55.6560015,33.5876203 C55.7587632,33.5876203 55.8105424,33.6222445 55.8105424,33.7261174 L55.8105424,33.7607417 L54.5112839,41.1888571 Z" id="Fill-46" fill="#00A19B"></path>
                    <path d="M61.2945919,36.2653653 C61.2945919,35.5398659 60.7648514,34.9697731 60.0128588,34.9697731 C59.1238505,34.9697731 58.3384006,35.6952725 58.201385,36.5246448 L57.8763713,38.424954 C57.8596426,38.5111121 57.8596426,38.5972702 57.8596426,38.6842335 C57.8596426,39.4097329 58.3901798,39.9798257 59.1413758,39.9798257 C60.0295874,39.9798257 60.8158339,39.2712358 60.9528495,38.424954 L61.2778633,36.5246448 C61.2945919,36.4384867 61.2945919,36.3515234 61.2945919,36.2653653 Z M62.0123307,41.1892597 C61.995602,41.3100421 61.9270942,41.3615759 61.8084005,41.3615759 L60.78158,41.3615759 C60.6804115,41.3615759 60.6461576,41.3269516 60.6461576,41.2407935 L60.6461576,41.1892597 L60.6804115,40.9815141 L60.6804115,40.9299803 C60.6804115,40.8438222 60.6286324,40.7745736 60.5601246,40.7745736 C60.3888551,40.7745736 59.8423859,41.3615759 58.7829047,41.3615759 C57.2789195,41.3615759 56.2879462,40.4283308 56.2879462,38.9950468 C56.2879462,38.8050158 56.3046748,38.6149849 56.3389287,38.424954 L56.6631459,36.5246448 C56.9539057,34.797457 58.4069084,33.5880229 60.1498744,33.5880229 C61.1233224,33.5880229 61.516844,34.1581156 61.7398927,34.1581156 C61.8084005,34.1581156 61.8585864,34.1057766 61.8928403,33.9680847 L61.9438229,33.760339 C61.9780768,33.6395567 61.995602,33.5880229 62.131821,33.5880229 L63.1578448,33.5880229 C63.2598099,33.5880229 63.3107925,33.6395567 63.3107925,33.72652 L63.3107925,33.760339 L62.0123307,41.1892597 Z" id="Fill-48" fill="#00A19B"></path>
                    <path d="M72.4687721,38.425115 C72.3325531,39.1852387 71.9055742,39.9622719 71.1878355,40.619328 C70.5210794,41.2240451 69.7690867,41.5340531 68.9661116,41.5340531 C68.4021171,41.5340531 67.8205974,41.361737 67.3075855,41.0332089 C66.6416259,40.6016133 66.2998835,40.1523029 66.2998835,39.772241 C66.2998835,39.7029925 66.350866,39.6683682 66.4536277,39.6168344 L67.6158706,39.0813659 C67.6501245,39.0636511 67.6843784,39.0636511 67.7019036,39.0636511 C67.7520896,39.0636511 67.7863435,39.0982754 67.8205974,39.167524 C68.1448145,39.7376167 68.316084,40.1523029 69.0856019,40.1523029 C69.9570849,40.1523029 70.7433314,39.4445182 70.8970757,38.5974312 L72.2815705,30.651562 C72.3158244,30.5299744 72.3843323,30.4784406 72.4855007,30.4784406 L73.6819975,30.4784406 C73.7847592,30.4784406 73.8190131,30.5130649 73.8190131,30.599223 L73.8190131,30.651562 L72.4687721,38.425115 Z" id="Fill-50" fill="#00A19B"></path>
                    <path d="M79.0640819,36.0754954 C79.0640819,35.349996 78.535138,34.797618 77.7313662,34.797618 C76.9108658,34.797618 76.1078906,35.5223122 75.970875,36.3516844 L75.5781501,38.5974312 C75.5614214,38.7013041 75.5614214,38.7874621 75.5614214,38.8744254 C75.5614214,39.5991196 76.091162,40.1523029 76.842358,40.1523029 C77.7313662,40.1523029 78.5008841,39.4445182 78.6546283,38.5974312 L79.0473533,36.3516844 C79.0640819,36.2655263 79.0640819,36.1616535 79.0640819,36.0754954 Z M80.1920709,38.5974312 C79.8845824,40.3423338 78.4833588,41.5340531 76.6033773,41.5340531 C74.963173,41.5340531 73.9889284,40.619328 73.9889284,39.2021483 C73.9889284,39.0121173 74.005657,38.8051769 74.0399109,38.5974312 L74.4334325,36.3516844 C74.7401244,34.5898723 76.1421445,33.4150625 78.0213295,33.4150625 C79.6631269,33.4150625 80.6373716,34.3305929 80.6373716,35.7469674 C80.6373716,35.9378035 80.6198463,36.144744 80.5855924,36.3516844 L80.1920709,38.5974312 Z" id="Fill-52" fill="#00A19B"></path>
                    <path d="M88.7182652,31.2041011 C88.7182652,31.2387253 88.7015365,31.2733496 88.6840113,31.3071687 C88.1550673,32.1019166 87.5392937,32.4819785 87.0095531,32.4819785 C86.6335568,32.4819785 86.3260683,32.3442866 86.0018511,32.0334733 L85.7110913,31.8088181 C85.5222965,31.6534115 85.335095,31.5841629 85.1295716,31.5841629 C84.5655771,31.5841629 84.3090711,32.1365409 84.0876157,32.1365409 C84.0533618,32.1365409 84.0358365,32.1196314 84.0015826,32.1019166 L83.6773655,31.8257276 C83.6255863,31.7911034 83.6088577,31.7572843 83.6088577,31.72266 C83.6088577,31.6534115 83.7626019,31.4287563 84.0876157,31.1002282 C84.5145945,30.6686326 84.9248448,30.4608869 85.3175697,30.4608869 C85.7110913,30.4608869 86.0018511,30.5824745 86.3260683,30.875573 L86.6160315,31.1348525 C86.7530472,31.2556349 86.9585706,31.341793 87.1983479,31.341793 C87.8125283,31.341793 88.137542,30.7717002 88.257829,30.7717002 C88.3088115,30.7717002 88.3422688,30.7717002 88.3765227,30.8063245 L88.6672826,31.0833187 C88.7015365,31.117943 88.7182652,31.1694768 88.7182652,31.2041011 Z M86.7187933,36.2656874 C86.7187933,35.540188 86.1890527,34.9700952 85.4370601,34.9700952 C84.5488484,34.9700952 83.7626019,35.6955946 83.6255863,36.5241617 L83.3005726,38.4252761 C83.2838439,38.5114342 83.2838439,38.5975923 83.2838439,38.6845556 C83.2838439,39.4092498 83.8143811,39.9793425 84.5655771,39.9793425 C85.4537887,39.9793425 86.2408318,39.2715579 86.3778474,38.4252761 L86.7020646,36.5241617 C86.7187933,36.4380036 86.7187933,36.3518455 86.7187933,36.2656874 Z M87.4373286,41.1887766 C87.4198033,41.309559 87.3512955,41.361898 87.2326018,41.361898 L86.2065779,41.361898 C86.1046128,41.361898 86.0703589,41.3272737 86.0703589,41.2403104 L86.0703589,41.1887766 L86.1046128,40.9818362 L86.1046128,40.9303023 C86.1046128,40.843339 86.0528337,40.7740905 85.9843259,40.7740905 C85.813853,40.7740905 85.2665872,41.361898 84.207106,41.361898 C82.7031208,41.361898 81.7121475,40.4286529 81.7121475,38.9953689 C81.7121475,38.8045327 81.7296727,38.615307 81.7639266,38.4252761 L82.0873472,36.5241617 C82.378107,34.7969738 83.8311097,33.5875397 85.5740757,33.5875397 C86.5475237,33.5875397 86.9418419,34.1576325 87.164094,34.1576325 C87.2326018,34.1576325 87.2827877,34.1060987 87.3170416,33.9684068 L87.3688208,33.7606611 C87.4030747,33.6398788 87.4198033,33.5875397 87.5560223,33.5875397 L88.5820461,33.5875397 C88.6840113,33.5875397 88.7349938,33.6398788 88.7349938,33.7260369 L88.7349938,33.7606611 L87.4373286,41.1887766 Z" id="Fill-54" fill="#00A19B"></path>
                    <path d="M94.7667075,36.0754954 C94.7667075,35.349996 94.2369669,34.797618 93.4339917,34.797618 C92.6134913,34.797618 91.8097196,35.5223122 91.672704,36.3516844 L91.2807756,38.5974312 C91.2640469,38.7013041 91.2640469,38.7874621 91.2640469,38.8744254 C91.2640469,39.5991196 91.7929909,40.1523029 92.5449835,40.1523029 C93.4339917,40.1523029 94.202713,39.4445182 94.3564573,38.5974312 L94.7499788,36.3516844 C94.7667075,36.2655263 94.7667075,36.1616535 94.7667075,36.0754954 Z M95.8946964,38.5974312 C95.5872079,40.3423338 94.1859844,41.5340531 92.3060028,41.5340531 C90.665002,41.5340531 89.6907573,40.619328 89.6907573,39.2021483 C89.6907573,39.0121173 89.707486,38.8051769 89.7417399,38.5974312 L90.136058,36.3516844 C90.4427499,34.5898723 91.8439735,33.4150625 93.723955,33.4150625 C95.3649558,33.4150625 96.3392005,34.3305929 96.3392005,35.7469674 C96.3392005,35.9378035 96.3216753,36.144744 96.2874214,36.3516844 L95.8946964,38.5974312 Z" id="Fill-56" fill="#00A19B"></path>
                    <path d="M104.351586,34.002709 C104.351586,33.8988362 104.300604,33.6395567 104.283078,33.2425853 L104.214571,33.2425853 C104.060826,33.5533986 103.958065,33.8126781 103.872032,34.0196185 L102.471605,37.2501442 C102.454079,37.2847685 102.454079,37.3193927 102.454079,37.354017 C102.454079,37.4232656 102.505859,37.4747994 102.607824,37.4747994 L104.402569,37.4747994 C104.522059,37.4747994 104.607296,37.4055508 104.607296,37.2847685 L104.607296,37.2501442 L104.351586,34.002709 Z M106.675275,41.1892597 C106.675275,41.3100421 106.607564,41.3615759 106.470549,41.3615759 L105.188815,41.3615759 C105.086054,41.3615759 105.034275,41.3269516 105.034275,41.2407935 L104.812022,38.9604225 C104.812022,38.8911739 104.76104,38.8565497 104.659075,38.8565497 L101.890085,38.8565497 C101.787323,38.8565497 101.736341,38.8742644 101.702087,38.9604225 L100.659334,41.2407935 C100.62508,41.3269516 100.556573,41.3615759 100.471336,41.3615759 L99.1903997,41.3615759 C99.087638,41.3615759 99.0191301,41.3100421 99.0191301,41.2407935 C99.0191301,41.2061693 99.0358588,41.171545 99.0533841,41.1369207 L104.077555,30.5990619 C104.111809,30.5129038 104.163588,30.4782796 104.26635,30.4782796 L105.188815,30.4782796 C105.274052,30.4782796 105.325831,30.5129038 105.34256,30.5990619 L106.675275,41.1369207 L106.675275,41.1892597 Z" id="Fill-58" fill="#00A19B"></path>
                    <path d="M109.151434,41.1890987 C109.134705,41.3098811 109.066198,41.3614149 108.946707,41.3614149 L107.750211,41.3614149 C107.647449,41.3614149 107.613195,41.3267906 107.613195,41.2406325 L107.613195,41.1890987 L109.442194,30.6512399 C109.459719,30.5304575 109.528227,30.4781185 109.647717,30.4781185 L110.844214,30.4781185 C110.946179,30.4781185 110.980433,30.5127428 110.980433,30.5997061 L110.980433,30.6512399 L109.151434,41.1890987 Z" id="Fill-60" fill="#00A19B"></path>
                    <path d="M114.397778,41.2578641 C114.32927,41.3093979 114.244033,41.3440222 114.175525,41.361737 L113.184552,41.361737 C113.098519,41.3440222 113.064265,41.2924884 113.047537,41.2578641 L111.373078,33.8297486 C111.373078,33.7951244 111.35635,33.7774096 111.35635,33.7605001 C111.35635,33.6397177 111.44079,33.5881839 111.56028,33.5881839 L112.842013,33.5881839 L112.979029,33.6920567 L114.072764,39.3406454 L117.080734,33.6920567 C117.132513,33.6397177 117.200225,33.6050934 117.251207,33.5881839 L118.53294,33.5881839 C118.635702,33.5881839 118.687481,33.6397177 118.687481,33.7089663 C118.687481,33.7435906 118.687481,33.7774096 118.653227,33.8297486 L114.397778,41.2578641 Z" id="Fill-62" fill="#00A19B"></path>
                    <g id="Group-66" transform="translate(117.873016, 33.239223)">
                        <mask id="mask-2" fill="white">
                            <use xlink:href="#path-1"></use>
                        </mask>
                        <g id="Clip-65"></g>
                        <path d="M5.49585833,2.81896034 C5.49585833,2.1280852 4.91433862,1.55799244 4.1965999,1.55799244 C3.27413438,1.55799244 2.38592276,2.42198896 2.38592276,3.1643979 C2.38592276,3.2513612 2.41938005,3.28518027 2.52214176,3.28518027 L5.25608103,3.28518027 C5.42735053,3.28518027 5.49585833,3.14748837 5.49585833,2.81896034 Z M6.79432017,4.32229818 C6.77759152,4.44308054 6.70908371,4.49461435 6.58959336,4.49461435 L2.31741495,4.49461435 C2.197128,4.49461435 2.1286202,4.54695338 2.11189155,4.66773574 L1.99240119,5.35861087 C1.97487594,5.44476896 1.97487594,5.5486418 1.97487594,5.63479988 C1.97487594,6.34258454 2.50461651,6.91267731 3.25660913,6.91267731 C3.68438459,6.91267731 4.07710955,6.75807588 4.38459805,6.44645738 C4.76059436,6.08411028 4.91433862,5.80711606 5.01630372,5.80711606 C5.05055762,5.80711606 5.08481152,5.8248308 5.11906542,5.84174034 L6.11003875,6.39492357 C6.14429265,6.4118331 6.17854655,6.44645738 6.17854655,6.48108166 C6.17854655,6.67111258 5.80334684,7.22429581 4.96532117,7.79438858 C4.52161366,8.08748712 3.81980699,8.29523279 3.01762842,8.29523279 C1.37662758,8.29523279 0.402382902,7.37970246 0.402382902,5.96332792 C0.402382902,5.773297 0.419908154,5.56555133 0.454162055,5.35861087 L0.846887014,3.11286409 C0.932123466,2.61201988 1.18942602,2.04192712 1.56462573,1.59261672 C2.31741495,0.677086387 3.37689608,0.176242178 4.43637721,0.176242178 C5.99054839,0.176242178 7.03409747,1.28180343 7.03409747,2.64664416 C7.03409747,2.8020508 7.03409747,2.95745745 6.99984357,3.11286409 L6.79432017,4.32229818 Z" id="Fill-64" fill="#00A19B" mask="url(#mask-2)"></path>
                    </g>
                    <path d="M132.11756,35.1428945 C132.11756,35.1944283 132.083306,35.2459621 131.998069,35.2805864 L130.921063,35.7814306 C130.87008,35.7991454 130.835826,35.8160549 130.818301,35.8160549 C130.767319,35.8160549 130.767319,35.7814306 130.715539,35.7129873 C130.373797,35.1428945 130.134816,34.7451179 129.416281,34.7451179 L128.904862,34.7451179 C127.998329,34.7451179 127.486113,35.1767136 127.486113,35.7814306 C127.486113,36.4553962 128.168802,36.5246448 129.433806,36.8185485 C130.852555,37.1462714 131.53604,37.5263332 131.53604,38.5288268 C131.53604,40.1698566 130.16907,41.5338921 128.219784,41.5338921 L127.708366,41.5338921 C126.118347,41.5338921 125.230136,40.619167 125.230136,39.8067043 C125.230136,39.7551705 125.263593,39.7036366 125.349626,39.6690124 L126.425836,39.1681682 C126.477615,39.1504534 126.494344,39.1335439 126.528597,39.1335439 C126.580377,39.1335439 126.597105,39.1681682 126.648884,39.2366115 C126.98983,39.7551705 127.177828,40.2044809 127.947346,40.2044809 L128.459562,40.2044809 C129.331045,40.2044809 129.930089,39.6859219 129.930089,39.0812049 C129.930089,38.4080445 129.245808,38.3734202 127.947346,38.0795164 C126.562851,37.7687031 125.896095,37.3886413 125.896095,36.3861477 C125.896095,34.7451179 127.28059,33.4149015 129.126318,33.4149015 L129.63933,33.4149015 C131.176772,33.4149015 132.11756,34.2619885 132.11756,35.1428945" id="Fill-67" fill="#00A19B"></path>
                </g>
                <g id="dente" fill="#00A19B">
                    <path d="M23.6786,7.17856393 C26.311346,7.27282623 27.0141079,6.33925246 27.0141079,6.33925246 C27.0141079,6.33925246 24.2776635,3.04308852 20.0901873,2.91187541 C15.7721556,2.7799082 12.0061873,5.42754754 11.7719333,12.7505967 C11.4511397,23.0666623 13.9391556,32.1196131 14.256219,33.4257115 C14.585219,34.7340721 15.3342349,40.7261377 18.0557587,40.8143672 C21.3427746,40.9267279 21.9962984,35.4203016 22.4379492,34.0561377 C22.8796,32.6844328 24.8722508,27.051318 27.0581238,27.1154164 C29.2887587,27.1945967 30.5853619,31.0005311 31.3224413,33.0320721 C32.255727,35.5764 32.3295841,40.4931213 35.5158857,40.5986951 C37.3212825,40.643941 38.9715048,38.5475475 39.8361556,34.3909574 C41.4580286,26.7097115 43.137346,22.6632197 43.3924889,14.4835148 C43.6655365,5.59194098 41.5893302,2.56046557 36.5543619,2.39833443 C32.5802508,2.27692459 30.048219,4.59125246 28.7016317,6.52023607 C27.9459016,7.68456393 26.334473,8.73200656 24.3246635,8.67243279 C22.5707429,8.63246557 21.656854,7.98921967 21.6620762,7.55862951 C21.6687905,7.06771148 22.4110921,7.04056393 22.598346,7.04056393 C22.7818698,7.06318689 23.1601079,7.15895738 23.6786,7.17856393 M17.9871238,45.1474164 C14.4397429,45.0380721 13.9630286,42.4515148 13.7228063,41.6378426 C13.4527429,40.751023 9.11531429,24.3305311 9.42640952,14.3666295 C9.68975873,5.89584262 11.2176317,4.64177705 11.7532825,3.9306623 C12.303854,3.20823607 14.9246635,0.409022951 18.7831397,0.525908197 C24.1180127,0.697088525 27.8489175,5.54443279 27.8489175,5.54443279 C27.8489175,5.54443279 32.4743143,-0.171632787 38.1217746,0.00407213115 C41.9093778,0.130760656 43.5528857,2.09292459 44.2131238,2.95938361 C45.323219,4.33938361 46.1252032,7.30977705 45.8790127,15.0777443 C45.8499175,16.1123672 44.9554254,26.5543672 40.2390127,41.3128262 C39.2467905,43.8646951 37.5324095,44.6429246 35.6479333,44.5758098 C32.5213143,44.4755148 31.8901714,41.2524984 31.7073937,40.2337115 C31.3008063,38.0385311 29.343219,31.0947934 28.355473,29.6612525 C27.7653619,28.8174164 27.5199175,28.6273836 27.0342508,28.607777 C26.591854,28.5889246 26.1599016,29.2065311 25.7667429,30.0043672 C24.9826635,31.6068262 23.3913778,36.258859 22.4110921,40.8234164 C21.8926,43.2825311 20.3945683,45.2205639 17.9871238,45.1474164" id="Fill-69"></path>
                    <path d="M50.1556397,11.0593049 L52.5727825,8.88448525 C51.1597984,9.11373115 49.3327667,9.02700984 47.6892587,8.79474754 C47.1804651,8.73215738 46.6851,8.65071475 46.2330048,8.55117377 C46.5075444,8.89504262 46.7776079,9.30979672 47.0491635,9.70494426 C47.976481,11.0970098 48.870973,12.7613049 49.2790524,14.1812721 L50.1556397,11.0593049 Z" id="Fill-71"></path>
                    <path d="M50.2442683,10.5429738 L49.9301889,11.4305475 C51.6423317,12.928941 52.5927762,15.1165803 52.1250143,17.6043508 C50.4606175,26.4695311 27.8275063,34.9101541 12.6330778,31.9676623 C3.46509365,30.194023 2.81156984,25.5819574 3.19279206,23.5504164 C3.71352222,20.7610066 5.88745873,18.0537934 9.39977619,15.7085475 C9.39977619,15.1859574 9.39977619,14.6588426 9.4117127,14.155859 C9.41469683,14.0155967 9.42663333,13.9145475 9.42663333,13.7697607 C3.8023,17.0267115 0.625696825,20.7851377 0.095268254,23.5639902 C-0.666430159,27.6512033 3.16593492,31.5234984 10.7702365,32.9917279 C28.3258556,36.373859 52.518919,27.0094656 54.2750778,17.6684492 C54.8375857,14.7154 53.223919,12.3211377 50.2442683,10.5429738" id="Fill-73"></path>
                </g>
            </g>
        </g>
    </g>
</svg>