<?xml version="1.0" encoding="UTF-8" standalone="no"?>
<svg width="276px" height="118px" viewBox="0 0 276 118" version="1.1" xmlns="http://www.w3.org/2000/svg" xmlns:xlink="http://www.w3.org/1999/xlink">
    <!-- Generator: Sketch 50.2 (55047) - http://www.bohemiancoding.com/sketch -->
    <title>Logo_branco</title>
    <desc>Created with Sketch.</desc>
    <defs></defs>
    <g id="Welcome" stroke="none" stroke-width="1" fill="none" fill-rule="evenodd">
        <g id="Desktop" transform="translate(-374.000000, -3393.000000)" fill="#FFFFFF">
            <g id="Logo_branco" transform="translate(374.000000, 3393.000000)">
                <g id="Logo">
                    <g id="texto" transform="translate(0.000000, 64.709677)">
                        <path d="M15.8846079,20.4583836 C16.6430552,20.4583836 17.3023283,20.7358594 17.864316,21.2927246 C18.4263038,21.8457625 18.7077699,22.5327542 18.7077699,23.3594406 C18.7077699,23.6426572 18.6558215,23.9134353 18.5585362,24.1698612 C18.4612509,24.426287 18.3422418,24.6961083 18.2024532,24.9802818 C17.3873348,26.431767 16.2359683,27.5895107 14.7502426,28.4573401 C13.2607389,29.3242127 11.6597822,29.7576489 9.94831691,29.7576489 C8.71383285,29.7576489 7.52090756,29.5088776 6.36954102,29.010378 C5.219119,28.5128353 4.2009294,27.8315844 3.31780577,26.9637551 C2.43468213,26.0959257 1.73101678,25.0740494 1.21153228,23.8923854 C0.691103277,22.7135918 0.433250066,21.4400738 0.433250066,20.0756585 L0.433250066,12.2278784 C0.433250066,10.9476627 0.678824552,9.72581252 1.16997353,8.5594575 C1.6611225,7.3940593 2.34117492,6.36261491 3.21296435,5.46703797 C4.08097571,4.57146103 5.09066466,3.8615058 6.24203119,3.33430185 C7.39528676,2.8070979 8.62977082,2.54588796 9.94831691,2.54588796 C11.6333357,2.54588796 13.2172911,2.97932424 14.7077394,3.84523998 C16.1944095,4.71211253 17.3741116,5.91386963 18.2421229,7.45051126 C18.355465,7.64857155 18.4612509,7.89064523 18.5585362,8.17481868 C18.6558215,8.45994895 18.7077699,8.72785658 18.7077699,8.98523927 C18.7077699,9.78226448 18.4263038,10.4635153 17.864316,11.0337759 C17.3023283,11.6002091 16.6288875,11.8853394 15.8449381,11.8853394 C15.2253348,11.8853394 14.7219071,11.7207676 14.3280434,11.396408 C13.9351242,11.0682211 13.5837638,10.6625324 13.2758512,10.1793419 C12.937714,9.61290858 12.4796232,9.1565088 11.9072457,8.81396975 C11.3301457,8.47238752 10.6784287,8.30207481 9.94831691,8.30207481 C9.41560917,8.30207481 8.91784858,8.40158336 8.45314609,8.59964365 C7.98938812,8.80153118 7.5832457,9.07805013 7.23188528,9.43398456 C6.88146938,9.78896217 6.60094775,10.2070894 6.3903204,10.69028 C6.18158209,11.1772978 6.07485164,11.6882359 6.07485164,12.2278784 L6.07485164,20.0756585 C6.07485164,20.6162578 6.18158209,21.1271959 6.3903204,21.6094296 C6.60094775,22.0945338 6.88146938,22.5126611 7.23188528,22.8695523 C7.5832457,23.2245299 7.98938812,23.5020057 8.45314609,23.7010228 C8.91784858,23.8981263 9.41560917,23.9985916 9.94831691,23.9985916 C10.6784287,23.9985916 11.323534,23.8292357 11.8855218,23.4876535 C12.4475096,23.1470281 12.910323,22.6906283 13.2758512,22.1222814 C13.5837638,21.6400477 13.9058442,21.2420135 14.2430369,20.9281788 C14.579285,20.6162578 15.1280495,20.4583836 15.8846079,20.4583836" id="Fill-1"></path>
                        <path d="M23.5421871,2.62999182 C24.2996899,2.62999182 24.9381836,2.89981308 25.4586126,3.44041241 C25.9752635,3.98196855 26.2652303,4.6488672 26.3209568,5.44493559 L26.3209568,22.2924984 C26.3209568,22.8618022 26.5032487,23.3459495 26.8687768,23.7439837 C27.234305,24.1420179 27.698063,24.3419918 28.2591062,24.3419918 C28.9873291,24.3419918 29.6267672,24.5965041 30.1736427,25.108399 C30.7205182,25.620294 31.0076515,26.2604018 31.0369315,27.0277658 C31.0369315,27.7118871 30.8064693,28.3137225 30.3436558,28.8399696 C29.8789533,29.3671736 29.282963,29.6867491 28.5537956,29.8006098 L27.9625278,29.8006098 C26.9802299,29.8006098 26.0536585,29.5939382 25.1847026,29.180595 C24.3157467,28.7701223 23.5487987,28.2218684 22.8904702,27.5396608 C22.2302526,26.8555395 21.7107681,26.0613847 21.3320167,25.1524124 C20.9513762,24.2396128 20.7634173,23.2875839 20.7634173,22.2924984 L20.7634173,5.27557969 C20.8465348,4.56371084 21.1421687,3.95135054 21.6465409,3.44041241 C22.1528022,2.92851747 22.7846842,2.65869621 23.5421871,2.62999182" id="Fill-3"></path>
                        <path d="M67.3878115,9.24080402 C68.1179234,9.24080402 68.7280815,9.51158209 69.218286,10.0512246 C69.7075459,10.5899103 69.983345,11.246284 70.0409605,12.013648 L70.0409605,27.1150272 C70.0409605,27.8804776 69.8010531,28.5205854 69.3221829,29.0315236 C68.8470907,29.5434185 68.2010409,29.827592 67.3878115,29.8850007 C66.6576997,29.8850007 66.0409299,29.6563224 65.5356132,29.2027931 C65.0302965,28.7483069 64.7204948,28.108199 64.6080972,27.2834263 L64.6080972,11.8442921 C64.6657128,11.1037189 64.9594577,10.4932722 65.4921654,10.008168 C66.0248731,9.52402066 66.6576997,9.2685516 67.3878115,9.24080402 M67.3878115,2.71438273 C68.1179234,2.71438273 68.7422493,2.9928153 69.2598447,3.5458532 C69.7831073,4.09984791 70.0409605,4.74856711 70.0409605,5.48818354 C70.0409605,6.22684315 69.7831073,6.87364872 69.2598447,7.42764343 C68.7422493,7.98259496 68.1179234,8.25911391 67.3878115,8.25911391 C66.5736377,8.23136633 65.9049194,7.97015639 65.3882685,7.47070002 C64.866895,6.9750709 64.6080972,6.26894292 64.6080972,5.35805697 C64.6345437,4.62131098 64.923566,3.99459848 65.471386,3.48270354 C66.019206,2.97176542 66.6576997,2.71438273 67.3878115,2.71438273" id="Fill-5"></path>
                        <path d="M51.6295801,8.98514359 C52.9764617,8.98514359 54.2676168,9.23295815 55.5049344,9.73241452 C56.7365849,10.2309141 57.8190017,10.9246035 58.7446286,11.8220941 C59.6712,12.7167142 60.4164241,13.7759062 60.9774674,14.9987131 C61.5375661,16.2205633 61.8190322,17.5457493 61.8190322,18.9666165 L61.8190322,26.8555395 C61.8190322,27.5970696 61.55929,28.2362206 61.038861,28.7758631 C60.5193765,29.3164625 59.8827719,29.6015927 59.1243245,29.6293403 C58.3668217,29.6293403 57.7141602,29.3824826 57.1672848,28.8820694 C56.6204093,28.3845266 56.3464993,27.7520733 56.3464993,26.9847093 L56.3464993,19.307242 C56.3464993,18.6537387 56.225601,18.0346807 55.9866382,17.450068 C55.7486198,16.8711961 55.4114272,16.3640852 54.9769492,15.9383035 C54.5405823,15.5106081 54.0352655,15.1699827 53.460999,14.9145136 C52.8848435,14.6590445 52.2614621,14.5298748 51.5870768,14.5298748 C50.9693625,14.5298748 50.3809283,14.65139 49.8189405,14.8934637 C49.2569527,15.1345806 48.7658038,15.4531993 48.3454936,15.8521903 C47.9242389,16.2511813 47.5870462,16.7324582 47.3329711,17.301762 C47.082674,17.8710657 46.9551642,18.4690738 46.9551642,19.0929158 L46.9551642,26.8555395 C46.9551642,27.5970696 46.6755871,28.2429183 46.1135993,28.7978698 C45.550667,29.3518646 44.9074508,29.6293403 44.1754499,29.6293403 C43.4462826,29.6293403 42.8011773,29.3729144 42.240134,28.8610195 C41.6790908,28.3491246 41.3985692,27.7252825 41.3985692,26.9847093 L41.3985692,19.307242 C41.4269047,17.8863747 41.6979811,16.5506638 42.2174656,15.2972388 C42.7378946,14.0466842 43.4538387,12.9520902 44.3671869,12.0134567 C45.2777015,11.0738663 46.3506731,10.3352067 47.5870462,9.79556418 C48.8215303,9.25592166 50.1703009,8.98514359 51.6295801,8.98514359" id="Fill-7"></path>
                        <path d="M35.9140408,9.19679062 C36.6441526,9.19679062 37.2533663,9.46852551 37.7445152,10.008168 C38.2337752,10.5497242 38.5095742,11.2051411 38.5671898,11.9715482 L38.5671898,27.0691002 C38.5671898,27.837421 38.3272824,28.4775289 37.8512457,28.9903806 C37.375209,29.5003619 36.7272702,29.7854922 35.9140408,29.842901 C35.1829844,29.842901 34.5662147,29.6161363 34.0599534,29.1606933 C33.5555812,28.7052503 33.244835,28.0670561 33.133382,27.2403697 L33.133382,11.8002787 C33.1919421,11.0616191 33.4866315,10.4502156 34.0183947,9.96606825 C34.5511024,9.48383451 35.1829844,9.22740864 35.9140408,9.19679062 Z M38.1024873,1.47818036 C38.4670709,1.19400691 38.8751024,1.0236942 39.3237481,0.966285422 C39.7714493,0.91079027 40.2002601,0.952890041 40.6073471,1.09449836 C41.014434,1.23802031 41.3591828,1.47818036 41.6397044,1.81976259 C41.9192815,2.16134483 42.1044069,2.55842221 42.1875244,3.01386519 C42.2715865,3.72477723 42.110074,4.3572306 41.7039316,4.91122531 C41.2959001,5.46713365 40.7556363,5.80106138 40.0821955,5.91396531 L34.14496,6.76648567 C33.8361028,6.82389445 33.569749,6.77318336 33.3449539,6.61722285 C33.1201588,6.46317596 32.994538,6.22684315 32.967147,5.91396531 C32.8811959,5.48818354 33.0370412,5.1466013 33.4290159,4.89113224 L38.1024873,1.47818036 Z" id="Fill-9"></path>
                        <path d="M83.3255013,9.11364357 C86.131662,9.11364357 88.5184571,10.1087291 90.483053,12.0989001 C90.9619233,12.6394994 91.1791623,13.2796073 91.138548,14.0192237 C91.0951002,14.7569265 90.8211902,15.3692868 90.3158735,15.8515205 C89.8105567,16.3366247 89.1654515,16.5940074 88.3767796,16.6198414 C87.5928302,16.6495026 86.9467804,16.3930767 86.4433527,15.8515205 C85.5715633,15.056409 84.5325943,14.6583748 83.3255013,14.6583748 C82.680396,14.6583748 82.0692933,14.795199 81.4950268,15.0631066 C80.9179268,15.3338847 80.4116655,15.6888623 79.9781321,16.1299531 C79.5427097,16.5710439 79.1998499,17.0752843 78.9486083,17.6426744 C78.6945332,18.2138918 78.5679678,18.8109431 78.5679678,19.4338283 C78.5679678,20.0892452 78.6945332,20.7083032 78.9486083,21.2919591 C79.1998499,21.8746582 79.5502658,22.3855963 79.9989115,22.8266871 C80.4485017,23.2677779 80.9528739,23.615101 81.5158062,23.8705701 C82.0768495,24.1269959 82.680396,24.2398999 83.3255013,24.2121523 C84.5618744,24.2121523 85.5998988,23.8294271 86.4433527,23.0611063 C86.9467804,22.4937162 87.5928302,22.2095427 88.3767796,22.2095427 C89.1654515,22.2095427 89.8105567,22.4937162 90.3158735,23.0611063 C90.5680596,23.287871 90.7645192,23.5596059 90.9061968,23.8705701 C91.0440963,24.1844047 91.1224912,24.5097211 91.138548,24.8522602 C91.1508267,25.1919288 91.0998228,25.5296838 90.9893143,25.855957 C90.8759722,26.1822302 90.7078481,26.4721445 90.483053,26.7295272 C89.5007551,27.7255695 88.4221164,28.4776245 87.2414698,28.9904763 C86.0608232,29.5004576 84.7583339,29.7578403 83.3255013,29.7578403 C81.9228931,29.7578403 80.602458,29.4803645 79.367974,28.9244562 C78.1316009,28.3704615 77.0520176,27.6251042 76.1273353,26.6864707 C75.1998193,25.7478371 74.4630958,24.6541999 73.9162204,23.4026885 C73.3674558,22.1511772 73.0944903,20.8288616 73.0944903,19.4338283 C73.0944903,18.0703698 73.3674558,16.7624065 73.9162204,15.5099383 C74.4630958,14.2603406 75.2064309,13.1647897 76.1481146,12.2280698 C77.0869648,11.2894363 78.1759932,10.5345108 79.4095327,9.96616393 C80.6440168,9.39877384 81.9502841,9.11364357 83.3255013,9.11364357" id="Fill-11"></path>
                        <path d="M104.025919,24.2123437 C104.671969,24.2123437 105.283072,24.0917852 105.860172,23.8506684 C106.434438,23.6085947 106.932199,23.2746669 107.352509,22.8479284 C107.774708,22.4211898 108.110956,21.9169493 108.364087,21.3342502 C108.616273,20.7505943 108.742838,20.1181409 108.742838,19.4340197 C108.742838,18.8111344 108.616273,18.2064286 108.364087,17.6227727 C108.110956,17.0400736 107.768097,16.5281787 107.332674,16.0870879 C106.898196,15.6450403 106.39288,15.2977172 105.817669,15.0412913 C105.241513,14.7848654 104.643634,14.6585661 104.025919,14.6585661 C103.409149,14.6585661 102.820715,14.7848654 102.258727,15.0412913 C101.695795,15.2977172 101.199924,15.6450403 100.764501,16.0870879 C100.329079,16.5281787 99.9833854,17.0400736 99.7311993,17.6227727 C99.4799577,18.2064286 99.3543369,18.8111344 99.3543369,19.4340197 C99.3543369,20.0894366 99.4856248,20.7075377 99.7529232,21.2921505 C100.021166,21.8738928 100.371582,22.37909 100.805115,22.8048718 C101.238649,23.2325672 101.742077,23.5722358 102.300286,23.8296185 C102.860385,24.0841307 103.43654,24.2123437 104.025919,24.2123437 M105.248125,9.15689152 C106.511889,9.29754303 107.697258,9.66782965 108.806121,10.2639241 C109.914984,10.8619322 110.869891,11.6225986 111.669897,12.5459231 C112.468959,13.4711612 113.101786,14.5226987 113.563655,15.7043627 C114.026468,16.8831563 114.258819,18.1270132 114.258819,19.4340197 L114.258819,26.9851877 C114.258819,27.7525517 113.977353,28.4070117 113.417254,28.9466543 C112.856211,29.4862968 112.224329,29.7570748 111.523497,29.7570748 C110.53931,29.7570748 109.751583,29.3025887 109.164093,28.3917027 C109.022416,28.4500683 108.898684,28.513218 108.784397,28.584979 C108.672944,28.6538695 108.559602,28.7198896 108.449094,28.7763415 C107.774708,29.0901762 107.086155,29.3293794 106.384379,29.500649 C105.653322,29.6719185 104.884485,29.7570748 104.069367,29.7570748 C101.963094,29.7570748 100.08256,29.1801166 98.4277655,28.0300274 C96.7701377,26.8789814 95.5347091,25.3930509 94.7224243,23.5722358 C94.4409581,22.9196893 94.2237192,22.2508771 94.0688183,21.5696262 C93.914862,20.885505 93.8393007,20.1736361 93.8393007,19.4340197 C93.8393007,18.6944032 93.914862,17.984448 94.0688183,17.3012836 C94.2237192,16.6200327 94.4409581,15.9512204 94.7224243,15.2977172 C95.5347091,13.4491545 96.7701377,11.9584399 98.4277655,10.8207893 C100.08256,9.68313866 101.963094,9.11383494 104.069367,9.11383494 L104.678581,9.11383494 C104.862762,9.11383494 105.051665,9.12914395 105.248125,9.15689152" id="Fill-13"></path>
                        <path d="M131.420981,8.30236185 L131.420981,23.9548653 L134.326316,23.9548653 C134.858079,23.9548653 135.364341,23.8572704 135.840377,23.6582533 C136.318303,23.4592362 136.732002,23.1817604 137.083362,22.8267828 C137.434722,22.4718052 137.707688,22.058462 137.905092,21.5896236 C138.099663,21.1188716 138.199781,20.615588 138.199781,20.0749887 L138.199781,12.1851089 C138.199781,11.6454664 138.099663,11.1383555 137.905092,10.670474 C137.707688,10.2016356 137.434722,9.78924922 137.083362,9.43331479 C136.732002,9.07833718 136.318303,8.80086141 135.840377,8.59993069 C135.364341,8.4018704 134.858079,8.30236185 134.326316,8.30236185 L131.420981,8.30236185 Z M134.326316,2.50024798 C135.559856,2.50024798 136.760337,2.75093298 137.925871,3.24847573 C139.090461,3.74697529 140.114318,4.43683744 140.997442,5.31710538 C141.884343,6.19833013 142.592731,7.22403363 143.126383,8.38751821 C143.659091,9.55483004 143.92639,10.8206936 143.92639,12.1851089 L143.92639,20.0749887 C143.92639,21.3552044 143.665703,22.5770546 143.147163,23.7434096 C142.627678,24.9097646 141.932514,25.9402522 141.063558,26.8358292 C140.192713,27.7314061 139.175468,28.4423181 138.010878,28.9685653 C136.845344,29.4957692 135.616527,29.7569792 134.326316,29.7569792 L128.599708,29.7569792 C127.842205,29.7569792 127.175376,29.4804602 126.600165,28.9245519 C126.02401,28.3705572 125.735932,27.6816518 125.735932,26.8549654 L125.735932,5.40226173 C125.735932,4.66168849 126.007953,3.99383303 126.556717,3.39678174 C127.104537,2.79877363 127.785534,2.50024798 128.599708,2.50024798 L134.326316,2.50024798 Z" id="Fill-15"></path>
                        <path d="M159.840183,16.6201284 C159.362257,16.0221203 158.802159,15.5484979 158.157998,15.1916066 C157.511948,14.8347154 156.796004,14.6586618 156.010166,14.6586618 C155.196936,14.6586618 154.471547,14.8347154 153.841554,15.1916066 C153.211561,15.5484979 152.65524,16.0221203 152.180148,16.6201284 L159.840183,16.6201284 Z M156.010166,9.11393062 C157.357992,9.11393062 158.649147,9.39810407 159.88552,9.96645098 C161.119059,10.5347979 162.207143,11.2954642 163.147882,12.2465363 C164.086733,13.2014356 164.837624,14.2950729 165.398667,15.5331889 C165.960655,16.770348 166.242121,18.0697001 166.242121,19.4341154 C166.242121,20.1737318 165.966322,20.8291487 165.421336,21.3965388 C164.871626,21.9677561 164.192519,22.2347069 163.3774,22.2098298 L152.180148,22.2098298 C153.105775,23.5445839 154.380873,24.2124393 156.010166,24.2124393 C156.457867,24.2124393 156.835674,24.1693828 157.145475,24.0842264 C157.455277,23.9981132 157.729187,23.8986047 157.969094,23.7857008 C158.206168,23.6727968 158.443242,23.5723315 158.684094,23.4881319 C158.921168,23.4020188 159.196022,23.359919 159.504879,23.359919 C160.094258,23.3886234 160.606187,23.5598929 161.042554,23.8708571 C161.475142,24.1846918 161.798167,24.5750715 162.008795,25.0439098 C162.220367,25.5127482 162.291205,26.0189022 162.220367,26.5595016 C162.150472,27.0991441 161.905842,27.5966868 161.482699,28.0521298 C160.725196,28.6769287 159.88552,29.110365 158.957059,29.3514818 C158.030488,29.5935555 157.047246,29.729423 156.010166,29.7571705 C154.662339,29.8145793 153.37024,29.5658079 152.1367,29.0108564 C150.901272,28.4578185 149.813188,27.7038499 148.872449,26.751821 C147.932654,25.7978784 147.190263,24.6812777 146.640554,23.4020188 C146.094623,22.1227598 145.819769,20.8014011 145.819769,19.4341154 C145.819769,18.0974476 146.094623,16.8057501 146.640554,15.5532819 C147.190263,14.3036842 147.925098,13.2014356 148.852614,12.2465363 C149.779185,11.2954642 150.857824,10.5347979 152.095142,9.96645098 C153.329626,9.39810407 154.634004,9.11393062 156.010166,9.11393062 Z" id="Fill-17"></path>
                        <path d="M178.282449,8.98514359 C179.629331,8.98514359 180.922375,9.23295815 182.158748,9.73241452 C183.391343,10.2309141 184.472815,10.9246035 185.399387,11.8220941 C186.325014,12.7167142 187.068349,13.7759062 187.631281,14.9987131 C188.192324,16.2205633 188.474735,17.5457493 188.474735,18.9666165 L188.474735,26.8555395 C188.474735,27.5970696 188.213104,28.2362206 187.694564,28.7758631 C187.174135,29.3164625 186.535641,29.6015927 185.777194,29.6293403 C185.018746,29.6293403 184.368918,29.3824826 183.820154,28.8820694 C183.274223,28.3845266 182.999368,27.7520733 182.999368,26.9847093 L182.999368,19.307242 C182.999368,18.6537387 182.877526,18.0346807 182.642341,17.450068 C182.401489,16.8711961 182.065241,16.3640852 181.629818,15.9383035 C181.193451,15.5106081 180.690024,15.1699827 180.116702,14.9145136 C179.539602,14.6590445 178.91622,14.5298748 178.241835,14.5298748 C177.625065,14.5298748 177.034742,14.65139 176.47181,14.8934637 C175.912655,15.1345806 175.418673,15.4531993 175.000252,15.8521903 C174.577108,16.2511813 174.241804,16.7324582 173.988674,17.301762 C173.735543,17.8710657 173.609922,18.4690738 173.609922,19.0929158 L173.609922,26.8555395 C173.609922,27.5970696 173.329401,28.2429183 172.766468,28.7978698 C172.207314,29.3518646 171.561264,29.6293403 170.830208,29.6293403 C170.099152,29.6293403 169.454991,29.3729144 168.893948,28.8610195 C168.331015,28.3491246 168.051438,27.7252825 168.051438,26.9847093 L168.051438,19.307242 C168.078829,17.8863747 168.353684,16.5506638 168.873168,15.2972388 C169.391708,14.0466842 170.106708,12.9520902 171.021945,12.0134567 C171.931515,11.0738663 173.005431,10.3352067 174.241804,9.79556418 C175.476288,9.25592166 176.822226,8.98514359 178.282449,8.98514359" id="Fill-19"></path>
                        <path d="M193.566533,2.50024798 C194.352371,2.50024798 195.012589,2.77963737 195.545297,3.33458889 C196.080838,3.88858361 196.374583,4.57748895 196.431254,5.40226173 L196.431254,8.6449009 L204.514433,8.6449009 C205.328606,8.6449009 205.986935,8.92811754 206.493196,9.49646445 C206.999457,10.0657682 207.252588,10.7336236 207.252588,11.5019444 C207.252588,12.2415609 206.972066,12.9027186 206.410079,13.4844609 C205.847146,14.0681168 205.215264,14.3599448 204.514433,14.3599448 L196.431254,14.3599448 L196.431254,19.2215115 C196.431254,19.8769284 196.549318,20.4940728 196.788281,21.0758151 C197.0263,21.6604278 197.356881,22.1790204 197.777191,22.6354202 C198.198446,23.0899064 198.697151,23.4439272 199.274251,23.7013099 C199.847573,23.9558221 200.472843,24.084035 201.146284,24.084035 C201.876396,24.084035 202.498833,23.9845265 203.020206,23.7855094 C203.539691,23.5874491 203.996837,23.2879666 204.387867,22.8908893 C204.97819,22.3799511 205.629907,22.1158708 206.345851,22.1015186 C207.060851,22.0871664 207.728625,22.3655989 208.345394,22.932989 C208.627805,23.1884581 208.838433,23.4821997 208.978221,23.8065593 C209.11801,24.1337893 209.194516,24.4744147 209.209628,24.831306 C209.223796,25.1872404 209.173736,25.5345635 209.062283,25.8751889 C208.951775,26.217728 208.767594,26.5162536 208.514463,26.7717227 C207.531221,27.7390606 206.451637,28.4777202 205.271935,28.990572 C204.094122,29.5005533 202.831303,29.757936 201.482532,29.757936 C200.022308,29.757936 198.64898,29.5091646 197.356881,29.010665 C196.065726,28.5131223 194.928527,27.8041239 193.945284,26.8788857 C192.963931,25.9555612 192.18376,24.8447014 191.609493,23.5510902 C191.032393,22.2574791 190.731092,20.8136483 190.702757,19.2215115 L190.702757,5.18889244 C190.702757,4.42152843 190.990834,3.78142055 191.56699,3.27143924 C192.143145,2.7595443 192.810919,2.50024798 193.566533,2.50024798" id="Fill-21"></path>
                        <path d="M221.483535,1.47856309 C221.84623,1.19343282 222.254261,1.02407693 222.703851,0.965711334 C223.153442,0.910216182 223.581308,0.953272766 223.98745,1.09392427 C224.394537,1.23840303 224.739286,1.47856309 225.019808,1.82014532 C225.299385,2.16172755 225.482621,2.55784812 225.565739,3.01424791 C225.650745,3.72420314 225.488288,4.35665651 225.08309,4.91160804 C224.675059,5.46655956 224.13574,5.80048729 223.461354,5.91434803 L217.525063,6.76686839 C217.214317,6.82332036 216.949852,6.77260927 216.724113,6.61664876 C216.500262,6.46355868 216.372752,6.22626906 216.345361,5.91434803 C216.260355,5.48856626 216.4162,5.14698403 216.809119,4.89151497 L221.483535,1.47856309 Z M220.808205,24.2124393 C221.4552,24.2124393 222.065358,24.0909241 222.639624,23.850764 C223.21578,23.6086904 223.715429,23.2747626 224.13574,22.848024 C224.556994,22.4212855 224.892298,21.917045 225.145428,21.3343459 C225.398559,20.75069 225.52418,20.1182366 225.52418,19.4341154 C225.52418,18.8102733 225.398559,18.2065243 225.145428,17.6228684 C224.892298,17.0392125 224.548494,16.5282744 224.11496,16.0871836 C223.680482,15.645136 223.172332,15.2978129 222.59901,15.041387 C222.023799,14.7849611 221.42592,14.6586618 220.808205,14.6586618 C220.19238,14.6586618 219.602057,14.7849611 219.03818,15.041387 C218.479026,15.2978129 217.980321,15.645136 217.546787,16.0871836 C217.111365,16.5282744 216.766616,17.0392125 216.51443,17.6228684 C216.260355,18.2065243 216.134734,18.8102733 216.134734,19.4341154 C216.134734,20.0895322 216.267911,20.7076334 216.534265,21.2922461 C216.800619,21.8739884 217.152923,22.3791857 217.586457,22.8049675 C218.022824,23.2326629 218.521529,23.5723315 219.080683,23.8297142 C219.642671,24.0842264 220.218826,24.2124393 220.808205,24.2124393 Z M222.030411,9.15603039 C223.291341,9.29763871 224.479544,9.66792533 225.587463,10.2640198 C226.696326,10.8620279 227.651233,11.6226942 228.452183,12.5460188 C229.2503,13.4712569 229.883127,14.5227944 230.346885,15.7044584 C230.809698,16.883252 231.041105,18.1271088 231.041105,19.4341154 L231.041105,26.9852833 C231.041105,27.7516905 230.759639,28.4071074 230.198596,28.9457931 C229.638497,29.4863925 229.006615,29.7571705 228.303894,29.7571705 C227.320652,29.7571705 226.535758,29.3026844 225.946379,28.3917984 C225.805646,28.450164 225.679081,28.5133137 225.565739,28.5850746 C225.45523,28.6539652 225.341888,28.7190285 225.23138,28.7764372 C224.556994,29.0902719 223.868441,29.3294751 223.166665,29.5007447 C222.436553,29.6720142 221.664882,29.7571705 220.851653,29.7571705 C218.746324,29.7571705 216.864846,29.1802123 215.210051,28.0301231 C213.552424,26.8790771 212.316051,25.3921897 211.505655,23.5723315 C211.223244,22.919785 211.004116,22.2509727 210.85016,21.5697219 C210.697148,20.8856006 210.619698,20.1737318 210.619698,19.4341154 C210.619698,18.6944989 210.697148,17.9845437 210.85016,17.3013792 C211.004116,16.6201284 211.223244,15.9513161 211.505655,15.2978129 C212.316051,13.4492502 213.552424,11.9575788 215.210051,10.820885 C216.864846,9.68323434 218.746324,9.11393062 220.851653,9.11393062 L221.460867,9.11393062 C221.644103,9.11393062 221.833006,9.12828281 222.030411,9.15603039 Z" id="Fill-23"></path>
                        <path d="M235.96629,29.8003228 C235.207843,29.8003228 234.57785,29.5505946 234.070644,29.0549655 C233.565328,28.5574227 233.286695,27.8953082 233.228135,27.0695786 L233.228135,19.178742 C233.257415,17.8133699 233.545493,16.52837 234.092368,15.3189584 C234.639244,14.1124173 235.369356,13.0589662 236.282704,12.1633892 C237.194163,11.2678123 238.262412,10.5569003 239.481784,10.0306531 C240.703044,9.50440599 242.000811,9.21162122 243.377917,9.15612607 C244.162811,9.15612607 244.816417,9.42594733 245.336846,9.96654666 C245.853497,10.507146 246.142519,11.1596924 246.198246,11.9280133 C246.198246,12.6963341 245.931892,13.3440965 245.39824,13.8703436 C244.865532,14.3956339 244.20437,14.6731097 243.419476,14.6999004 C242.772482,14.6999004 242.171769,14.8214157 241.607892,15.0634894 C241.047793,15.3065199 240.553811,15.638534 240.13539,16.0662294 C239.71319,16.492968 239.377887,16.9972084 239.123812,17.5789507 C238.871626,18.1635634 238.74506,18.7960168 238.74506,19.4782244 L238.74506,27.2408481 C238.689334,27.9814213 238.415424,28.5909112 237.925219,29.0760154 C237.43407,29.5582491 236.778575,29.8003228 235.96629,29.8003228" id="Fill-25"></path>
                        <path d="M250.450651,9.24080402 C251.179819,9.24080402 251.789977,9.51158209 252.28207,10.0512246 C252.772275,10.5899103 253.047129,11.246284 253.100967,12.013648 L253.100967,27.1150272 C253.100967,27.8804776 252.864838,28.5205854 252.386912,29.0315236 C251.909931,29.5434185 251.26577,29.827592 250.450651,29.8850007 C249.721484,29.8850007 249.101881,29.6563224 248.599398,29.2027931 C248.095025,28.7483069 247.78239,28.108199 247.670937,27.2834263 L247.670937,11.8442921 C247.727608,11.1037189 248.022298,10.4932722 248.555005,10.008168 C249.088658,9.52402066 249.721484,9.2685516 250.450651,9.24080402 M250.450651,2.71438273 C251.179819,2.71438273 251.804145,2.9928153 252.324574,3.5458532 C252.845003,4.09984791 253.100967,4.74856711 253.100967,5.48818354 C253.100967,6.22684315 252.845003,6.87364872 252.324574,7.42764343 C251.804145,7.98259496 251.179819,8.25911391 250.450651,8.25911391 C249.638367,8.23136633 248.970593,7.97015639 248.452053,7.47070002 C247.930679,6.9750709 247.670937,6.26894292 247.670937,5.35805697 C247.699273,4.62131098 247.98735,3.99459848 248.533281,3.48270354 C249.082046,2.97176542 249.721484,2.71438273 250.450651,2.71438273" id="Fill-27"></path>
                        <path d="M265.441179,24.2123437 C266.08534,24.2123437 266.696443,24.0917852 267.271654,23.8506684 C267.84592,23.6085947 268.346514,23.2746669 268.764936,22.8479284 C269.187135,22.4211898 269.522438,21.9169493 269.777458,21.3342502 C270.0287,20.7505943 270.156209,20.1181409 270.156209,19.4340197 C270.156209,18.8111344 270.0287,18.2064286 269.777458,17.6227727 C269.522438,17.0400736 269.179579,16.5281787 268.744156,16.0870879 C268.310623,15.6450403 267.805306,15.2977172 267.230095,15.0412913 C266.654884,14.7848654 266.05606,14.6585661 265.441179,14.6585661 C264.821576,14.6585661 264.231253,14.7848654 263.670209,15.0412913 C263.109166,15.2977172 262.609517,15.6450403 262.175983,16.0870879 C261.737727,16.5281787 261.397701,17.0400736 261.142681,17.6227727 C260.89144,18.2064286 260.764874,18.8111344 260.764874,19.4340197 C260.764874,20.0894366 260.898051,20.7075377 261.166294,21.2921505 C261.430759,21.8738928 261.783064,22.37909 262.216597,22.8048718 C262.65202,23.2325672 263.150725,23.5722358 263.712713,23.8296185 C264.273756,24.0841307 264.849911,24.2123437 265.441179,24.2123437 M266.659607,9.15689152 C267.92526,9.29754303 269.109684,9.66782965 270.216659,10.2639241 C271.327411,10.8619322 272.283262,11.6225986 273.081379,12.5459231 C273.88233,13.4711612 274.512323,14.5226987 274.977026,15.7043627 C275.439839,16.8831563 275.67219,18.1270132 275.67219,19.4340197 L275.67219,26.9851877 C275.67219,27.7525517 275.391669,28.4070117 274.830625,28.9466543 C274.267693,29.4862968 273.635811,29.7570748 272.934979,29.7570748 C271.949848,29.7570748 271.164954,29.3025887 270.575575,28.3917027 C270.436731,28.4500683 270.31111,28.513218 270.197768,28.584979 C270.085371,28.6538695 269.972029,28.7198896 269.860576,28.7763415 C269.187135,29.0901762 268.497637,29.3293794 267.795861,29.500649 C267.067638,29.6719185 266.295967,29.7570748 265.480849,29.7570748 C263.377409,29.7570748 261.496875,29.1801166 259.839247,28.0300274 C258.18162,26.8789814 256.949969,25.3930509 256.134851,23.5722358 C255.85244,22.9196893 255.635201,22.2508771 255.482189,21.5696262 C255.327289,20.885505 255.251727,20.1736361 255.251727,19.4340197 C255.251727,18.6944032 255.327289,17.984448 255.482189,17.3012836 C255.635201,16.6200327 255.85244,15.9512204 256.134851,15.2977172 C256.949969,13.4491545 258.18162,11.9584399 259.839247,10.8207893 C261.496875,9.68313866 263.377409,9.11383494 265.480849,9.11383494 L266.092896,9.11383494 C266.275188,9.11383494 266.462202,9.12914395 266.659607,9.15689152" id="Fill-29"></path>
                        <g id="Group" transform="translate(54.440367, 38.064516)">
                            <path d="M9.40707735,3.98265671 C9.40707735,3.06213058 8.73639663,2.36024218 7.78534113,2.36024218 L5.40417246,2.36024218 C5.2528911,2.36024218 5.16615645,2.42665083 5.14396851,2.57990158 L3.43549765,12.4431194 L3.43549765,12.5085064 C3.43549765,12.6188469 3.47886497,12.6627788 3.60896694,12.6627788 L5.98811852,12.6627788 C7.07028455,12.6627788 8.08689531,11.7851629 8.281544,10.6899309 L9.38589796,4.33309008 C9.40707735,4.22377122 9.40707735,4.09197558 9.40707735,3.98265671 Z M10.2724067,10.4702715 C9.86092144,12.9028716 8.08689531,14.4159673 5.6855558,14.4159673 L1.35790025,14.4159673 C1.22880682,14.4159673 1.18543949,14.3720354 1.18543949,14.2627166 L1.18543949,14.1973296 L3.5010529,0.826713073 C3.52223229,0.672440658 3.60896694,0.607053674 3.75923976,0.607053674 L8.08689531,0.607053674 C10.1644927,0.607053674 11.3757522,1.76869431 11.3757522,3.67615523 C11.3757522,3.96120161 11.3323848,4.24522632 11.2890175,4.55274948 L10.2724067,10.4702715 Z" id="Fill-32"></path>
                            <path d="M18.3628332,6.48146117 C18.3416538,6.61223514 18.2760986,6.70009889 18.1893639,6.70009889 C17.9947152,6.70009889 17.6699646,6.54684815 17.1505652,6.54684815 C15.9604852,6.54684815 15.0951558,7.29164676 14.8783192,8.49824095 L13.8838963,14.1971253 C13.8617084,14.350376 13.7749737,14.415763 13.6236924,14.415763 L12.1088617,14.415763 C11.9787597,14.415763 11.9353924,14.3718311 11.9353924,14.2625122 L11.9353924,14.1971253 L13.5803251,4.77118287 C13.6015044,4.61793213 13.6670597,4.55254514 13.8183411,4.55254514 L15.1163352,4.55254514 C15.2464371,4.55254514 15.3119924,4.61793213 15.3119924,4.72827266 L15.3119924,4.77118287 L15.1818904,5.47307128 L15.1818904,5.53845826 C15.1818904,5.6487988 15.2464371,5.73666255 15.3331718,5.73666255 C15.5711878,5.73666255 16.4143293,4.55254514 17.5176747,4.55254514 C18.3416538,4.55254514 18.643208,4.55254514 18.643208,4.79365965 L18.643208,4.83759153 L18.3628332,6.48146117 Z" id="Fill-34"></path>
                            <path d="M24.7007155,7.94960329 C24.7007155,7.02907716 24.0300348,6.30573365 23.0789793,6.30573365 C21.9524374,6.30573365 20.9570061,7.22625978 20.7845453,8.27858155 L20.3740685,10.6897266 C20.3518806,10.7990454 20.3518806,10.9083643 20.3518806,11.0187048 C20.3518806,11.939231 21.0225613,12.6625745 21.9746254,12.6625745 C23.1001587,12.6625745 24.0945815,11.7635035 24.2680508,10.6897266 L24.6795362,8.27858155 C24.7007155,8.16926269 24.7007155,8.05892215 24.7007155,7.94960329 Z M25.6094123,14.1971253 C25.5882329,14.350376 25.5014982,14.415763 25.3502169,14.415763 L24.0512142,14.415763 C23.9221208,14.415763 23.8787535,14.3718311 23.8787535,14.2625122 L23.8787535,14.1971253 L23.9221208,13.933534 L23.9221208,13.868147 C23.9221208,13.7588281 23.8565655,13.6709644 23.7698309,13.6709644 C23.5540028,13.6709644 22.8621427,14.415763 21.5207813,14.415763 C19.6156446,14.415763 18.3610179,13.2316456 18.3610179,11.4130701 C18.3610179,11.1719556 18.3821972,10.9308411 18.4255646,10.6897266 L18.8380584,8.27858155 C19.2051679,6.08709592 21.0437407,4.55254514 23.2514401,4.55254514 C24.4848875,4.55254514 24.9820989,5.27588865 25.2634822,5.27588865 C25.3502169,5.27588865 25.4147636,5.20948 25.4581309,5.03477415 L25.5226776,4.77118287 C25.5660449,4.61793213 25.5882329,4.55254514 25.7617022,4.55254514 L27.0596963,4.55254514 C27.1897983,4.55254514 27.254345,4.61793213 27.254345,4.72827266 L27.254345,4.77118287 L25.6094123,14.1971253 Z" id="Fill-36"></path>
                            <path d="M28.789044,14.6349115 C28.1819014,14.6349115 27.7936126,14.2405463 27.7936126,13.6489984 C27.7936126,12.881723 28.4421054,12.2237665 29.2217087,12.2237665 C29.8056547,12.2237665 30.2171401,12.6181318 30.2171401,13.2321564 C30.2171401,13.976955 29.5666302,14.6349115 28.789044,14.6349115" id="Fill-38"></path>
                            <path d="M47.0471918,14.1969209 C47.0260124,14.3501717 46.9392777,14.4155587 46.7879964,14.4155587 L45.2731657,14.4155587 C45.1430637,14.4155587 45.0996964,14.3716268 45.0996964,14.2623079 L45.0996964,14.1969209 L47.0905591,4.48695383 L42.6549895,12.3119368 C42.5904428,12.3773238 42.5258961,12.4212556 42.4391614,12.4437324 L41.5728235,12.4437324 C41.4649095,12.4212556 41.4215421,12.3773238 41.3993542,12.3119368 L39.7130713,4.55234081 L38.2416079,14.1969209 C38.2194199,14.3501717 38.1326853,14.4155587 37.9824125,14.4155587 L36.4887611,14.4155587 C36.3586592,14.4155587 36.3152918,14.3716268 36.3152918,14.2623079 L36.3152918,14.1969209 L38.6298967,0.826304404 C38.6520846,0.673053661 38.7388193,0.606645006 38.8901006,0.606645006 L40.2748294,0.606645006 C40.383752,0.650576885 40.4482987,0.694508765 40.4482987,0.738440645 L42.3736062,9.68113235 L47.5454117,0.738440645 C47.610967,0.650576885 47.6755137,0.606645006 47.7622484,0.606645006 L49.2327032,0.606645006 C49.3628052,0.606645006 49.4061725,0.650576885 49.4061725,0.760917421 L49.4061725,0.826304404 L47.0471918,14.1969209 Z" id="Fill-40"></path>
                            <path d="M55.8936217,7.94960329 C55.8936217,7.02907716 55.2239495,6.30573365 54.2718854,6.30573365 C53.1453436,6.30573365 52.1509207,7.22625978 51.9774514,8.27858155 L51.5669747,10.6897266 C51.5447867,10.7990454 51.5447867,10.9083643 51.5447867,11.0187048 C51.5447867,11.939231 52.216476,12.6625745 53.1675315,12.6625745 C54.2930648,12.6625745 55.2884962,11.7635035 55.4619655,10.6897266 L55.8724423,8.27858155 C55.8936217,8.16926269 55.8936217,8.05892215 55.8936217,7.94960329 Z M56.8033269,14.1971253 C56.7821475,14.350376 56.6954129,14.415763 56.5441315,14.415763 L55.2451289,14.415763 C55.1160355,14.415763 55.0726681,14.3718311 55.0726681,14.2625122 L55.0726681,14.1971253 L55.1160355,13.933534 L55.1160355,13.868147 C55.1160355,13.7588281 55.0504802,13.6709644 54.9637456,13.6709644 C54.7469089,13.6709644 54.0560574,14.415763 52.7146959,14.415763 C50.8095593,14.415763 49.5549325,13.2316456 49.5549325,11.4130701 C49.5549325,11.1719556 49.5761119,10.9308411 49.6194792,10.6897266 L50.0309645,8.27858155 C50.398074,6.08709592 52.2376554,4.55254514 54.4443462,4.55254514 C55.6777936,4.55254514 56.175005,5.27588865 56.4573969,5.27588865 C56.5441315,5.27588865 56.6086783,5.20948 56.6520456,5.03477415 L56.7165923,4.77118287 C56.7599596,4.61793213 56.7821475,4.55254514 56.9546083,4.55254514 L58.2536109,4.55254514 C58.3827044,4.55254514 58.4472511,4.61793213 58.4472511,4.72827266 L58.4472511,4.77118287 L56.8033269,14.1971253 Z" id="Fill-42"></path>
                            <path d="M65.8234278,6.48146117 C65.8022484,6.61223514 65.7366932,6.70009889 65.6499585,6.70009889 C65.4553098,6.70009889 65.1305592,6.54684815 64.6121684,6.54684815 C63.4220883,6.54684815 62.5557504,7.29164676 62.3399223,8.49824095 L61.3444909,14.1971253 C61.322303,14.350376 61.2355683,14.415763 61.0852955,14.415763 L59.5704648,14.415763 C59.4403628,14.415763 59.3969955,14.3718311 59.3969955,14.2625122 L59.3969955,14.1971253 L61.0419282,4.77118287 C61.0631076,4.61793213 61.1276543,4.55254514 61.2789357,4.55254514 L62.5769298,4.55254514 C62.7070317,4.55254514 62.772587,4.61793213 62.772587,4.72827266 L62.772587,4.77118287 L62.642485,5.47307128 L62.642485,5.53845826 C62.642485,5.6487988 62.7070317,5.73666255 62.7937664,5.73666255 C63.0317824,5.73666255 63.8749239,4.55254514 64.9792778,4.55254514 C65.8022484,4.55254514 66.1048112,4.55254514 66.1048112,4.79365965 L66.1048112,4.83759153 L65.8234278,6.48146117 Z" id="Fill-44"></path>
                            <path d="M68.7426539,2.79884581 C68.1597164,2.79884581 67.7482311,2.38200378 67.7482311,1.79045591 C67.7482311,1.0456573 68.4189118,0.387700777 69.1763271,0.387700777 C69.7814526,0.387700777 70.17075,0.782066023 70.17075,1.39609067 C70.17075,2.16336606 69.5222572,2.79884581 68.7426539,2.79884581 Z M67.7482311,14.1966144 C67.7260431,14.3498652 67.6393085,14.4162738 67.4880271,14.4162738 L65.9731964,14.4162738 C65.8430944,14.4162738 65.7997271,14.3723419 65.7997271,14.2620014 L65.7997271,14.1966144 L67.4446598,4.77169371 C67.4658392,4.61844296 67.5313944,4.55203431 67.6826758,4.55203431 L69.1975065,4.55203431 C69.3276085,4.55203431 69.3931637,4.59596619 69.3931637,4.72776183 L69.3931637,4.77169371 L67.7482311,14.1966144 Z" id="Fill-46"></path>
                            <path d="M76.3362724,7.94960329 C76.3362724,7.02907716 75.6655917,6.30573365 74.7135276,6.30573365 C73.5879943,6.30573365 72.5935714,7.22625978 72.4201021,8.27858155 L72.0086168,10.6897266 C71.9874374,10.7990454 71.9874374,10.9083643 71.9874374,11.0187048 C71.9874374,11.939231 72.6591267,12.6625745 73.6101822,12.6625745 C74.734707,12.6625745 75.7301384,11.7635035 75.9036077,10.6897266 L76.315093,8.27858155 C76.3362724,8.16926269 76.3362724,8.05892215 76.3362724,7.94960329 Z M77.2449691,14.1971253 C77.2237897,14.350376 77.1370551,14.415763 76.9867822,14.415763 L75.686771,14.415763 C75.5586862,14.415763 75.5153188,14.3718311 75.5153188,14.2625122 L75.5153188,14.1971253 L75.5586862,13.933534 L75.5586862,13.868147 C75.5586862,13.7588281 75.4931309,13.6709644 75.4063963,13.6709644 C75.1895596,13.6709644 74.4976995,14.415763 73.1563381,14.415763 C71.25221,14.415763 69.9975832,13.2316456 69.9975832,11.4130701 C69.9975832,11.1719556 70.0187626,10.9308411 70.0621299,10.6897266 L70.4726067,8.27858155 C70.8407247,6.08709592 72.6803061,4.55254514 74.8869969,4.55254514 C76.1194357,4.55254514 76.6176557,5.27588865 76.9000476,5.27588865 C76.9867822,5.27588865 77.0503204,5.20948 77.0936877,5.03477415 L77.1582344,4.77118287 C77.2016018,4.61793213 77.2237897,4.55254514 77.3962505,4.55254514 L78.6952531,4.55254514 C78.8243465,4.55254514 78.8888932,4.61793213 78.8888932,4.72827266 L78.8888932,4.77118287 L77.2449691,14.1971253 Z" id="Fill-48"></path>
                            <path d="M90.4833995,10.6899309 C90.3109388,11.6543889 89.77036,12.640302 88.8616633,13.4739861 C88.0175133,14.2412615 87.0654493,14.634605 86.0488385,14.634605 C85.3347905,14.634605 84.5985545,14.4159673 83.9490532,13.9991253 C83.1059117,13.4515093 82.673247,12.8814165 82.673247,12.3991875 C82.673247,12.3113238 82.7377937,12.2673919 82.8678957,12.2020049 L84.3393591,11.5225933 C84.3827264,11.5001165 84.4260937,11.5001165 84.4482817,11.5001165 C84.5118198,11.5001165 84.5551872,11.5440484 84.5985545,11.6319121 C85.0090313,12.3552557 85.2258679,12.8814165 86.2001199,12.8814165 C87.3034653,12.8814165 88.2988966,11.9833672 88.4935453,10.9085686 L90.2463921,0.826713073 C90.2897594,0.672440658 90.376494,0.607053674 90.5045789,0.607053674 L92.0194097,0.607053674 C92.1495116,0.607053674 92.192879,0.650985554 92.192879,0.760304418 L92.192879,0.826713073 L90.4833995,10.6899309 Z" id="Fill-50"></path>
                            <path d="M98.8334248,7.70869312 C98.8334248,6.78816699 98.1637527,6.08730026 97.1461334,6.08730026 C96.1073347,6.08730026 95.0907239,7.00680472 94.9172546,8.05912649 L94.4200432,10.9085686 C94.3988638,11.0403643 94.3988638,11.1496831 94.3988638,11.2600237 C94.3988638,12.1795281 95.0695445,12.8814165 96.0206,12.8814165 C97.1461334,12.8814165 98.1203853,11.9833672 98.315034,10.9085686 L98.8122455,8.05912649 C98.8334248,7.94980762 98.8334248,7.81801198 98.8334248,7.70869312 Z M100.261521,10.9085686 C99.8722235,13.122531 98.0981974,14.634605 95.7180373,14.634605 C93.6414484,14.634605 92.408001,13.4739861 92.408001,11.675844 C92.408001,11.4347295 92.4291804,11.1721599 92.4725478,10.9085686 L92.9707677,8.05912649 C93.3590566,5.82370898 95.1340912,4.33309008 97.5132428,4.33309008 C99.5918487,4.33309008 100.825296,5.49473071 100.825296,7.2918511 C100.825296,7.53398727 100.803108,7.79655688 100.759741,8.05912649 L100.261521,10.9085686 Z" id="Fill-52"></path>
                            <path d="M111.056152,1.52778414 C111.056152,1.57171602 111.034973,1.6156479 111.012785,1.65855811 C110.343113,2.666948 109.563509,3.149177 108.892829,3.149177 C108.416797,3.149177 108.027499,2.97447116 107.617023,2.58010591 L107.248905,2.29505953 C107.00988,2.09787691 106.772873,2.01001315 106.512669,2.01001315 C105.798621,2.01001315 105.47387,2.71087988 105.193495,2.71087988 C105.150128,2.71087988 105.12794,2.68942477 105.084573,2.666948 L104.674096,2.31651463 C104.60854,2.27258275 104.587361,2.22967254 104.587361,2.18574066 C104.587361,2.09787691 104.78201,1.81283052 105.193495,1.3959885 C105.734074,0.848372512 106.253473,0.584781233 106.750685,0.584781233 C107.248905,0.584781233 107.617023,0.739053648 108.027499,1.11094212 L108.394609,1.43992038 C108.568078,1.59317112 108.828282,1.70248999 109.131853,1.70248999 C109.909439,1.70248999 110.320925,0.979146479 110.473215,0.979146479 C110.537761,0.979146479 110.58012,0.979146479 110.623488,1.02307836 L110.991605,1.3745334 C111.034973,1.41846528 111.056152,1.48385226 111.056152,1.52778414 Z M108.524711,7.95001196 C108.524711,7.02948583 107.85403,6.30614232 106.901966,6.30614232 C105.777441,6.30614232 104.78201,7.22666845 104.60854,8.27796855 L104.197055,10.6901352 C104.175876,10.7994541 104.175876,10.908773 104.175876,11.0191135 C104.175876,11.938618 104.847565,12.6619615 105.798621,12.6619615 C106.923145,12.6619615 107.919585,11.7639121 108.093055,10.6901352 L108.503531,8.27796855 C108.524711,8.16864968 108.524711,8.05933082 108.524711,7.95001196 Z M109.434416,14.1965123 C109.412228,14.349763 109.325493,14.4161717 109.175221,14.4161717 L107.876218,14.4161717 C107.747125,14.4161717 107.703757,14.3722398 107.703757,14.2618992 L107.703757,14.1965123 L107.747125,13.9339426 L107.747125,13.8685557 C107.747125,13.7582151 107.681569,13.6703514 107.594835,13.6703514 C107.379007,13.6703514 106.686138,14.4161717 105.344776,14.4161717 C103.440648,14.4161717 102.186022,13.2320542 102.186022,11.4134788 C102.186022,11.1713426 102.20821,10.9312498 102.251577,10.6901352 L102.661045,8.27796855 C103.029163,6.08648292 104.868744,4.55193214 107.075435,4.55193214 C108.307874,4.55193214 108.807103,5.27527565 109.088486,5.27527565 C109.175221,5.27527565 109.238759,5.20988867 109.282126,5.03518282 L109.347681,4.77159154 C109.391049,4.6183408 109.412228,4.55193214 109.584689,4.55193214 L110.883691,4.55193214 C111.012785,4.55193214 111.077332,4.6183408 111.077332,4.72765966 L111.077332,4.77159154 L109.434416,14.1965123 Z" id="Fill-54"></path>
                            <path d="M118.713813,7.70869312 C118.713813,6.78816699 118.043132,6.08730026 117.026522,6.08730026 C115.987723,6.08730026 114.970104,7.00680472 114.796634,8.05912649 L114.300431,10.9085686 C114.279252,11.0403643 114.279252,11.1496831 114.279252,11.2600237 C114.279252,12.1795281 114.948924,12.8814165 115.900988,12.8814165 C117.026522,12.8814165 117.999765,11.9833672 118.194414,10.9085686 L118.692634,8.05912649 C118.713813,7.94980762 118.713813,7.81801198 118.713813,7.70869312 Z M120.141909,10.9085686 C119.752612,13.122531 117.978586,14.634605 115.598426,14.634605 C113.520828,14.634605 112.287381,13.4739861 112.287381,11.675844 C112.287381,11.4347295 112.30856,11.1721599 112.351928,10.9085686 L112.851156,8.05912649 C113.239445,5.82370898 115.013471,4.33309008 117.393631,4.33309008 C119.471229,4.33309008 120.704676,5.49473071 120.704676,7.2918511 C120.704676,7.53398727 120.682488,7.79655688 120.639121,8.05912649 L120.141909,10.9085686 Z" id="Fill-56"></path>
                            <path d="M130.848797,5.07870603 C130.848797,4.94691039 130.784251,4.61793213 130.762063,4.11424802 L130.675328,4.11424802 C130.480679,4.50861327 130.350577,4.83759153 130.241655,5.10016113 L128.468637,9.19910768 C128.446449,9.24303956 128.446449,9.28697144 128.446449,9.33090332 C128.446449,9.41876708 128.512005,9.48415406 128.641098,9.48415406 L130.913344,9.48415406 C131.064625,9.48415406 131.172539,9.39629031 131.172539,9.24303956 L131.172539,9.19910768 L130.848797,5.07870603 Z M133.790716,14.1971253 C133.790716,14.350376 133.704989,14.415763 133.53152,14.415763 L131.908775,14.415763 C131.778673,14.415763 131.713118,14.3718311 131.713118,14.2625122 L131.431735,11.3691382 C131.431735,11.2812744 131.367188,11.2373426 131.238095,11.2373426 L127.732401,11.2373426 C127.602299,11.2373426 127.537753,11.2598193 127.494385,11.3691382 L126.174203,14.2625122 C126.130836,14.3718311 126.044101,14.415763 125.936187,14.415763 L124.314451,14.415763 C124.184349,14.415763 124.097614,14.350376 124.097614,14.2625122 C124.097614,14.2185804 124.118794,14.1746485 124.140982,14.1307166 L130.501859,0.760100083 C130.545226,0.65078122 130.610781,0.60684934 130.740883,0.60684934 L131.908775,0.60684934 C132.016689,0.60684934 132.082245,0.65078122 132.103424,0.760100083 L133.790716,14.1307166 L133.790716,14.1971253 Z" id="Fill-58"></path>
                            <path d="M136.925669,14.1969209 C136.904489,14.3501717 136.817755,14.4155587 136.666473,14.4155587 L135.151643,14.4155587 C135.021541,14.4155587 134.978173,14.3716268 134.978173,14.2623079 L134.978173,14.1969209 L137.293787,0.826304404 C137.315975,0.673053661 137.402709,0.606645006 137.553991,0.606645006 L139.068822,0.606645006 C139.197915,0.606645006 139.241282,0.650576885 139.241282,0.760917421 L139.241282,0.826304404 L136.925669,14.1969209 Z" id="Fill-60"></path>
                            <path d="M143.567828,14.2841717 C143.481094,14.3495587 143.37318,14.3934905 143.286445,14.4159673 L142.031818,14.4159673 C141.922896,14.3934905 141.879528,14.3281036 141.858349,14.2841717 L139.738393,4.85925097 C139.738393,4.81531909 139.717213,4.79284231 139.717213,4.77138721 C139.717213,4.61813646 139.824119,4.55274948 139.9754,4.55274948 L141.598145,4.55274948 L141.771614,4.68454512 L143.156343,11.8515715 L146.964599,4.68454512 C147.030155,4.61813646 147.115881,4.57420458 147.180427,4.55274948 L148.803172,4.55274948 C148.933274,4.55274948 148.998829,4.61813646 148.998829,4.70600022 C148.998829,4.7499321 148.998829,4.79284231 148.955462,4.85925097 L143.567828,14.2841717 Z" id="Fill-62"></path>
                            <path d="M154.925731,7.68672718 C154.925731,6.81013293 154.189495,6.08678942 153.280798,6.08678942 C152.112906,6.08678942 150.988381,7.18304307 150.988381,8.12502431 C150.988381,8.23536484 151.03074,8.27827505 151.160842,8.27827505 L154.622159,8.27827505 C154.838996,8.27827505 154.925731,8.1035692 154.925731,7.68672718 Z M156.569655,9.5941881 C156.548475,9.74743884 156.461741,9.81282583 156.310459,9.81282583 L150.901646,9.81282583 C150.749356,9.81282583 150.662622,9.87923448 150.641442,10.0324852 L150.490161,10.9090795 C150.467973,11.0183983 150.467973,11.150194 150.467973,11.2595128 C150.467973,12.1575622 151.138654,12.8809057 152.090718,12.8809057 C152.632305,12.8809057 153.129517,12.6847448 153.518814,12.2893578 C153.994846,11.8296056 154.189495,11.4781506 154.318588,11.4781506 C154.361955,11.4781506 154.405323,11.5006273 154.44869,11.5220824 L155.703317,12.2239709 C155.746684,12.245426 155.790052,12.2893578 155.790052,12.3332897 C155.790052,12.5744042 155.315028,13.2762926 154.254041,13.9996361 C153.692283,14.3715246 152.803757,14.6351159 151.788155,14.6351159 C149.710558,14.6351159 148.47711,13.4734752 148.47711,11.6763549 C148.47711,11.4352404 148.499298,11.1716491 148.542666,10.9090795 L149.039877,8.05963732 C149.147791,7.42415757 149.47355,6.70081406 149.948574,6.1307213 C150.901646,4.96908067 152.243008,4.33360092 153.584369,4.33360092 C155.552035,4.33360092 156.873226,5.73635605 156.873226,7.46808945 C156.873226,7.66527208 156.873226,7.8624547 156.829859,8.05963732 L156.569655,9.5941881 Z" id="Fill-64"></path>
                            <path d="M166.002048,6.52539305 C166.002048,6.59078003 165.958681,6.65616701 165.850766,6.70009889 L164.487217,7.33557864 C164.42267,7.35805542 164.379303,7.37951052 164.357115,7.37951052 C164.292568,7.37951052 164.292568,7.33557864 164.227013,7.24873656 C163.794348,6.52539305 163.491786,6.02068727 162.58208,6.02068727 L161.934596,6.02068727 C160.786875,6.02068727 160.138382,6.56830326 160.138382,7.33557864 C160.138382,8.19071779 161.002703,8.27858155 162.604268,8.65149169 C164.400482,9.06731204 165.265812,9.54954105 165.265812,10.8215222 C165.265812,12.903689 163.535153,14.6344007 161.06725,14.6344007 L160.419766,14.6344007 C158.406715,14.6344007 157.28219,13.4737817 157.28219,12.4429151 C157.28219,12.3775281 157.324549,12.3121411 157.433471,12.2682092 L158.796012,11.6327295 C158.861567,11.6102527 158.882747,11.5887976 158.926114,11.5887976 C158.991669,11.5887976 159.012849,11.6327295 159.078404,11.7195716 C159.51006,12.3775281 159.748076,12.9476209 160.722328,12.9476209 L161.370821,12.9476209 C162.474166,12.9476209 163.23259,12.2896643 163.23259,11.522389 C163.23259,10.6682715 162.366252,10.6243396 160.722328,10.2514295 C158.969482,9.85706421 158.125331,9.3748352 158.125331,8.10285403 C158.125331,6.02068727 159.878178,4.33288575 162.214971,4.33288575 L162.864472,4.33288575 C164.810959,4.33288575 166.002048,5.40768429 166.002048,6.52539305" id="Fill-67"></path>
                        </g>
                    </g>
                    <g id="dente" transform="translate(102.550459, 0.000000)">
                        <path d="M29.978411,9.10828542 C33.3116124,9.22788704 34.2013477,8.04335258 34.2013477,8.04335258 C34.2013477,8.04335258 30.7368584,3.86112307 25.435283,3.69463762 C19.9684171,3.52719535 15.200494,6.8865657 14.9039156,16.1781765 C14.4977732,29.267378 17.6477382,40.7539177 18.0491581,42.4111178 C18.4656902,44.0711883 19.4139855,51.6740242 22.8595844,51.7859713 C27.0211275,51.9285364 27.8485246,44.9418881 28.4076788,43.2110134 C28.966833,41.4705706 31.4896386,34.3231777 34.2570742,34.4045068 C37.0811808,34.5049722 38.7227518,39.3340073 39.6559348,41.9116614 C40.8375259,45.1399484 40.9310331,51.378369 44.9650663,51.5123228 C47.2507981,51.5697316 49.3400702,48.9097915 50.4347657,43.6358384 C52.4881463,33.8897414 54.6142546,28.755483 54.9372795,18.3769327 C55.2829728,7.09515093 52.6543813,3.24876277 46.2798343,3.04304798 C41.2483909,2.88900109 38.0426993,5.82546011 36.3378457,8.2729877 C35.3810497,9.75030693 33.3408924,11.0793201 30.796363,11.0037319 C28.5758029,10.9530208 27.4187692,10.1368594 27.4253809,9.59051916 C27.4338815,8.96763392 28.3736762,8.93318865 28.61075,8.93318865 C28.8431013,8.96189304 29.3219715,9.08340828 29.978411,9.10828542 M22.7726889,57.2838186 C18.2815093,57.1450808 17.6779628,53.8632123 17.3738282,52.8308111 C17.031913,51.705599 11.5404896,30.8709965 11.9343533,18.2286267 C12.2677679,7.48074655 14.2021393,5.88956658 14.8803027,4.98729194 C15.5773564,4.07066512 18.8954455,0.518975357 23.7804888,0.667281368 C30.5347317,0.884477913 35.2582625,7.03487171 35.2582625,7.03487171 C35.2582625,7.03487171 41.1142695,-0.217770633 48.2642651,0.00516679006 C53.0595792,0.16591137 55.1403507,2.65553873 55.9762485,3.75491683 C57.3816902,5.50588458 58.3970462,9.27477088 58.0853555,19.1309013 C58.0485194,20.4436487 56.9160432,33.692638 50.9448051,52.4184247 C49.6885971,55.6562798 47.5180965,56.6437108 45.1322459,56.5585544 C41.173774,56.4312983 40.3747125,52.3418796 40.1433057,51.0492253 C39.6285438,48.2639427 37.1501305,39.4536089 35.8995897,37.6347074 C35.1524765,36.5640337 34.8417304,36.3229168 34.2268496,36.2980397 C33.6667509,36.2741194 33.1198754,37.0577492 32.6221148,38.0700573 C31.6294272,40.1032849 29.6147719,46.0058641 28.3736762,51.7974531 C27.7172367,54.9176202 25.820646,57.3766295 22.7726889,57.2838186" id="Fill-69"></path>
                        <path d="M63.4998007,14.0322363 L66.5600366,11.2727877 C64.7711209,11.5636589 62.4579982,11.4536254 60.3772266,11.158927 C59.7330659,11.0795115 59.1059064,10.9761757 58.533529,10.8498764 C58.8811113,11.2861831 59.2230266,11.8124302 59.5668308,12.3138002 C60.7408658,14.080077 61.873342,16.1917632 62.3899929,17.9934421 L63.4998007,14.0322363 Z" id="Fill-71"></path>
                        <path d="M63.6120093,13.3771065 L63.2143676,14.5032754 C65.3820347,16.4044628 66.5853497,19.1801772 65.9931374,22.3367032 C63.8859194,33.5849965 35.2311548,44.2946041 15.9941719,40.5611199 C4.3869993,38.3106958 3.55960218,32.4588276 4.0422505,29.8811735 C4.70152355,26.3419223 7.45384683,22.9069637 11.9006341,19.9312754 C11.9006341,19.268204 11.9006341,18.5993917 11.9157464,17.9611975 C11.9195244,17.7832302 11.9346367,17.6550173 11.9346367,17.4713092 C4.8139211,21.6037845 0.792166623,26.3725403 0.120614854,29.8983961 C-0.843737265,35.0843224 4.00824788,39.9975571 13.6357123,41.8604719 C35.8620924,46.1517781 66.4918425,34.2700746 68.7152361,22.4180323 C69.4274021,18.6711527 67.3844113,15.6332715 63.6120093,13.3771065" id="Fill-73"></path>
                    </g>
                </g>
            </g>
        </g>
    </g>
</svg>