<?xml version="1.0" encoding="UTF-8" standalone="no"?>
<svg width="126px" height="125px" viewBox="0 0 126 125" version="1.1" xmlns="http://www.w3.org/2000/svg" xmlns:xlink="http://www.w3.org/1999/xlink">
    <!-- Generator: Sketch 50.2 (55047) - http://www.bohemiancoding.com/sketch -->
    <title>manu</title>
    <desc>Created with Sketch.</desc>
    <defs></defs>
    <g id="Welcome" stroke="none" stroke-width="1" fill="none" fill-rule="evenodd">
        <g id="Desktop" transform="translate(-809.000000, -883.000000)">
            <g id="Group-2" transform="translate(41.000000, 776.000000)">
                <g id="manu" transform="translate(769.000000, 107.000000)">
                    <g>
                        <path d="M123.7786,62.6253 C123.7786,96.6973 96.1576,124.3173 62.0866,124.3173 C28.0146,124.3173 0.3936,96.6973 0.3936,62.6253 C0.3936,28.5533 28.0146,0.9333 62.0866,0.9333 C96.1576,0.9333 123.7786,28.5533 123.7786,62.6253 Z" id="Stroke-66" stroke="#00A19B"></path>
                        <path d="M104.3922,62.9405 C100.9732,61.4745 97.8112,58.9655 94.7542,56.5385 C89.6752,52.5055 84.4242,48.3365 77.5142,48.3365 C74.2272,48.3365 70.4632,49.3945 67.1892,51.2395 C66.1682,51.8145 64.2892,52.9965 63.0172,54.5275 C61.7442,52.9965 59.8662,51.8145 58.8452,51.2395 C55.5712,49.3945 51.8072,48.3365 48.5202,48.3365 C41.6102,48.3365 36.3582,52.5055 31.2802,56.5385 C28.2222,58.9655 25.0612,61.4755 21.6422,62.9405 C21.1142,63.1665 20.7942,63.7075 20.8492,64.2795 C20.9052,64.8505 21.3242,65.3205 21.8852,65.4405 C29.4862,67.0695 33.2752,71.0015 37.2872,75.1635 C42.6852,80.7645 48.2662,86.5565 63.0172,86.5565 C77.7672,86.5565 83.3492,80.7645 88.7472,75.1635 C92.7582,71.0005 96.5472,67.0695 104.1492,65.4405 C104.7102,65.3205 105.1292,64.8505 105.1842,64.2795 C105.2402,63.7075 104.9192,63.1665 104.3922,62.9405" id="Fill-68" fill="#F498AC"></path>
                        <path d="M66.9708,82.6027 C52.2208,82.6027 46.6388,76.8107 41.2408,71.2097 C38.6958,68.5687 36.2398,66.0227 32.8438,64.0967 L20.8468,64.0967 C20.8438,64.1567 20.8438,64.2177 20.8498,64.2787 C20.9058,64.8507 21.3238,65.3197 21.8848,65.4397 C29.4868,67.0687 33.2758,71.0007 37.2868,75.1627 C42.6848,80.7647 48.2668,86.5557 63.0168,86.5557 C77.7678,86.5557 83.3498,80.7637 88.7468,75.1627 C88.8778,75.0277 89.0078,74.8917 89.1388,74.7577 C84.5078,79.0157 78.5788,82.6027 66.9708,82.6027" id="Fill-70" fill="#F17E97"></path>
                        <path d="M63.0172,60.198 C51.1602,60.198 20.1682,64.133 20.8432,64.135 C31.3872,64.152 40.0812,68.76 45.6872,70.361 C51.5852,72.046 56.2432,73.377 63.0172,73.377 C69.9332,73.377 74.8502,71.931 80.5432,70.255 C86.1482,68.606 94.6482,64.152 103.8732,64.133 C104.5452,64.131 74.8772,60.198 63.0172,60.198" id="Fill-72" fill="#F0F0ED"></path>
                        <path d="M97.1063,63.2221 C92.1793,64.6641 87.8203,66.6381 84.4853,67.6191 C78.7933,69.2951 73.8763,70.7411 66.9603,70.7411 C60.1863,70.7411 55.5273,69.4101 49.6293,67.7251 C45.7053,66.6041 40.2653,64.0111 33.7383,62.5491 C26.2393,63.3901 20.5503,64.1341 20.8433,64.1341 C31.3873,64.1521 40.0803,68.7591 45.6873,70.3611 C51.5843,72.0461 56.2433,73.3771 63.0173,73.3771 C69.9333,73.3771 74.8503,71.9301 80.5433,70.2551 C86.1483,68.6061 94.6473,64.1521 103.8733,64.1321 C104.0823,64.1321 101.3393,63.7491 97.1063,63.2221" id="Fill-74" fill="#E8E8E4"></path>
                        <path d="M94.6475,33.8394 C90.2875,33.8394 86.7395,29.1094 86.7395,23.2964 C86.7395,22.5684 86.1495,21.9784 85.4215,21.9784 C84.6945,21.9784 84.1045,22.5684 84.1045,23.2964 C84.1045,29.1094 80.5565,33.8394 76.1965,33.8394 C75.4685,33.8394 74.8785,34.4294 74.8785,35.1574 C74.8785,35.8854 75.4685,36.4754 76.1965,36.4754 C80.5565,36.4754 84.1045,41.2054 84.1045,47.0184 C84.1045,47.7464 84.6945,48.3364 85.4215,48.3364 C86.1495,48.3364 86.7395,47.7464 86.7395,47.0184 C86.7395,41.2054 90.2875,36.4754 94.6475,36.4754 C95.3755,36.4754 95.9655,35.8854 95.9655,35.1574 C95.9655,34.4294 95.3755,33.8394 94.6475,33.8394" id="Fill-76" fill="#00A19B"></path>
                        <path d="M78.8323,48.3366 C75.9743,48.3366 73.5603,44.7156 73.5603,40.4286 C73.5603,39.7016 72.9703,39.1106 72.2423,39.1106 C71.5153,39.1106 70.9243,39.7016 70.9243,40.4286 C70.9243,44.7156 68.5103,48.3366 65.6533,48.3366 C64.9253,48.3366 64.3353,48.9266 64.3353,49.6546 C64.3353,50.3826 64.9253,50.9726 65.6533,50.9726 C68.5103,50.9726 70.9243,54.5936 70.9243,58.8796 C70.9243,59.6076 71.5153,60.1976 72.2423,60.1976 C72.9703,60.1976 73.5603,59.6076 73.5603,58.8796 C73.5603,54.5936 75.9743,50.9726 78.8323,50.9726 C79.5603,50.9726 80.1503,50.3826 80.1503,49.6546 C80.1503,48.9266 79.5603,48.3366 78.8323,48.3366" id="Fill-78" fill="#BFF7EC"></path>
                        <path d="M98.6013,56.2442 C95.7433,56.2442 93.3293,52.6232 93.3293,48.3362 C93.3293,47.6092 92.7393,47.0182 92.0113,47.0182 C91.2843,47.0182 90.6933,47.6092 90.6933,48.3362 C90.6933,52.6232 88.2793,56.2442 85.4223,56.2442 C84.6943,56.2442 84.1043,56.8342 84.1043,57.5622 C84.1043,58.2902 84.6943,58.8802 85.4223,58.8802 C88.2793,58.8802 90.6933,62.5012 90.6933,66.7872 C90.6933,67.5152 91.2843,68.1052 92.0113,68.1052 C92.7393,68.1052 93.3293,67.5152 93.3293,66.7872 C93.3293,62.5012 95.7433,58.8802 98.6013,58.8802 C99.3293,58.8802 99.9193,58.2902 99.9193,57.5622 C99.9193,56.8342 99.3293,56.2442 98.6013,56.2442" id="Fill-80" fill="#BFF7EC"></path>
                    </g>
                </g>
            </g>
        </g>
    </g>
</svg>