<?xml version="1.0" encoding="UTF-8" standalone="no"?>
<svg width="38px" height="38px" viewBox="0 0 38 38" version="1.1" xmlns="http://www.w3.org/2000/svg" xmlns:xlink="http://www.w3.org/1999/xlink">
    <!-- Generator: Sketch 50.2 (55047) - http://www.bohemiancoding.com/sketch -->
    <title>menina</title>
    <desc>Created with Sketch.</desc>
    <defs></defs>
    <g id="Welcome" stroke="none" stroke-width="1" fill="none" fill-rule="evenodd">
        <g id="Desktop" transform="translate(-598.000000, -433.000000)" fill="#6AA09E">
            <g id="Group-4" transform="translate(569.000000, 245.000000)">
                <g id="callToUs-Copy-2" transform="translate(2.000000, 178.000000)">
                    <g id="call" transform="translate(27.302326, 9.947368)">
                        <g id="menina">
                            <path d="M33.2712111,15.6705949 C33.2118188,14.2183928 33.0705061,12.8319198 32.7397524,11.4752302 C32.2001016,9.32157544 31.2621128,7.37845915 29.6830967,5.79377181 C27.4691973,3.57027986 24.687999,2.58639751 21.6589914,2.18483384 C20.0707592,1.97532236 18.4804791,1.94245781 16.8768868,2.04310549 C15.15963,2.1519693 13.4812853,2.42412882 11.858237,2.99309627 C9.01457437,3.98416774 6.80067498,5.73317781 5.38242769,8.42088147 C4.37787852,10.3136739 3.93346023,12.3594919 3.76757138,14.4792551 C3.7317312,14.8664406 3.72763517,15.25568 3.70817907,15.6705949 C4.08706102,15.6705949 4.4137187,15.6623788 4.7444724,15.674703 C4.92162532,15.6788111 4.98511364,15.6089739 5.0158338,15.4251379 C5.22063485,14.0129894 5.58722874,12.6398676 6.13507156,11.3211777 C7.62807124,7.73791512 10.1645323,5.2997766 13.9297997,4.25735428 C16.5809493,3.52201006 19.2638431,3.47065921 21.9539049,3.99238388 C25.9014452,4.76264668 28.780948,6.94711198 30.5330211,10.5919955 C31.2621128,12.123278 31.691171,13.7449379 31.9912046,15.4056245 C32.0065646,15.5031912 32.1007731,15.6531357 32.1724535,15.6572437 C32.5267593,15.6829191 32.8851612,15.6705949 33.2712111,15.6705949 M13.3430446,10.5509149 C12.9928348,14.7144421 11.1414333,17.5921439 6.97373187,18.7167276 C6.97373187,19.0402379 6.98192391,19.40791 6.97373187,19.7796902 C6.93891569,21.2883783 7.13142868,22.7642018 7.53693477,24.219485 C7.64343132,24.6169406 7.79703211,24.9805046 8.11652175,25.2506101 C8.41553129,25.5053104 8.69918075,25.7805509 9.01867039,26.0013596 C10.6611748,27.1413486 12.5361285,27.5501013 14.4817385,27.7729641 C14.974285,27.828423 15.3050387,27.7216132 15.6716326,27.3601032 C16.7939424,26.2817353 19.0037458,26.1831416 20.3154965,27.0838356 C21.6979036,28.0338264 21.6938076,29.5096499 20.2919444,30.4319112 C19.5075563,30.9433657 18.6217918,31.0881751 17.7114511,31.0029327 C16.9475432,30.9300145 16.1713472,30.7307732 15.6552485,30.1299682 C15.2691985,29.6719186 14.8524284,29.4901366 14.2963935,29.5055418 C14.2574813,29.5055418 14.2134491,29.4993797 14.1786329,29.4962987 C12.6579851,29.3555974 11.1885376,29.0474922 9.78257832,28.4394981 C9.70372991,28.4056066 9.62488151,28.3840392 9.46308868,28.3265263 C11.2008256,30.7564486 13.3235885,32.5516745 16.0453945,33.6002589 C17.5936905,34.1969558 19.1532505,34.2739821 20.7169066,33.6772852 C24.7586554,32.1449757 27.4999175,29.2939763 29.0922456,25.2988799 C29.939098,23.1647385 30.1234189,20.9289223 30.0015623,18.6592146 C29.939098,17.5336039 29.930906,17.5192257 28.958101,16.9132856 C26.9643627,15.6705949 24.7310072,15.190978 22.363507,14.9003321 C22.9512861,15.4888129 23.3608882,16.1132393 23.5810493,16.9307449 C22.363507,16.1368607 21.0404922,15.7496753 19.7400055,15.3029228 C18.3698865,14.829468 17.0028395,14.3786075 15.8723376,13.3793199 C15.2026382,12.7785149 14.5216747,12.2033853 13.989192,11.4670141 C13.7884869,11.1866384 13.5836859,10.9001007 13.3430446,10.5509149 M29.4506475,38 L27.2879484,38 C27.216268,37.9835677 27.1538037,37.9537842 27.0831473,37.9486491 C25.069953,37.758651 23.1755432,37.1794134 21.4183502,36.1667745 C21.2022851,36.0445595 21.0128441,36.012722 20.7844909,36.0835862 C19.2597471,36.5180144 17.7390992,36.5180144 16.2112834,36.0815321 C15.9829302,36.012722 15.7934892,36.0445595 15.5764001,36.1667745 C14.2134491,36.9606587 12.7491216,37.4916266 11.1967296,37.7627591 C10.6765349,37.8510825 10.1645323,37.9240007 9.65252965,38 L7.47856647,38 C7.39971806,37.9815137 7.32496568,37.9486491 7.24918929,37.940433 C5.10287425,37.7483808 3.12552008,37.0910899 1.36423102,35.8247779 C1.06112546,35.6060232 0.774403983,35.3646742 0.497922561,35.1551627 C1.22291829,34.7556531 1.91616986,34.4105754 2.57767726,33.9956605 C3.23918466,33.5725294 3.7911235,33.0241023 4.29903011,32.3544872 C3.55457828,32.3247037 2.86132672,32.2394613 2.23873152,31.9714098 C2.88487884,31.6407103 3.53102616,31.3284971 4.15771739,30.9793113 C5.16943459,30.4062358 6.04803111,29.7191614 6.1627197,28.431282 C6.18627182,28.2063653 6.26921625,27.9865836 6.29686439,27.7596128 C6.32041651,27.6332897 6.33577659,27.4853993 6.28867235,27.3683193 C6.08387129,26.8630269 5.86268616,26.3669777 5.64252502,25.8688744 C4.7444724,25.8688744 3.82696368,25.9417926 2.92891107,25.8555232 C1.21063023,25.6840113 0.0217601119,24.276998 0.00537602765,22.4992314 C-0.00179200922,21.328432 -0.00179200922,20.1627676 0.00537602765,18.9888871 C0.0176640909,17.8232227 0.510210624,16.8958263 1.46663154,16.2395624 C1.68372066,16.096807 1.73492092,15.9509706 1.73492092,15.7178377 C1.77076111,13.5765071 2.06977065,11.4772843 2.78657433,9.45611467 C3.62933067,7.10938068 4.9574655,5.10053529 6.89897949,3.52201006 C9.45592064,1.4361384 12.4613761,0.496417784 15.6757286,0.146204965 C17.2270966,-0.0253068853 18.7866566,-0.0376310901 20.3390486,0.0660976336 C22.6082443,0.217069142 24.8139516,0.642254208 26.8937063,1.5747857 C30.4316445,3.14714883 32.8657051,5.75269113 34.1805278,9.40887189 C34.9260037,11.4731762 35.2014611,13.6165608 35.2608534,15.79281 C35.2680214,15.9930783 35.3274137,16.1009151 35.4922786,16.2118329 C36.3432269,16.7849085 36.8951658,17.5787927 36.94227,18.6181339 C36.9975663,20.0004989 37.0293105,21.3869719 36.9617261,22.7703639 C36.8757097,24.4413207 35.7011756,25.6819573 34.0709593,25.8514151 C33.1729066,25.9417926 32.2584699,25.8668204 31.3491533,25.8668204 C31.1361602,26.3628696 30.919071,26.8630269 30.6989099,27.3621572 C30.6866218,27.4001569 30.6589737,27.4432916 30.6671657,27.4812912 C30.7736623,28.0954474 30.7777583,28.7414411 31.2191046,29.2528956 C31.8376038,29.9738616 32.5462154,30.5839098 33.3613236,31.0604457 C34.0074709,31.4373609 34.6853624,31.7577903 35.3427738,32.0977329 C34.5430257,32.4274054 33.6685252,32.5157289 32.7397524,32.4191893 C33.7514696,33.7132308 35.0314762,34.5430606 36.544956,35.0955957 C36.3985232,35.2219188 36.2889547,35.3194855 36.1824581,35.4078089 C34.6894584,36.6309863 32.9793696,37.3817357 31.096224,37.7432457 C30.5535012,37.8510825 30.0015623,37.9168116 29.4506475,38" id="Fill-4"></path>
                            <path d="M13.994046,21.9999959 C12.8374398,21.9999959 11.9967635,21.1344335 12.0000094,19.9561867 C12.0000094,18.8785615 12.8915374,18.0086713 13.994046,18.0000157 C15.1257673,17.9956879 16.0043119,18.8872171 15.9999841,20.0394971 C15.9999841,21.1430891 15.1214395,22.0021598 13.994046,21.9999959" id="Path"></path>
                            <path d="M23.0081147,18.0000161 C24.1342643,18.0043439 25.0075165,18.9077696 24.9999512,20.0600431 C24.9826591,21.1668748 24.0975185,22.0053837 22.9378654,21.999974 C21.8236042,21.9956462 20.9914207,21.1052038 21.0000668,19.9356192 C21.0087128,18.8655736 21.9068225,17.9956883 23.0081147,18.0000161" id="Path"></path>
                        </g>
                    </g>
                </g>
            </g>
        </g>
    </g>
</svg>