<?xml version="1.0" encoding="UTF-8" standalone="no"?>
<svg width="114px" height="35px" viewBox="0 0 114 35" version="1.1" xmlns="http://www.w3.org/2000/svg" xmlns:xlink="http://www.w3.org/1999/xlink">
    <!-- Generator: Sketch 50.2 (55047) - http://www.bohemiancoding.com/sketch -->
    <title>pt2020</title>
    <desc>Created with Sketch.</desc>
    <defs>
        <polygon id="path-1" points="0.0017628866 0.479091667 16.411299 0.479091667 16.411299 23.3333333 0.0017628866 23.3333333"></polygon>
        <polygon id="path-3" points="0.0681061856 0.479091667 16.4752918 0.479091667 16.4752918 23.3333333 0.0681061856 23.3333333"></polygon>
        <polygon id="path-5" points="0 0.248791667 9.10924639 0.248791667 9.10924639 30.8242083 0 30.8242083"></polygon>
    </defs>
    <g id="Welcome" stroke="none" stroke-width="1" fill="none" fill-rule="evenodd">
        <g id="Desktop" transform="translate(-863.000000, -3936.000000)">
            <g id="Group-11" transform="translate(33.000000, 3936.000000)">
                <g id="pt2020" transform="translate(830.000000, 0.000000)">
                    <g>
                        <g id="Group-3" transform="translate(28.206186, 11.101417)">
                            <mask id="mask-2" fill="white">
                                <use xlink:href="#path-1"></use>
                            </mask>
                            <g id="Clip-2"></g>
                            <path d="M0.0017628866,20.2185083 L7.8172268,13.6285917 C8.59642268,12.986925 9.25456701,12.4018417 9.79342268,11.8785917 C10.3363918,11.3530083 10.7735876,10.8577583 11.1067732,10.3835083 C11.4458351,9.91334167 11.6855876,9.45134167 11.8371959,8.99984167 C11.9882165,8.55359167 12.0640206,8.07059167 12.0640206,7.55200833 C12.0640206,6.441925 11.7137938,5.57859167 11.0109897,4.968425 C10.3081856,4.357675 9.43790722,4.05259167 8.40191753,4.05259167 C7.36357732,4.05259167 6.44863918,4.33200833 5.66004124,4.889675 C4.87026804,5.44675833 4.03583505,6.294925 3.14792784,7.43475833 L0.326134021,5.24375833 C0.866752577,4.49009167 1.41853608,3.81750833 1.98089691,3.223675 C2.54149485,2.62809167 3.15321649,2.13050833 3.81194845,1.72975833 C4.47126804,1.32959167 5.19640206,1.020425 5.98617526,0.805175 C6.77183505,0.588175 7.67560825,0.479091667 8.69396907,0.479091667 C9.79342268,0.479091667 10.8041443,0.639508333 11.7249588,0.961508333 C12.6434227,1.28409167 13.4320206,1.73909167 14.0907526,2.33059167 C14.7506598,2.92209167 15.2648351,3.63025833 15.6332784,4.453925 C15.9999588,5.28284167 16.183299,6.198675 16.183299,7.20900833 L16.183299,7.269675 C16.183299,8.15284167 16.0634227,8.951425 15.8266082,9.668925 C15.5886186,10.3910917 15.2260515,11.081175 14.7412577,11.7455917 C14.2541134,12.4123417 13.6376907,13.0855083 12.8931649,13.7575083 C12.1474639,14.4347583 11.2760103,15.1785083 10.2799794,15.9945917 L5.6124433,19.8568417 L16.411299,19.8568417 L16.411299,23.3335083 L0.0017628866,23.3335083 L0.0017628866,20.2185083 Z" id="Fill-1" fill="#D42028" mask="url(#mask-2)"></path>
                        </g>
                        <path d="M58.3640041,30.800875 C59.4857876,30.800875 60.5153134,30.590875 61.4502309,30.1697083 C62.3833856,29.7497083 63.1878495,29.1850417 63.8542206,28.466375 C64.5205918,27.7477083 65.0435814,26.903625 65.4208392,25.935875 C65.7986845,24.9710417 65.9837876,23.9397083 65.9837876,22.847125 L65.9837876,22.7852917 C65.9837876,21.686875 65.7986845,20.6532083 65.4208392,19.677875 C65.0435814,18.7002083 64.5153031,17.8537917 63.8395299,17.133375 C63.1590557,16.4129583 62.3469526,15.8412917 61.4008701,15.411375 C60.4530247,14.9832083 59.4211485,14.767375 58.3023031,14.767375 C57.179932,14.767375 56.1551072,14.9750417 55.2166639,15.393875 C54.2811588,15.8144583 53.4784577,16.3814583 52.8126742,17.1024583 C52.1445402,17.819375 51.623901,18.6617083 51.2448804,19.628875 C50.8693856,20.5937083 50.6801691,21.6250417 50.6801691,22.7182083 L50.6801691,22.7852917 C50.6801691,23.877875 50.8693856,24.9127083 51.2448804,25.886875 C51.623901,26.8674583 52.1498289,27.7144583 52.8285402,28.4302083 C53.5054887,29.1517917 54.3170041,29.726375 55.2672,30.1557083 C56.210932,30.580375 57.2445711,30.800875 58.3640041,30.800875 M58.3023031,34.4344583 C56.5476433,34.4344583 54.9492928,34.129375 53.5019629,33.5180417 C52.0528701,32.9084583 50.8106227,32.0742917 49.7716948,31.0219583 C48.7345299,29.9754583 47.9230144,28.7434583 47.3389113,27.3370417 C46.7577464,25.9312083 46.463932,24.4384583 46.463932,22.847125 L46.463932,22.7852917 C46.463932,21.1939583 46.7577464,19.6982917 47.3389113,18.295375 C47.9230144,16.886625 48.743932,15.651125 49.8040144,14.590625 C50.8640969,13.5277917 52.1175093,12.686625 53.5671897,12.0630417 C55.013932,11.440625 56.6128701,11.129125 58.3640041,11.129125 C60.1198392,11.129125 61.7170144,11.4359583 63.1637567,12.0472917 C64.6140247,12.6592083 65.8550969,13.4910417 66.8940247,14.541625 C67.9329526,15.5939583 68.7427052,16.8212917 69.3262206,18.2277083 C69.9079732,19.6335417 70.2035505,21.1274583 70.2035505,22.7182083 L70.2035505,22.7852917 C70.2035505,24.3707917 69.9079732,25.869375 69.3262206,27.2752083 C68.7427052,28.681625 67.9223753,29.913625 66.8605299,30.9752917 C65.8033856,32.0387083 64.5470351,32.879875 63.0997052,33.501125 C61.6517876,34.124125 60.0522619,34.4344583 58.3023031,34.4344583" id="Fill-4" fill="#D42028"></path>
                        <g id="Group-8" transform="translate(71.690722, 11.101417)">
                            <mask id="mask-4" fill="white">
                                <use xlink:href="#path-3"></use>
                            </mask>
                            <g id="Clip-7"></g>
                            <path d="M0.0681061856,20.2185083 L7.88474536,13.6285917 C8.65806495,12.986925 9.31738454,12.4018417 9.85976598,11.8785917 C10.4033227,11.3530083 10.8369928,10.8577583 11.1731165,10.3835083 C11.5086526,9.91334167 11.7525186,9.45134167 11.9017763,8.99984167 C12.0545598,8.55359167 12.1291887,8.07059167 12.1291887,7.55200833 C12.1291887,6.441925 11.7777866,5.57859167 11.0743948,4.968425 C10.3721784,4.357675 9.50307526,4.05259167 8.46473505,4.05259167 C7.4275701,4.05259167 6.51498247,4.33200833 5.72638454,4.889675 C4.9377866,5.44675833 4.09571443,6.294925 3.21427113,7.43475833 L0.388363918,5.24375833 C0.932508247,4.49009167 1.48252887,3.81750833 2.04606495,3.223675 C2.6090134,2.62809167 3.21897216,2.13050833 3.87887938,1.72975833 C4.53702371,1.32959167 5.26215773,1.020425 6.04958041,0.805175 C6.83876598,0.588175 7.74077629,0.479091667 8.75913711,0.479091667 C9.85976598,0.479091667 10.8699,0.639508333 11.7883639,0.961508333 C12.7085907,1.28409167 13.5001268,1.73909167 14.1565082,2.33059167 C14.8146526,2.92209167 15.3300031,3.63025833 15.6972711,4.453925 C16.0639515,5.28284167 16.2467041,6.198675 16.2467041,7.20900833 L16.2467041,7.269675 C16.2467041,8.15284167 16.1315289,8.951425 15.8929515,9.668925 C15.6526113,10.3910917 15.290632,11.081175 14.8023124,11.7455917 C14.321632,12.4123417 13.7010959,13.0855083 12.9565701,13.7575083 C12.2096938,14.4347583 11.3411784,15.1785083 10.3457351,15.9945917 L5.67819897,19.8568417 L16.4752918,19.8568417 L16.4752918,23.3335083 L0.0681061856,23.3335083 L0.0681061856,20.2185083 Z" id="Fill-6" fill="#D42028" mask="url(#mask-4)"></path>
                        </g>
                        <path d="M101.915236,30.800875 C103.031731,30.800875 104.060669,30.590875 104.999112,30.1697083 C105.936968,29.7497083 106.735556,29.1850417 107.403102,28.466375 C108.072411,27.7477083 108.591288,26.903625 108.971484,25.935875 C109.346391,24.9710417 109.53502,23.9397083 109.53502,22.847125 L109.53502,22.7852917 C109.53502,21.686875 109.346391,20.6532083 108.971484,19.677875 C108.591288,18.7002083 108.067123,17.8537917 107.389587,17.133375 C106.709112,16.4129583 105.898185,15.8412917 104.948576,15.411375 C104.003081,14.9832083 102.968855,14.767375 101.850597,14.767375 C100.728226,14.767375 99.7022258,14.9750417 98.7667206,15.393875 C97.8306278,15.8144583 97.0291021,16.3814583 96.3603804,17.1024583 C95.692834,17.819375 95.1733701,18.6617083 94.7961124,19.628875 C94.4194423,20.5937083 94.2302258,21.6250417 94.2302258,22.7182083 L94.2302258,22.7852917 C94.2302258,23.877875 94.4194423,24.9127083 94.7961124,25.886875 C95.1733701,26.8674583 95.7004732,27.7144583 96.3756588,28.4302083 C97.0549577,29.1517917 97.8664732,29.726375 98.8125557,30.1557083 C99.7651021,30.580375 100.792277,30.800875 101.915236,30.800875 M101.850597,34.4344583 C100.100638,34.4344583 98.4999371,34.129375 97.0496691,33.5180417 C95.6029268,32.9084583 94.3595041,32.0742917 93.3229268,31.0219583 C92.2828237,29.9754583 91.4742464,28.7434583 90.8901433,27.3370417 C90.3078031,25.9312083 90.0139887,24.4384583 90.0139887,22.847125 L90.0139887,22.7852917 C90.0139887,21.1939583 90.3078031,19.6982917 90.8901433,18.295375 C91.4742464,16.886625 92.2957515,15.651125 93.3540711,14.590625 C94.413566,13.5277917 95.6693289,12.686625 97.1172464,12.0630417 C98.5651639,11.440625 100.162927,11.129125 101.915236,11.129125 C103.667545,11.129125 105.264721,11.4359583 106.714401,12.0472917 C108.15938,12.6592083 109.406329,13.4910417 110.445257,14.541625 C111.478896,15.5939583 112.290411,16.8212917 112.875102,18.2277083 C113.458618,19.6335417 113.751257,21.1274583 113.751257,22.7182083 L113.751257,22.7852917 C113.751257,24.3707917 113.458618,25.869375 112.875102,27.2752083 C112.290411,28.681625 111.468906,29.913625 110.411762,30.9752917 C109.35403,32.0387083 108.097092,32.879875 106.647999,33.501125 C105.202432,34.124125 103.600556,34.4344583 101.850597,34.4344583" id="Fill-9" fill="#D42028"></path>
                        <path d="M70.5391454,6.42325833 L70.5391454,5.66609167 C70.7871247,5.61825833 71.0815268,5.57100833 71.3606505,5.55525833 L71.3606505,0.974341667 C71.0815268,0.955675 70.7871247,0.908425 70.5391454,0.860591667 L70.5391454,0.102841667 L73.4085371,0.102841667 L73.4085371,0.860591667 C73.1658464,0.908425 72.8726196,0.955675 72.5858567,0.974341667 L72.5858567,5.42225833 L73.8063619,5.42225833 C73.8263412,5.19475833 73.8704134,4.92700833 73.9197742,4.64759167 L74.8241351,4.64759167 L74.8241351,6.42325833 L70.5391454,6.42325833 Z M67.2707536,2.31425833 C67.1502897,1.965425 67.0574443,1.66850833 66.9792897,1.31850833 L66.9687124,1.31850833 C66.8940835,1.63700833 66.8012381,2.00625833 66.6666711,2.35684167 L66.1207639,3.86709167 L67.8378155,3.86709167 L67.2707536,2.31425833 Z M67.742032,6.42325833 L67.742032,5.66609167 C67.9406505,5.629925 68.1945062,5.580925 68.4119289,5.56575833 L68.1398567,4.81500833 L65.8187227,4.81500833 L65.5519392,5.56575833 C65.7723,5.580925 66.025568,5.629925 66.2241866,5.66609167 L66.2241866,6.42325833 L63.8284237,6.42325833 L63.8284237,5.66609167 C63.9806196,5.61825833 64.1692485,5.580925 64.3243825,5.57100833 L66.2688464,0.102841667 L67.7673,0.102841667 L69.7528979,5.57100833 C69.912733,5.580925 70.1019495,5.61825833 70.2541454,5.66609167 L70.2541454,6.42325833 L67.742032,6.42325833 Z M63.3107227,3.981425 L63.3107227,6.12750833 C62.6813722,6.37775833 61.8898361,6.51775833 61.114166,6.51775833 C59.1062381,6.51775833 57.9139392,5.33475833 57.9139392,3.41034167 C57.9139392,1.39550833 59.2743,0.0100916667 61.445001,0.0100916667 C62.0390938,0.0100916667 62.6343619,0.0923416667 63.2214031,0.243425 L63.2214031,1.93975833 L62.2723825,1.93975833 C62.2206711,1.66850833 62.1895268,1.426425 62.1630835,1.179675 C61.9080526,1.111425 61.6312794,1.083425 61.3780113,1.083425 C60.1416402,1.083425 59.2478567,1.86450833 59.2478567,3.29484167 C59.2478567,4.63709167 59.9818052,5.42225833 61.2775268,5.42225833 C61.5766299,5.42225833 61.8434134,5.384925 62.0814031,5.309675 L62.0814031,3.990175 C61.8022794,3.970925 61.5096402,3.923675 61.2775268,3.86709167 L61.2775268,3.109925 L63.8442897,3.109925 L63.8442897,3.88459167 C63.6732897,3.923675 63.4905371,3.953425 63.3107227,3.981425 Z M56.9837227,0.974341667 L56.9837227,3.99950833 C56.9837227,5.67484167 56.0499804,6.52534167 54.3523206,6.52534167 C52.3396918,6.52534167 51.8925062,5.44034167 51.8925062,4.23459167 L51.8925062,0.974341667 C51.6815474,0.955675 51.4741144,0.918925 51.2948876,0.869925 L51.2948876,0.102841667 L53.7934856,0.102841667 L53.7934856,0.869925 C53.5766505,0.926508333 53.3321969,0.955675 53.1153619,0.974341667 L53.1153619,4.15875833 C53.1153619,4.956175 53.3698052,5.51734167 54.4287124,5.51734167 C55.3689186,5.51734167 55.776733,5.124175 55.776733,4.04675833 L55.776733,0.974341667 C55.548733,0.955675 55.3042794,0.926508333 55.097434,0.869925 L55.097434,0.102841667 L57.5678258,0.102841667 L57.5678258,0.869925 C57.3891866,0.918925 57.190568,0.955675 56.9837227,0.974341667 Z M49.8839907,1.88200833 C49.8399186,1.59325833 49.7899701,1.340675 49.7741041,1.10384167 L48.7904134,1.10384167 L48.7904134,5.55525833 C49.0736505,5.57100833 49.3645268,5.61825833 49.6113309,5.66609167 L49.6113309,6.42325833 L46.7442897,6.42325833 L46.7442897,5.66609167 C46.9887433,5.61825833 47.2825577,5.57100833 47.5652072,5.55525833 L47.5652072,1.10384167 L46.5932691,1.10384167 C46.5768155,1.340675 46.5262794,1.59325833 46.481032,1.88200833 L45.573733,1.88200833 L45.573733,0.102841667 L50.7889392,0.102841667 L50.7889392,1.88200833 L49.8839907,1.88200833 Z M42.6590938,1.06009167 C42.491032,1.06009167 42.3129804,1.06475833 42.190166,1.083425 L42.190166,2.912175 C42.2759598,2.92034167 42.4352072,2.93025833 42.6214856,2.93025833 C43.3660113,2.93025833 43.8120216,2.55809167 43.8120216,1.965425 C43.8120216,1.35875833 43.4424031,1.06009167 42.6590938,1.06009167 Z M43.9166196,6.42325833 L42.3570526,3.81575833 L42.190166,3.81575833 L42.190166,5.55525833 C42.3693928,5.57100833 42.5750629,5.60075833 42.7636918,5.657925 L42.7636918,6.42325833 L40.1411041,6.42325833 L40.1411041,5.66609167 C40.386733,5.61825833 40.6799598,5.57100833 40.9637845,5.55525833 L40.9637845,0.974341667 C40.6799598,0.955675 40.386733,0.908425 40.1411041,0.860591667 L40.1411041,0.102841667 L40.8779907,0.102841667 C41.1236196,0.102841667 42.008001,0.066675 42.7918979,0.066675 C44.1969186,0.066675 45.1048052,0.550258333 45.1048052,1.84409167 C45.1048052,2.724925 44.4995474,3.37359167 43.6051763,3.56025833 C43.7191763,3.70784167 43.8302381,3.86709167 43.9260216,4.01584167 L44.9079495,5.54534167 C45.0854134,5.57100833 45.3116505,5.60834167 45.5290732,5.64800833 L45.5290732,6.42325833 L43.9166196,6.42325833 Z M36.7011247,1.095675 C35.8243825,1.095675 35.012867,1.79100833 35.012867,3.21259167 C35.012867,4.54900833 35.5399701,5.42225833 36.6829082,5.42225833 C37.5126402,5.42225833 38.3976093,4.78409167 38.3976093,3.267425 C38.3976093,1.86450833 37.7970526,1.095675 36.7011247,1.095675 Z M36.5947639,6.52534167 C34.6520629,6.52534167 33.7006918,5.30034167 33.7006918,3.34384167 C33.7006918,1.25375833 35.1045371,0.000175 36.8133619,0.000175 C38.5116093,0.000175 39.7109598,1.01050833 39.7109598,3.172925 C39.7109598,5.26300833 38.3241557,6.52534167 36.5947639,6.52534167 Z M30.6814546,1.06009167 C30.5316093,1.06009167 30.3982175,1.06009167 30.2571866,1.06475833 L30.2571866,3.172925 C30.3794134,3.192175 30.4992897,3.20384167 30.6132897,3.20384167 C31.360166,3.192175 31.8802175,2.78150833 31.8802175,2.09900833 C31.8802175,1.461425 31.5223515,1.06009167 30.6814546,1.06009167 Z M30.6626505,4.212425 C30.5486505,4.212425 30.4064443,4.212425 30.2571866,4.196675 L30.2571866,5.55525833 C30.5398361,5.57100833 30.8318876,5.61825833 31.0786918,5.66609167 L31.0786918,6.42325833 L28.2081247,6.42325833 L28.2081247,5.66609167 C28.4525784,5.61825833 28.7458052,5.57100833 29.0284546,5.55525833 L29.0284546,0.974341667 C28.7458052,0.955675 28.4525784,0.908425 28.2081247,0.860591667 L28.2081247,0.102841667 L28.9473619,0.102841667 C29.2476402,0.102841667 30.0779598,0.066675 30.7384546,0.066675 C32.2950835,0.066675 33.1512588,0.786508333 33.1512588,2.02200833 C33.1512588,3.24875833 32.2110526,4.212425 30.6626505,4.212425 Z" id="Fill-11" fill="#036536"></path>
                        <g id="Group-15" transform="translate(0.000000, 0.018083)">
                            <mask id="mask-6" fill="white">
                                <use xlink:href="#path-5"></use>
                            </mask>
                            <g id="Clip-14"></g>
                            <path d="M9.10924639,0.248791667 C3.49210206,2.45320833 -0.00017628866,8.27020833 -0.00017628866,17.2267083 L-0.00017628866,30.8242083 C-0.00017628866,30.8242083 1.15157629,22.0852917 9.10924639,19.564125 L9.10924639,0.248791667 Z" id="Fill-13" fill="#036536" mask="url(#mask-6)"></path>
                        </g>
                        <path d="M11.8276175,20.92755 C8.56568969,21.5738833 3.78474124,24.1708833 2.37795773,27.8272167 C9.38308144,19.3817167 23.6806794,27.54255 24.3135557,11.6653833 C24.5145247,6.63588333 24.5345041,0.444966667 24.5345041,0.444966667 C17.0710299,0.860883333 11.8276175,2.83546667 11.8276175,2.83546667 L11.8276175,20.92755 Z" id="Fill-16" fill="#D42028"></path>
                        <path d="M10.9173216,25.513075 C10.9173216,25.513075 3.31516701,26.1232417 2.66936289,30.4317417 C2.15988866,33.8039917 10.9173216,33.8914917 10.9173216,33.8914917 L10.9173216,25.513075 Z" id="Fill-18" fill="#036536"></path>
                    </g>
                </g>
            </g>
        </g>
    </g>
</svg>