<?xml version="1.0" encoding="UTF-8" standalone="no"?>
<svg width="126px" height="125px" viewBox="0 0 126 125" version="1.1" xmlns="http://www.w3.org/2000/svg" xmlns:xlink="http://www.w3.org/1999/xlink">
    <!-- Generator: Sketch 50.2 (55047) - http://www.bohemiancoding.com/sketch -->
    <title>reab</title>
    <desc>Created with Sketch.</desc>
    <defs></defs>
    <g id="Welcome" stroke="none" stroke-width="1" fill="none" fill-rule="evenodd">
        <g id="Desktop" transform="translate(-330.000000, -883.000000)">
            <g id="Group-2" transform="translate(41.000000, 776.000000)">
                <g id="reab" transform="translate(290.000000, 107.000000)">
                    <g>
                        <path d="M82.7424,60.0616 C85.2194,57.2486 88.9644,52.9986 88.9644,42.9816 C88.9644,38.5836 87.1394,34.5286 83.8274,31.5666 C80.4994,28.5916 75.8704,26.9516 70.7924,26.9516 C66.9294,26.9516 63.1384,28.5346 60.1084,31.3586 C57.0714,28.5346 53.2584,26.9516 49.3594,26.9516 C44.2824,26.9516 39.6524,28.5916 36.3264,31.5666 C33.0124,34.5286 31.1874,38.5836 31.1874,42.9816 C31.1874,52.9986 34.9324,57.2486 37.4094,60.0616 C39.3964,62.3156 40.0644,63.0736 38.8764,65.6886 C34.3214,75.7106 36.8714,88.7806 40.4654,94.3606 C41.8434,96.5026 43.3954,97.5886 45.0744,97.5886 C47.5734,97.5886 48.6404,94.9546 48.9894,94.0896 C49.5914,92.6036 50.0764,90.7076 50.6394,88.5116 C52.6704,80.5796 54.7824,74.0136 60.0764,74.0136 C65.3704,74.0136 67.4824,80.5796 69.5134,88.5116 C70.0764,90.7076 70.5614,92.6036 71.1624,94.0896 C71.5134,94.9546 72.5784,97.5886 75.0784,97.5886 C76.7584,97.5886 78.3084,96.5026 79.6874,94.3606 C83.2804,88.7806 85.8314,75.7106 81.2754,65.6886 C80.0874,63.0736 80.7574,62.3156 82.7424,60.0616" id="Fill-48" fill="#FFFFFF"></path>
                        <path d="M82.7424,60.0616 C85.2194,57.2486 88.9644,52.9986 88.9644,42.9816 C88.9644,38.5836 87.1394,34.5286 83.8274,31.5666 C80.4994,28.5916 75.8704,26.9516 70.7924,26.9516 C66.9294,26.9516 63.1384,28.5346 60.1084,31.3586 C57.0714,28.5346 53.2584,26.9516 49.3594,26.9516 C44.2824,26.9516 39.6524,28.5916 36.3264,31.5666 C33.0124,34.5286 31.1874,38.5836 31.1874,42.9816 C31.1874,52.9986 34.9324,57.2486 37.4094,60.0616 C39.3964,62.3156 40.0644,63.0736 38.8764,65.6886 C34.3214,75.7106 36.8714,88.7806 40.4654,94.3606 C41.8434,96.5026 43.3954,97.5886 45.0744,97.5886 C47.5734,97.5886 48.6404,94.9546 48.9894,94.0896 C49.5914,92.6036 50.0764,90.7076 50.6394,88.5116 C52.6704,80.5796 54.7824,74.0136 60.0764,74.0136 C65.3704,74.0136 67.4824,80.5796 69.5134,88.5116 C70.0764,90.7076 70.5614,92.6036 71.1624,94.0896 C71.5134,94.9546 72.5784,97.5886 75.0784,97.5886 C76.7584,97.5886 78.3084,96.5026 79.6874,94.3606 C83.2804,88.7806 85.8314,75.7106 81.2754,65.6886 C80.0874,63.0736 80.7574,62.3156 82.7424,60.0616 Z" id="Stroke-50" stroke="#00A19B" stroke-width="2" stroke-linecap="round" stroke-linejoin="round"></path>
                        <path d="M60.1085,31.359 C59.9515,31.213 55.8795,36.731 53.7795,36.731 C55.8795,36.731 59.8525,37.201 61.0605,35.485 C65.2565,29.517 70.9185,27.069 74.5875,27.271 C73.3615,27.061 72.0925,26.952 70.7915,26.952 C66.9295,26.952 63.1385,28.535 60.1085,31.359" id="Fill-52" fill="#E4E4E4"></path>
                        <path d="M77.9479,94.0882 C77.3469,92.6042 76.8619,90.7062 76.2999,88.5112 C74.2679,80.5792 72.1559,74.0122 66.8619,74.0122 C65.5519,74.0122 64.4359,74.4162 63.4689,75.1422 C66.4099,77.3492 67.9849,82.5422 69.5129,88.5112 C70.0749,90.7062 70.5599,92.6042 71.1619,94.0882 C71.5119,94.9542 72.5789,97.5872 75.0789,97.5872 C76.3789,97.5872 77.6009,96.9342 78.7269,95.6452 C78.3309,95.0322 78.0849,94.4262 77.9479,94.0882" id="Fill-54" fill="#E4E4E4"></path>
                        <path d="M47.2514,94.361 C43.6574,88.78 41.1074,75.711 45.6634,65.688 C46.8504,63.074 46.1824,62.316 44.1954,60.062 C41.7184,57.249 37.9734,52.999 37.9734,42.982 C37.9734,38.583 39.7984,34.529 43.1114,31.567 C45.5904,29.349 48.7924,27.875 52.3644,27.268 C51.3774,27.061 50.3714,26.952 49.3594,26.952 C44.2824,26.952 39.6524,28.591 36.3264,31.567 C33.0124,34.529 31.1874,38.583 31.1874,42.982 C31.1874,52.999 34.9324,57.249 37.4094,60.062 C39.3964,62.316 40.0644,63.074 38.8764,65.688 C34.3214,75.711 36.8714,88.78 40.4654,94.361 C41.8434,96.502 43.3954,97.589 45.0744,97.589 C46.5994,97.589 47.5904,96.608 48.2104,95.646 C47.8834,95.27 47.5624,94.844 47.2514,94.361" id="Fill-56" fill="#E4E4E4"></path>
                        <path d="M82.7424,60.0616 C85.2194,57.2486 88.9644,52.9986 88.9644,42.9816 C88.9644,38.5836 87.1394,34.5286 83.8274,31.5666 C80.4994,28.5916 75.8704,26.9516 70.7924,26.9516 C66.9294,26.9516 63.1384,28.5346 60.1084,31.3586 C57.0714,28.5346 53.2584,26.9516 49.3594,26.9516 C44.2824,26.9516 39.6524,28.5916 36.3264,31.5666 C33.0124,34.5286 31.1874,38.5836 31.1874,42.9816 C31.1874,52.9986 34.9324,57.2486 37.4094,60.0616 C39.3964,62.3156 40.0644,63.0736 38.8764,65.6886 C34.3214,75.7106 36.8714,88.7806 40.4654,94.3606 C41.8434,96.5026 43.3954,97.5886 45.0744,97.5886 C47.5734,97.5886 48.6404,94.9546 48.9894,94.0896 C49.5914,92.6036 50.0764,90.7076 50.6394,88.5116 C52.6704,80.5796 54.7824,74.0136 60.0764,74.0136 C65.3704,74.0136 67.4824,80.5796 69.5134,88.5116 C70.0764,90.7076 70.5614,92.6036 71.1624,94.0896 C71.5134,94.9546 72.5784,97.5886 75.0784,97.5886 C76.7584,97.5886 78.3084,96.5026 79.6874,94.3606 C83.2804,88.7806 85.8314,75.7106 81.2754,65.6886 C80.0874,63.0736 80.7574,62.3156 82.7424,60.0616 Z" id="Stroke-58" stroke="#00A19B" stroke-width="2" stroke-linecap="round" stroke-linejoin="round"></path>
                        <path d="M123.6783,62.6253 C123.6783,96.6973 96.0573,124.3173 61.9863,124.3173 C27.9143,124.3173 0.2933,96.6973 0.2933,62.6253 C0.2933,28.5533 27.9143,0.9333 61.9863,0.9333 C96.0573,0.9333 123.6783,28.5533 123.6783,62.6253 Z" id="Stroke-60" stroke="#00A19B"></path>
                        <path d="M74.684,34.9519 L68.081,34.9519 C67.511,34.9519 67.049,35.4139 67.049,35.9839 L67.049,53.5929 C67.049,54.1629 67.511,54.6249 68.081,54.6249 L74.684,54.6249 C75.254,54.6249 75.716,54.1629 75.716,53.5929 L75.716,35.9839 C75.716,35.4139 75.254,34.9519 74.684,34.9519" id="Fill-62" fill="#00BFAC"></path>
                        <path d="M80.1868,40.4546 L62.5778,40.4546 C62.0078,40.4546 61.5458,40.9166 61.5458,41.4866 L61.5458,48.0896 C61.5458,48.6596 62.0078,49.1216 62.5778,49.1216 L80.1868,49.1216 C80.7568,49.1216 81.2188,48.6596 81.2188,48.0896 L81.2188,41.4866 C81.2188,40.9166 80.7568,40.4546 80.1868,40.4546" id="Fill-64" fill="#00A19B"></path>
                    </g>
                </g>
            </g>
        </g>
    </g>
</svg>