<?xml version="1.0" encoding="UTF-8" standalone="no"?>
<svg width="96px" height="96px" viewBox="0 0 96 96" version="1.1" xmlns="http://www.w3.org/2000/svg" xmlns:xlink="http://www.w3.org/1999/xlink">
    <!-- Generator: Sketch 50.2 (55047) - http://www.bohemiancoding.com/sketch -->
    <title>tec</title>
    <desc>Created with Sketch.</desc>
    <defs>
        <polygon id="path-1" points="0.0003 0.625 95.281 0.625 95.281 95.9999 0.0003 95.9999"></polygon>
    </defs>
    <g id="Welcome" stroke="none" stroke-width="1" fill="none" fill-rule="evenodd">
        <g id="Desktop" transform="translate(-523.000000, -2061.000000)">
            <g id="Group-8" transform="translate(42.000000, 1952.000000)">
                <g id="tec" transform="translate(481.000000, 108.000000)">
                    <g id="Group">
                        <path d="M47.6875,14.4125 C28.7875,14.4125 13.4125,29.7875 13.4125,48.6875 C13.4125,67.5865 28.7875,82.9625 47.6875,82.9625 C66.5875,82.9625 81.9625,67.5865 81.9625,48.6875 C81.9625,29.7875 66.5875,14.4125 47.6875,14.4125" id="Fill-1" fill="#00A19B"></path>
                        <path d="M47.6875,27.8239 C36.1835,27.8239 26.8235,37.1839 26.8235,48.6879 C26.8235,60.1919 36.1835,69.5499 47.6875,69.5499 C59.1915,69.5499 68.5515,60.1919 68.5515,48.6879 C68.5515,37.1839 59.1915,27.8239 47.6875,27.8239" id="Fill-3" fill="#00BFAC"></path>
                        <g id="Group-7" transform="translate(0.000000, 0.375000)">
                            <mask id="mask-2" fill="white">
                                <use xlink:href="#path-1"></use>
                            </mask>
                            <g id="Clip-6"></g>
                            <path d="M49.1773,88.5179 L49.1773,87.0579 C49.1773,86.2349 48.5103,85.5679 47.6873,85.5679 C46.8643,85.5679 46.1973,86.2349 46.1973,87.0579 L46.1973,88.5179 C25.1943,87.7489 8.2503,70.8059 7.4823,49.8019 L8.9423,49.8019 C9.7643,49.8019 10.4323,49.1359 10.4323,48.3129 C10.4323,47.4889 9.7643,46.8219 8.9423,46.8219 L7.4823,46.8219 C8.2503,25.8189 25.1943,8.8759 46.1973,8.1069 L46.1973,9.5659 C46.1973,10.3889 46.8643,11.0569 47.6873,11.0569 C48.5103,11.0569 49.1773,10.3889 49.1773,9.5659 L49.1773,8.1069 C70.2123,8.8769 87.1743,25.8689 87.8963,46.9159 L86.4333,46.9159 C85.6613,46.9159 85.0363,47.5409 85.0363,48.3129 C85.0363,49.0839 85.6613,49.7099 86.4333,49.7099 L87.8963,49.7099 C87.1743,70.7559 70.2123,87.7479 49.1773,88.5179 M93.8843,46.9159 L90.8793,46.9159 C90.5313,35.8949 86.0783,25.5859 78.2463,17.7539 C70.4363,9.9439 60.1623,5.4939 49.1773,5.1239 L49.1773,2.1149 C49.1773,1.2929 48.5103,0.6249 47.6873,0.6249 C46.8643,0.6249 46.1973,1.2929 46.1973,2.1149 L46.1973,5.1239 C35.2133,5.4939 24.9393,9.9439 17.1293,17.7539 C9.3183,25.5639 4.8693,35.8379 4.4993,46.8219 L1.4913,46.8219 C0.6673,46.8219 0.0003,47.4889 0.0003,48.3129 C0.0003,49.1359 0.6673,49.8019 1.4913,49.8019 L4.4993,49.8019 C4.8693,60.7869 9.3183,71.0609 17.1293,78.8709 C24.9383,86.6819 35.2133,91.1309 46.1973,91.4999 L46.1973,94.5089 C46.1973,95.3319 46.8643,95.9999 47.6873,95.9999 C48.5103,95.9999 49.1773,95.3319 49.1773,94.5089 L49.1773,91.4999 C60.1623,91.1309 70.4353,86.6819 78.2463,78.8709 C86.0783,71.0389 90.5313,60.7289 90.8793,49.7099 L93.8843,49.7099 C94.6563,49.7099 95.2813,49.0839 95.2813,48.3129 C95.2813,47.5409 94.6563,46.9159 93.8843,46.9159" id="Fill-5" fill="#00A19B" mask="url(#mask-2)"></path>
                        </g>
                        <path d="M63.9595,46.3195 C65.7185,44.3215 68.3785,41.3035 68.3785,34.1905 C68.3785,31.0675 67.0815,28.1885 64.7295,26.0845 C62.3665,23.9715 59.0795,22.8075 55.4735,22.8075 C52.7295,22.8075 50.0385,23.9315 47.8865,25.9365 C45.7305,23.9315 43.0225,22.8075 40.2535,22.8075 C36.6485,22.8075 33.3595,23.9715 30.9975,26.0845 C28.6445,28.1885 27.3485,31.0675 27.3485,34.1905 C27.3485,41.3035 30.0085,44.3215 31.7675,46.3195 C33.1775,47.9205 33.6525,48.4585 32.8085,50.3155 C29.5745,57.4325 31.3855,66.7135 33.9375,70.6765 C34.9165,72.1975 36.0175,72.9685 37.2105,72.9685 C38.9845,72.9685 39.7425,71.0975 39.9905,70.4835 C40.4185,69.4285 40.7625,68.0825 41.1625,66.5225 C42.6045,60.8895 44.1045,56.2275 47.8635,56.2275 C51.6225,56.2275 53.1225,60.8895 54.5655,66.5225 C54.9645,68.0825 55.3095,69.4285 55.7365,70.4835 C55.9855,71.0975 56.7415,72.9685 58.5175,72.9685 C59.7105,72.9685 60.8105,72.1975 61.7905,70.6765 C64.3415,66.7135 66.1535,57.4325 62.9175,50.3155 C62.0735,48.4585 62.5495,47.9205 63.9595,46.3195" id="Fill-8" fill="#FFFFFF"></path>
                        <path d="M63.9595,46.3195 C65.7185,44.3215 68.3785,41.3035 68.3785,34.1905 C68.3785,31.0675 67.0815,28.1885 64.7295,26.0845 C62.3665,23.9715 59.0795,22.8075 55.4735,22.8075 C52.7295,22.8075 50.0385,23.9315 47.8865,25.9365 C45.7305,23.9315 43.0225,22.8075 40.2535,22.8075 C36.6485,22.8075 33.3595,23.9715 30.9975,26.0845 C28.6445,28.1885 27.3485,31.0675 27.3485,34.1905 C27.3485,41.3035 30.0085,44.3215 31.7675,46.3195 C33.1775,47.9205 33.6525,48.4585 32.8085,50.3155 C29.5745,57.4325 31.3855,66.7135 33.9375,70.6765 C34.9165,72.1975 36.0175,72.9685 37.2105,72.9685 C38.9845,72.9685 39.7425,71.0975 39.9905,70.4835 C40.4185,69.4285 40.7625,68.0825 41.1625,66.5225 C42.6045,60.8895 44.1045,56.2275 47.8635,56.2275 C51.6225,56.2275 53.1225,60.8895 54.5655,66.5225 C54.9645,68.0825 55.3095,69.4285 55.7365,70.4835 C55.9855,71.0975 56.7415,72.9685 58.5175,72.9685 C59.7105,72.9685 60.8105,72.1975 61.7905,70.6765 C64.3415,66.7135 66.1535,57.4325 62.9175,50.3155 C62.0735,48.4585 62.5495,47.9205 63.9595,46.3195 Z" id="Stroke-10" stroke="#00A19B" stroke-width="2" stroke-linecap="round" stroke-linejoin="round"></path>
                        <path d="M47.8864,25.937 C47.7744,25.833 44.8834,29.752 43.3924,29.752 C44.8834,29.752 47.7044,30.086 48.5624,28.867 C51.5414,24.629 55.5634,22.891 58.1684,23.034 C57.2974,22.885 56.3964,22.807 55.4734,22.807 C52.7294,22.807 50.0384,23.931 47.8864,25.937" id="Fill-12" fill="#E4E4E4"></path>
                        <path d="M60.5548,70.4829 C60.1278,69.4289 59.7838,68.0819 59.3838,66.5229 C57.9418,60.8899 56.4418,56.2259 52.6828,56.2259 C51.7518,56.2259 50.9598,56.5129 50.2728,57.0289 C52.3618,58.5959 53.4798,62.2839 54.5648,66.5229 C54.9638,68.0819 55.3088,69.4289 55.7358,70.4829 C55.9848,71.0979 56.7418,72.9679 58.5178,72.9679 C59.4408,72.9679 60.3088,72.5039 61.1078,71.5889 C60.8268,71.1529 60.6518,70.7229 60.5548,70.4829" id="Fill-14" fill="#E4E4E4"></path>
                        <path d="M38.7562,70.6766 C36.2042,66.7136 34.3932,57.4326 37.6282,50.3156 C38.4712,48.4586 37.9972,47.9206 36.5862,46.3196 C34.8272,44.3216 32.1672,41.3036 32.1672,34.1906 C32.1672,31.0666 33.4632,28.1886 35.8162,26.0846 C37.5762,24.5096 39.8502,23.4626 42.3872,23.0316 C41.6862,22.8846 40.9722,22.8076 40.2532,22.8076 C36.6482,22.8076 33.3602,23.9716 30.9982,26.0846 C28.6442,28.1886 27.3482,31.0666 27.3482,34.1906 C27.3482,41.3036 30.0082,44.3216 31.7672,46.3196 C33.1782,47.9206 33.6522,48.4586 32.8082,50.3156 C29.5742,57.4326 31.3852,66.7136 33.9372,70.6766 C34.9162,72.1976 36.0172,72.9686 37.2102,72.9686 C38.2932,72.9686 38.9972,72.2716 39.4372,71.5886 C39.2042,71.3226 38.9772,71.0196 38.7562,70.6766" id="Fill-16" fill="#E4E4E4"></path>
                        <path d="M63.9595,46.3195 C65.7185,44.3215 68.3785,41.3035 68.3785,34.1905 C68.3785,31.0675 67.0815,28.1885 64.7295,26.0845 C62.3665,23.9715 59.0795,22.8075 55.4735,22.8075 C52.7295,22.8075 50.0385,23.9315 47.8865,25.9365 C45.7305,23.9315 43.0225,22.8075 40.2535,22.8075 C36.6485,22.8075 33.3595,23.9715 30.9975,26.0845 C28.6445,28.1885 27.3485,31.0675 27.3485,34.1905 C27.3485,41.3035 30.0085,44.3215 31.7675,46.3195 C33.1775,47.9205 33.6525,48.4585 32.8085,50.3155 C29.5745,57.4325 31.3855,66.7135 33.9375,70.6765 C34.9165,72.1975 36.0175,72.9685 37.2105,72.9685 C38.9845,72.9685 39.7425,71.0975 39.9905,70.4835 C40.4185,69.4285 40.7625,68.0825 41.1625,66.5225 C42.6045,60.8895 44.1045,56.2275 47.8635,56.2275 C51.6225,56.2275 53.1225,60.8895 54.5655,66.5225 C54.9645,68.0825 55.3095,69.4285 55.7365,70.4835 C55.9855,71.0975 56.7415,72.9685 58.5175,72.9685 C59.7105,72.9685 60.8105,72.1975 61.7905,70.6765 C64.3415,66.7135 66.1535,57.4325 62.9175,50.3155 C62.0735,48.4585 62.5495,47.9205 63.9595,46.3195 Z" id="Stroke-18" stroke="#00A19B" stroke-width="2" stroke-linecap="round" stroke-linejoin="round"></path>
                    </g>
                </g>
            </g>
        </g>
    </g>
</svg>